<svg width="167" height="190" viewBox="0 0 167 190" fill="none" xmlns="http://www.w3.org/2000/svg">
<path d="M11.6296 174.343L31.0443 174.248L50.4586 174.213L89.2877 174.147L128.117 174.212L147.531 174.247L166.945 174.343L147.531 174.439L128.117 174.473L89.2877 174.538L50.4586 174.472L31.0443 174.438L11.6296 174.343Z" fill="#263238"/>
<path d="M135.382 21.5691H71.6684C68.1107 21.5691 65.2241 24.6776 65.2241 28.5205V167.39C65.2241 171.224 68.111 174.341 71.6684 174.341H135.382C138.94 174.341 141.834 171.225 141.834 167.39V28.5205C141.834 24.6776 138.94 21.5691 135.382 21.5691ZM137.802 163.096C137.802 166.751 135.217 169.708 132.028 169.708H75.0301C71.8344 169.708 69.2491 166.751 69.2491 163.096V33.7838C69.2491 26.3375 71.8344 25.9746 75.0301 25.9746H86.4494C87.1127 25.9746 87.6555 26.7725 87.6555 27.7622V28.1889C87.6555 30.5073 88.8539 30.5152 90.3236 30.5152H116.727C118.212 30.5152 119.403 30.5073 119.403 28.1889V27.7622C119.403 26.7725 119.938 25.9746 120.613 25.9746H132.028C135.217 25.9746 137.802 26.9643 137.802 33.7838V163.096Z" fill="#263238"/>
<path d="M137.806 33.7837V163.096C137.806 166.752 135.22 169.708 132.032 169.708H75.0339C71.8381 169.708 69.2525 166.751 69.2525 163.096V33.7837C69.2525 26.3379 71.8378 25.9745 75.0339 25.9745H86.4532C87.1165 25.9745 87.6593 26.7724 87.6593 27.7621V28.1889C87.6593 30.5073 88.8576 30.5151 90.3274 30.5151H116.731C118.216 30.5151 119.407 30.5073 119.407 28.1889V27.7621C119.407 26.7724 119.942 25.9745 120.617 25.9745H132.032C135.22 25.9745 137.806 26.9639 137.806 33.7837Z" fill="white"/>
<path d="M137.805 33.7851V45.5166H69.2528V33.7851C69.2528 26.3392 71.8381 25.9759 75.0342 25.9759H86.4535C87.1168 25.9759 87.6596 26.7742 87.6596 27.7635V28.1906C87.6596 30.509 88.8579 30.5169 90.3277 30.5169H116.731C118.216 30.5169 119.407 30.509 119.407 28.1906V27.7635C119.407 26.7738 119.942 25.9759 120.617 25.9759H132.032C135.22 25.9759 137.805 26.9656 137.805 33.7851Z" fill="#77B954"/>
<path d="M107.129 27.5061H99.9264C99.6806 27.5061 99.4816 27.2955 99.4816 27.0351C99.4816 26.7748 99.6809 26.5641 99.9264 26.5641H107.129C107.375 26.5641 107.574 26.7748 107.574 27.0351C107.574 27.2951 107.375 27.5061 107.129 27.5061Z" fill="white"/>
<path d="M137.806 45.517H69.2529V56.7259H137.806V45.517Z" fill="#EBEBEB"/>
<path d="M80.3935 53.287C80.1846 53.4244 79.9524 53.5293 79.7002 53.5943C79.0479 53.763 78.3939 53.6334 77.8651 53.2858C77.3482 52.9471 76.9504 52.401 76.794 51.7261C76.4797 50.3594 77.2687 48.9817 78.5595 48.6489C79.8488 48.315 81.1503 49.152 81.4657 50.5183C81.719 51.6176 81.2557 52.7236 80.3935 53.287Z" fill="#77B954"/>
<path d="M79.8612 50.8303C79.8612 51.2582 79.5336 51.605 79.1294 51.605C78.7253 51.605 78.3977 51.2582 78.3977 50.8303C78.3977 50.4023 78.7253 50.0555 79.1294 50.0555C79.5336 50.0559 79.8612 50.4027 79.8612 50.8303Z" fill="white"/>
<path d="M80.3936 52.9676V53.2871C80.1847 53.4245 79.9525 53.5294 79.7003 53.5944C79.0481 53.7631 78.394 53.6335 77.8652 53.2859V52.9676C77.8652 52.23 78.431 51.6291 79.1294 51.6291C79.8282 51.6287 80.3936 52.23 80.3936 52.9676Z" fill="white"/>
<path d="M94.228 52.805H91.0479L92.3446 51.1215L91.0479 49.4381H94.228L95.5244 51.1215L94.228 52.805Z" fill="white"/>
<path d="M86.0565 49.4381L86.5731 50.5464L87.7285 50.7242L86.8925 51.5866L87.0896 52.805L86.0565 52.2299L85.0231 52.805L85.2205 51.5866L84.3845 50.7242L85.54 50.5464L86.0565 49.4381Z" fill="#77B954"/>
<path d="M116.566 50.4363H97.806V51.8062H116.566V50.4363Z" fill="#263238"/>
<path d="M131.653 50.4363H124.299V51.8062H131.653V50.4363Z" fill="#455A64"/>
<path d="M80.3935 64.4959C80.1846 64.6334 79.9524 64.7383 79.7002 64.8033C79.0479 64.972 78.3939 64.8424 77.8651 64.4948C77.3482 64.1561 76.9504 63.61 76.794 62.9351C76.4797 61.5687 77.2687 60.1911 78.5595 59.8579C79.8488 59.5239 81.1503 60.361 81.4657 61.7273C81.719 62.8266 81.2557 63.933 80.3935 64.4959Z" fill="#455A64"/>
<path d="M79.8612 62.0396C79.8612 62.4675 79.5336 62.8144 79.1294 62.8144C78.7253 62.8144 78.3977 62.4675 78.3977 62.0396C78.3977 61.6117 78.7253 61.2648 79.1294 61.2648C79.5336 61.2648 79.8612 61.6117 79.8612 62.0396Z" fill="white"/>
<path d="M80.3936 64.1763V64.4958C80.1847 64.6332 79.9525 64.7381 79.7003 64.8031C79.0481 64.9718 78.394 64.8422 77.8652 64.4946V64.1763C77.8652 63.4391 78.431 62.8378 79.1294 62.8378C79.8282 62.8378 80.3936 63.4387 80.3936 64.1763Z" fill="white"/>
<path d="M94.228 64.0138H91.0479L92.3446 62.3304L91.0479 60.647H94.228L95.5244 62.3304L94.228 64.0138Z" fill="white" stroke="#EBEBEB" stroke-width="0.5" stroke-miterlimit="10"/>
<path d="M86.0565 60.647L86.5731 61.7553L87.7285 61.933L86.8925 62.7955L87.0896 64.0138L86.0565 63.4387L85.0231 64.0138L85.2205 62.7955L84.3845 61.933L85.54 61.7553L86.0565 60.647Z" fill="#77B954"/>
<path d="M116.566 61.646H97.806V63.0155H116.566V61.646Z" fill="#263238"/>
<path d="M131.653 61.646H124.299V63.0155H131.653V61.646Z" fill="#455A64"/>
<path d="M137.806 67.935H69.2529V79.1439H137.806V67.935Z" fill="#EBEBEB"/>
<path d="M80.3935 75.7046C80.1846 75.842 79.9524 75.9469 79.7002 76.0119C79.0479 76.1806 78.3939 76.051 77.8651 75.7034C77.3482 75.3648 76.9504 74.8186 76.794 74.1437C76.4797 72.7773 77.2687 71.3997 78.5595 71.0665C79.8488 70.7326 81.1503 71.5696 81.4657 72.9359C81.719 74.0352 81.2557 75.1416 80.3935 75.7046Z" fill="#77B954"/>
<path d="M79.8612 73.2483C79.8612 73.6763 79.5336 74.0231 79.1294 74.0231C78.7253 74.0231 78.3977 73.6763 78.3977 73.2483C78.3977 72.8204 78.7253 72.4736 79.1294 72.4736C79.5336 72.4736 79.8612 72.8204 79.8612 73.2483Z" fill="white"/>
<path d="M80.3936 75.3852V75.7046C80.1847 75.842 79.9525 75.947 79.7003 76.0119C79.0481 76.1807 78.394 76.0511 77.8652 75.7034V75.3852C77.8652 74.648 78.431 74.0466 79.1294 74.0466C79.8282 74.0466 80.3936 74.6476 80.3936 75.3852Z" fill="white"/>
<path d="M94.228 75.2227H91.0479L92.3446 73.5393L91.0479 71.8558H94.228L95.5244 73.5393L94.228 75.2227Z" fill="white"/>
<path d="M86.0565 71.8558L86.5731 72.9642L87.7285 73.1419L86.8925 74.0048L87.0896 75.2227L86.0565 74.6476L85.0231 75.2227L85.2205 74.0048L84.3845 73.1419L85.54 72.9642L86.0565 71.8558Z" fill="white"/>
<path d="M116.566 72.8546H97.806V74.224H116.566V72.8546Z" fill="#DBDBDB"/>
<path d="M131.653 72.8546H124.299V74.224H131.653V72.8546Z" fill="#C7C7C7"/>
<path d="M80.3935 86.9137C80.1846 87.0511 79.9524 87.1561 79.7002 87.2211C79.0479 87.3898 78.3939 87.2602 77.8651 86.9126C77.3482 86.5739 76.9504 86.0278 76.794 85.3528C76.4797 83.9865 77.2687 82.6088 78.5595 82.2757C79.8488 81.9417 81.1503 82.7787 81.4657 84.1451C81.719 85.2444 81.2557 86.3508 80.3935 86.9137Z" fill="#A6A6A6"/>
<path d="M79.8612 84.4575C79.8612 84.8854 79.5336 85.2323 79.1294 85.2323C78.7253 85.2323 78.3977 84.8854 78.3977 84.4575C78.3977 84.0296 78.7253 83.6827 79.1294 83.6827C79.5336 83.6831 79.8612 84.0296 79.8612 84.4575Z" fill="white"/>
<path d="M80.3936 86.5943V86.9138C80.1847 87.0512 79.9525 87.1561 79.7003 87.2211C79.0481 87.3899 78.394 87.2603 77.8652 86.9126V86.594C77.8652 85.8564 78.431 85.2554 79.1294 85.2554C79.8282 85.2558 80.3936 85.8568 80.3936 86.5943Z" fill="white"/>
<path d="M94.228 86.4321H91.0479L92.3446 84.7483L91.0479 83.0649H94.228L95.5244 84.7483L94.228 86.4321Z" fill="white" stroke="#EBEBEB" stroke-width="0.5" stroke-miterlimit="10"/>
<path d="M86.0565 83.0649L86.5731 84.1732L87.7285 84.3509L86.8925 85.2138L87.0896 86.4321L86.0565 85.8566L85.0231 86.4321L85.2205 85.2138L84.3845 84.3509L85.54 84.1732L86.0565 83.0649Z" fill="#77B954"/>
<path d="M116.566 84.0636H97.806V85.433H116.566V84.0636Z" fill="#DBDBDB"/>
<path d="M131.653 84.0636H124.299V85.433H131.653V84.0636Z" fill="#C7C7C7"/>
<path d="M137.806 90.353H69.2529V101.562H137.806V90.353Z" fill="#EBEBEB"/>
<path d="M80.3935 98.1225C80.1846 98.26 79.9524 98.3653 79.7002 98.4299C79.0479 98.5986 78.3939 98.469 77.8651 98.1214C77.3482 97.7827 76.9504 97.2366 76.794 96.5616C76.4797 95.1953 77.2687 93.8176 78.5595 93.4845C79.8488 93.1505 81.1503 93.9875 81.4657 95.3539C81.719 96.4532 81.2557 97.5596 80.3935 98.1225Z" fill="#37474F"/>
<path d="M79.8612 95.6663C79.8612 96.0942 79.5336 96.4411 79.1294 96.4411C78.7253 96.4411 78.3977 96.0942 78.3977 95.6663C78.3977 95.2384 78.7253 94.8915 79.1294 94.8915C79.5336 94.8915 79.8612 95.2384 79.8612 95.6663Z" fill="white"/>
<path d="M80.3936 97.8031V98.1226C80.1847 98.26 79.9525 98.3653 79.7003 98.4299C79.0481 98.5986 78.394 98.4691 77.8652 98.1214V97.8031C77.8652 97.0655 78.431 96.4646 79.1294 96.4646C79.8282 96.4646 80.3936 97.0655 80.3936 97.8031Z" fill="white"/>
<path d="M94.228 97.6411H91.0479L92.3446 95.9572L91.0479 94.2738H94.228L95.5244 95.9572L94.228 97.6411Z" fill="white"/>
<path d="M86.0565 94.2738L86.5731 95.3821L87.7285 95.5599L86.8925 96.4227L87.0896 97.6411L86.0565 97.0656L85.0231 97.6411L85.2205 96.4227L84.3845 95.5599L85.54 95.3821L86.0565 94.2738Z" fill="#77B954"/>
<path d="M116.566 95.2725H97.806V96.6424H116.566V95.2725Z" fill="#DBDBDB"/>
<path d="M131.653 95.2725H124.299V96.6424H131.653V95.2725Z" fill="#C7C7C7"/>
<path d="M137.805 157.605V163.094C137.805 165.541 136.648 167.671 134.928 168.814H72.1303C70.4073 167.671 69.2537 165.537 69.2537 163.094V157.605H137.805Z" fill="#EBEBEB"/>
<path d="M80.3934 165.377C80.1845 165.514 79.9523 165.619 79.7001 165.684C79.0479 165.853 78.3938 165.723 77.8651 165.375C77.3482 165.037 76.9503 164.491 76.7939 163.816C76.4796 162.449 77.2687 161.072 78.5594 160.738C79.8488 160.404 81.1503 161.242 81.4657 162.608C81.7189 163.707 81.2557 164.814 80.3934 165.377Z" fill="#77B954"/>
<path d="M79.861 162.92C79.861 163.348 79.5334 163.695 79.1293 163.695C78.7252 163.695 78.3976 163.348 78.3976 162.92C78.3976 162.492 78.7252 162.146 79.1293 162.146C79.5334 162.146 79.861 162.492 79.861 162.92Z" fill="white"/>
<path d="M80.3935 165.057V165.377C80.1846 165.514 79.9524 165.619 79.7002 165.684C79.048 165.853 78.3939 165.723 77.8652 165.375V165.057C77.8652 164.319 78.4309 163.718 79.1293 163.718C79.8282 163.719 80.3935 164.32 80.3935 165.057Z" fill="white"/>
<path d="M94.228 164.895H91.0478L92.3445 163.211L91.0478 161.528H94.228L95.5243 163.211L94.228 164.895Z" fill="white"/>
<path d="M86.0565 161.528L86.573 162.636L87.7285 162.814L86.8925 163.677L87.0895 164.895L86.0565 164.32L85.023 164.895L85.2205 163.677L84.3845 162.814L85.5399 162.636L86.0565 161.528Z" fill="#77B954"/>
<path d="M116.566 162.526H97.806V163.896H116.566V162.526Z" fill="#DBDBDB"/>
<path d="M131.653 162.526H124.299V163.896H131.653V162.526Z" fill="#C7C7C7"/>
<path d="M80.3935 109.332C80.1846 109.469 79.9524 109.574 79.7002 109.639C79.0479 109.808 78.3939 109.678 77.8651 109.33C77.3482 108.992 76.9504 108.446 76.794 107.771C76.4797 106.404 77.2687 105.027 78.5595 104.694C79.8488 104.36 81.1503 105.197 81.4657 106.563C81.719 107.662 81.2557 108.769 80.3935 109.332Z" fill="#263238"/>
<path d="M79.8612 106.875C79.8612 107.303 79.5336 107.65 79.1294 107.65C78.7253 107.65 78.3977 107.303 78.3977 106.875C78.3977 106.447 78.7253 106.101 79.1294 106.101C79.5336 106.101 79.8612 106.448 79.8612 106.875Z" fill="white"/>
<path d="M80.3936 109.012V109.332C80.1847 109.469 79.9525 109.574 79.7003 109.639C79.0481 109.808 78.394 109.678 77.8652 109.33V109.012C77.8652 108.274 78.431 107.674 79.1294 107.674C79.8282 107.674 80.3936 108.275 80.3936 109.012Z" fill="white"/>
<path d="M94.228 108.85H91.0479L92.3446 107.166L91.0479 105.483H94.228L95.5244 107.166L94.228 108.85Z" fill="white" stroke="#EBEBEB" stroke-width="0.5" stroke-miterlimit="10"/>
<path d="M86.0565 105.483L86.5731 106.591L87.7285 106.769L86.8925 107.632L87.0896 108.85L86.0565 108.275L85.0231 108.85L85.2205 107.632L84.3845 106.769L85.54 106.591L86.0565 105.483Z" fill="white" stroke="#EBEBEB" stroke-width="0.5" stroke-miterlimit="10"/>
<path d="M116.566 106.482H97.806V107.851H116.566V106.482Z" fill="#DBDBDB"/>
<path d="M131.653 106.482H124.299V107.851H131.653V106.482Z" fill="#C7C7C7"/>
<path d="M137.806 112.771H69.2529V123.98H137.806V112.771Z" fill="#EBEBEB"/>
<path d="M80.3935 120.54C80.1846 120.678 79.9524 120.783 79.7002 120.848C79.0479 121.016 78.3939 120.887 77.8651 120.539C77.3482 120.201 76.9504 119.654 76.794 118.979C76.4797 117.613 77.2687 116.235 78.5595 115.902C79.8488 115.568 81.1503 116.405 81.4657 117.772C81.719 118.871 81.2557 119.977 80.3935 120.54Z" fill="#77B954"/>
<path d="M79.8612 118.084C79.8612 118.512 79.5336 118.859 79.1294 118.859C78.7253 118.859 78.3977 118.512 78.3977 118.084C78.3977 117.656 78.7253 117.31 79.1294 117.31C79.5336 117.31 79.8612 117.657 79.8612 118.084Z" fill="white"/>
<path d="M80.3936 120.221V120.54C80.1847 120.678 79.9525 120.783 79.7003 120.848C79.0481 121.017 78.394 120.887 77.8652 120.539V120.221C77.8652 119.483 78.431 118.882 79.1294 118.882C79.8282 118.882 80.3936 119.484 80.3936 120.221Z" fill="white"/>
<path d="M94.228 120.059H91.0479L92.3446 118.375L91.0479 116.692H94.228L95.5244 118.375L94.228 120.059Z" fill="white"/>
<path d="M86.0565 116.692L86.5731 117.8L87.7285 117.978L86.8925 118.841L87.0896 120.059L86.0565 119.484L85.0231 120.059L85.2205 118.841L84.3845 117.978L85.54 117.8L86.0565 116.692Z" fill="#77B954"/>
<path d="M116.566 117.69H97.806V119.06H116.566V117.69Z" fill="#263238"/>
<path d="M131.653 117.69H124.299V119.06H131.653V117.69Z" fill="#455A64"/>
<path d="M80.3935 131.75C80.1846 131.887 79.9524 131.992 79.7002 132.057C79.0479 132.226 78.3939 132.096 77.8651 131.748C77.3482 131.41 76.9504 130.864 76.794 130.189C76.4797 128.822 77.2687 127.444 78.5595 127.112C79.8488 126.778 81.1503 127.615 81.4657 128.981C81.719 130.08 81.2557 131.186 80.3935 131.75Z" fill="#77B954"/>
<path d="M79.8612 129.294C79.8612 129.721 79.5336 130.068 79.1294 130.068C78.7253 130.068 78.3977 129.721 78.3977 129.294C78.3977 128.866 78.7253 128.519 79.1294 128.519C79.5336 128.519 79.8612 128.866 79.8612 129.294Z" fill="white"/>
<path d="M80.3936 131.43V131.75C80.1847 131.887 79.9525 131.992 79.7003 132.057C79.0481 132.226 78.394 132.096 77.8652 131.749V131.43C77.8652 130.692 78.431 130.091 79.1294 130.091C79.8282 130.092 80.3936 130.693 80.3936 131.43Z" fill="white"/>
<path d="M94.228 131.268H91.0479L92.3446 129.584L91.0479 127.901H94.228L95.5244 129.584L94.228 131.268Z" fill="white" stroke="#EBEBEB" stroke-width="0.5" stroke-miterlimit="10"/>
<path d="M86.0565 127.901L86.5731 129.009L87.7285 129.187L86.8925 130.049L87.0896 131.268L86.0565 130.693L85.0231 131.268L85.2205 130.049L84.3845 129.187L85.54 129.009L86.0565 127.901Z" fill="white" stroke="#EBEBEB" stroke-width="0.5" stroke-miterlimit="10"/>
<path d="M116.566 128.899H97.806V130.269H116.566V128.899Z" fill="#DBDBDB"/>
<path d="M131.653 128.899H124.299V130.269H131.653V128.899Z" fill="#C7C7C7"/>
<path d="M137.806 135.189H69.2529V146.398H137.806V135.189Z" fill="#EBEBEB"/>
<path d="M80.3935 142.959C80.1846 143.096 79.9524 143.201 79.7002 143.266C79.0479 143.435 78.3939 143.305 77.8651 142.957C77.3482 142.619 76.9504 142.073 76.794 141.398C76.4797 140.031 77.2687 138.654 78.5595 138.321C79.8488 137.987 81.1503 138.824 81.4657 140.19C81.719 141.289 81.2557 142.396 80.3935 142.959Z" fill="#455A64"/>
<path d="M79.8612 140.503C79.8612 140.93 79.5336 141.277 79.1294 141.277C78.7253 141.277 78.3977 140.93 78.3977 140.503C78.3977 140.075 78.7253 139.728 79.1294 139.728C79.5336 139.728 79.8612 140.075 79.8612 140.503Z" fill="white"/>
<path d="M80.3936 142.639V142.959C80.1847 143.096 79.9525 143.201 79.7003 143.266C79.0481 143.435 78.394 143.305 77.8652 142.958V142.639C77.8652 141.902 78.431 141.3 79.1294 141.3C79.8282 141.301 80.3936 141.902 80.3936 142.639Z" fill="white"/>
<path d="M94.228 142.477H91.0479L92.3446 140.793L91.0479 139.11H94.228L95.5244 140.793L94.228 142.477Z" fill="white"/>
<path d="M86.0565 139.11L86.5731 140.218L87.7285 140.396L86.8925 141.259L87.0896 142.477L86.0565 141.902L85.0231 142.477L85.2205 141.259L84.3845 140.396L85.54 140.218L86.0565 139.11Z" fill="white"/>
<path d="M116.566 140.109H97.806V141.478H116.566V140.109Z" fill="#DBDBDB"/>
<path d="M131.653 140.109H124.299V141.478H131.653V140.109Z" fill="#C7C7C7"/>
<path d="M80.3935 154.168C80.1846 154.305 79.9524 154.41 79.7002 154.475C79.0479 154.644 78.3939 154.514 77.8651 154.166C77.3482 153.828 76.9504 153.282 76.794 152.607C76.4797 151.24 77.2687 149.863 78.5595 149.53C79.8488 149.196 81.1503 150.033 81.4657 151.399C81.719 152.498 81.2557 153.605 80.3935 154.168Z" fill="#A6A6A6"/>
<path d="M79.8612 151.712C79.8612 152.139 79.5336 152.486 79.1294 152.486C78.7253 152.486 78.3977 152.139 78.3977 151.712C78.3977 151.284 78.7253 150.937 79.1294 150.937C79.5336 150.937 79.8612 151.284 79.8612 151.712Z" fill="white"/>
<path d="M80.3936 153.848V154.168C80.1847 154.305 79.9525 154.41 79.7003 154.475C79.0481 154.644 78.394 154.514 77.8652 154.167V153.848C77.8652 153.111 78.431 152.51 79.1294 152.51C79.8282 152.51 80.3936 153.111 80.3936 153.848Z" fill="white"/>
<path d="M94.228 153.686H91.0479L92.3446 152.003L91.0479 150.319H94.228L95.5244 152.003L94.228 153.686Z" fill="white" stroke="#EBEBEB" stroke-width="0.5" stroke-miterlimit="10"/>
<path d="M86.0565 150.319L86.5731 151.427L87.7285 151.605L86.8925 152.468L87.0896 153.686L86.0565 153.111L85.0231 153.686L85.2205 152.468L84.3845 151.605L85.54 151.427L86.0565 150.319Z" fill="white" stroke="#EBEBEB" stroke-width="0.5" stroke-miterlimit="10"/>
<path d="M116.566 151.318H97.806V152.687H116.566V151.318Z" fill="#DBDBDB"/>
<path d="M131.653 151.318H124.299V152.687H131.653V151.318Z" fill="#C7C7C7"/>
<path d="M79.9422 174.418H49.9261C46.3369 161.083 43.4503 150.937 43.4503 150.937H71.8939C71.8939 150.937 75.4265 160.982 79.9422 174.418Z" fill="#37474F"/>
<path d="M54.3242 174.418H53.7053C51.9279 168.133 50.0781 161.871 48.2663 155.598C48.2434 155.513 48.365 155.477 48.3916 155.557C48.7677 156.647 49.1437 157.733 49.5083 158.827C51.2328 163.979 52.8201 169.186 54.3242 174.418Z" fill="#263238"/>
<path d="M71.2599 150.937C71.2258 151.568 69.6381 157.335 68.8177 165.965C68.5178 169.146 68.1795 172.142 67.8149 174.418H27.9846C24.0424 161.522 29.8914 150.937 29.8914 150.937C29.8914 150.937 71.2635 150.913 71.2599 150.937Z" fill="#37474F"/>
<path d="M63.2991 165.221C63.4396 167.385 63.4851 169.552 63.4626 171.72C63.4511 172.548 63.3335 173.558 63.4396 174.419H62.7482C62.5811 173.043 62.7482 171.33 62.7405 169.983C62.7175 164.385 62.0453 158.855 61.2326 153.334C61.2138 153.201 61.3883 153.161 61.4227 153.29C62.4635 157.19 63.0333 161.179 63.2991 165.221Z" fill="#263238"/>
<path d="M68.2368 168.016C68.2027 169.166 67.9062 172.231 67.0517 174.418H66.4553C67.6137 171.43 67.5453 165.599 67.4618 164.252C67.2225 160.259 66.9301 156.51 66.2882 152.304C66.2653 152.172 66.4742 152.164 66.5008 152.284C67.6289 157.343 68.3924 162.808 68.2368 168.016Z" fill="#263238"/>
<path d="M30.4419 156.535C29.2872 161.819 29.8496 167.485 30.9507 172.725C31.0686 173.292 31.1977 173.855 31.3304 174.418H30.7226C29.0931 167.131 28.5917 159.591 31.4595 152.525C31.4975 152.437 31.6188 152.509 31.5848 152.598C31.103 153.881 30.7344 155.191 30.4419 156.535Z" fill="#263238"/>
<path d="M96.5706 73.9271L90.0413 95.9699C89.7806 96.6123 90.0627 97.1647 90.6721 97.2015L101.571 97.8608C102.18 97.898 102.887 97.4055 103.147 96.7626L109.676 74.7198C109.938 74.0758 109.655 73.5254 109.046 73.4886L98.1469 72.8289C97.5383 72.7921 96.8324 73.283 96.5706 73.9271Z" fill="#37474F"/>
<path d="M97.8651 73.9932L91.3361 96.036C91.0751 96.6784 91.3575 97.2308 91.9665 97.2676L102.866 97.9269C103.475 97.9637 104.181 97.4716 104.442 96.8287L110.971 74.7859C111.233 74.1419 110.95 73.5911 110.341 73.5543L99.4417 72.895C98.8327 72.8582 98.1265 73.3491 97.8651 73.9932Z" fill="#455A64"/>
<path d="M100.798 75.1957C100.758 75.7364 100.311 76.14 99.8004 76.0973C99.2897 76.0543 98.9085 75.5813 98.9492 75.0403C98.9899 74.4996 99.4365 74.096 99.9472 74.1391C100.458 74.1817 100.839 74.6551 100.798 75.1957Z" fill="#263238"/>
<path d="M59.6092 105.666C64.9073 119.998 77.6233 139.017 83.344 139.497C86.0661 139.725 90.8887 140.755 94.6705 137.69C102.923 131.002 110.307 117.624 112.131 109.797C112.78 107.013 100.218 100.005 98.1635 102.166C93.3534 107.225 87.4929 117.401 86.705 117.282C83.7888 116.841 72.957 105.935 65.4009 98.2589C56.2274 88.9401 57.4979 99.9553 59.6092 105.666Z" fill="#F1D5C9"/>
<path d="M113.359 95.2621C112.346 89.4476 111.243 88.1192 112.85 82.7311C113.904 79.1955 112.224 76.9655 109.638 79.6809C105.409 84.1221 105.228 91.9148 105.899 94.6353L113.359 95.2621Z" fill="#F1D5C9"/>
<path d="M111.346 112.206C111.346 112.206 114.255 104.405 113.754 98.0955C113.408 93.7322 111.655 84.3289 100.537 78.6534C97.8995 77.307 93.2399 77.3693 96.7932 81.2243C99.3171 83.9625 101.699 84.8915 102.893 86.7675C102.893 86.7675 96.9751 87.5912 95.8045 90.4413C95.2813 91.7149 93.9306 95.227 93.2469 98.1197C93.2469 98.1197 93.8023 98.4466 94.561 98.7551C94.561 98.7551 93.5442 101.46 95.2354 105.516L111.346 112.206Z" fill="#F1D5C9"/>
<path d="M112.795 93.987C111.238 92.3905 107.885 89.0655 104.248 87.3559C100.209 85.4567 91.9436 82.9511 90.6502 86.123C89.7018 88.4489 92.7781 89.699 92.7781 89.699C92.7781 89.699 89.156 89.4257 88.733 91.7254C88.3481 93.8207 90.7825 94.6369 90.7825 94.6369C90.7825 94.6369 88.5581 94.871 88.5544 96.9652C88.5496 99.4836 93.2122 98.5793 95.289 101.135C95.7556 101.708 112.795 93.987 112.795 93.987Z" fill="#F1D5C9"/>
<path d="M103.065 92.2098C101.368 90.9625 96.8279 89.1769 92.8512 89.6404C92.761 89.651 92.7203 89.7285 92.8046 89.7375C97.2856 90.212 101.354 91.5662 103.048 92.2505C103.071 92.2595 103.084 92.2239 103.065 92.2098Z" fill="#263238"/>
<path d="M101.136 96.4719C99.5674 95.555 94.8103 93.9358 90.7955 94.552C90.7057 94.5657 90.6698 94.6468 90.7545 94.6519C95.4555 94.9435 99.3918 95.9371 101.121 96.5134C101.144 96.5209 101.156 96.4833 101.136 96.4719Z" fill="#263238"/>
<path d="M76.1458 106.831L74.1158 109.43L73.6991 109.967L65.6253 120.312C65.6253 120.312 58.3088 107.657 56.8316 100.464C55.9453 96.1412 56.5817 93.591 58.3616 93.1259C58.4903 93.0938 58.6267 93.07 58.7632 93.0617C59.9146 92.9576 61.4594 93.5989 63.3077 95.0427C68.5112 99.1166 76.1458 106.831 76.1458 106.831Z" fill="#77B954"/>
<path d="M75.6968 106.387C75.5089 107.036 75.2789 107.669 75.0105 108.286L76.1146 106.874V106.87C76.1223 106.853 76.1301 106.837 76.1301 106.821C76.088 106.772 75.9345 106.622 75.6968 106.387ZM63.2762 95.0175C62.5593 95.5006 61.9 96.0769 61.3173 96.7346C59.5384 98.7234 58.5379 101.321 58.5494 104.065C58.5494 104.796 58.607 105.523 58.6836 106.245C58.8636 106.692 59.0478 107.138 59.2393 107.585C59.2049 107.296 59.1665 107.008 59.1321 106.716C58.9365 105.149 58.7908 103.55 59.0707 101.987C59.297 100.741 59.7606 99.5718 60.3855 98.496C61.1561 97.1688 62.2102 96.0158 63.437 95.1432C63.3912 95.1107 63.3487 95.0743 63.3065 95.0418C63.2954 95.0336 63.2877 95.0253 63.2762 95.0175Z" fill="white"/>
<path d="M64.0523 116.009C64.4889 114.921 68.9817 108.386 72.7232 104.238C72.7801 104.175 72.8678 104.257 72.8193 104.326C72.4633 104.836 65.0435 115.333 64.1828 116.127C64.1114 116.192 64.0208 116.087 64.0523 116.009Z" fill="#263238"/>
<path opacity="0.05" d="M70.7909 113.699L65.6248 120.309C65.6248 120.309 58.3064 107.659 56.8285 100.462C55.8087 95.4974 56.8022 92.8618 59.2311 93.0583L70.7909 113.699Z" fill="black"/>
<path d="M72.2614 152.677C71.2243 153.867 27.4499 158.804 27.2003 158.484C26.53 157.619 30.5565 110.775 48.4907 93.6154C51.6513 90.5915 57.2327 91.454 59.8209 93.0082C61.1139 93.7846 63.3605 100.26 65.5624 107.818C67.2447 113.592 72.9133 151.918 72.2614 152.677Z" fill="#77B954"/>
<path d="M72.2623 152.676C72.0323 152.939 69.6748 153.394 66.1478 153.934C66.0172 153.95 65.8834 153.97 65.7492 153.991C63.9666 154.263 61.9119 154.551 59.6923 154.847C59.5352 154.868 59.374 154.888 59.2132 154.912C52.8801 155.752 45.3243 156.654 39.1447 157.343C39.0756 157.352 39.0068 157.36 38.9417 157.364C32.2907 158.106 27.284 158.593 27.1997 158.484C27.0691 158.318 27.1154 156.418 27.4067 153.342C27.4182 153.212 27.4337 153.078 27.4452 152.944C28.1429 145.828 30.0826 132.904 34.0234 120.406C34.0847 120.204 34.1498 120.001 34.2149 119.798C35.4147 116.055 36.795 112.358 38.3819 108.875C38.4282 108.769 38.474 108.668 38.5239 108.563C40.1723 104.97 42.0432 101.613 44.1478 98.6827C44.2206 98.5814 44.2898 98.4839 44.3663 98.3864C45.6467 96.6247 47.0229 95.0215 48.4912 93.6172C48.9168 93.2112 49.3845 92.8745 49.8829 92.6024C49.9979 92.5374 50.117 92.4807 50.2357 92.4239C51.769 91.6851 53.5516 91.4945 55.2306 91.6405C55.3726 91.6526 55.5142 91.6691 55.6525 91.6851C57.2894 91.8801 58.792 92.3875 59.8232 93.0084C60.329 93.3169 60.9887 94.5023 61.7322 96.2962C61.7666 96.3772 61.8014 96.4626 61.8358 96.5479C62.9591 99.3041 64.2702 103.375 65.5621 107.82C66.0184 109.391 66.7734 113.377 67.6131 118.357C67.6323 118.467 67.6515 118.58 67.6708 118.694C67.9621 120.415 68.2612 122.254 68.56 124.15C68.6058 124.417 68.648 124.686 68.6902 124.957C69.2999 128.821 69.9092 132.889 70.4535 136.676C70.4727 136.83 70.4956 136.984 70.5186 137.134C70.9785 140.378 71.3849 143.401 71.6992 145.902C71.7221 146.101 71.745 146.296 71.7683 146.486C72.2046 150.094 72.4194 152.493 72.2623 152.676Z" fill="#77B954"/>
<path d="M58.036 148.134C57.2883 147.034 56.3414 146.092 55.2451 145.39C54.0719 144.631 52.7726 144.245 51.423 144.002C50.0084 143.742 48.5249 143.596 47.2024 142.958C45.9371 142.354 45.0519 141.27 44.166 140.178C43.936 139.89 43.6946 139.606 43.449 139.33C43.7289 139.131 44.0088 138.928 44.2961 138.741C45.9559 137.658 47.7925 136.846 49.3258 135.559C50.7176 134.39 51.6833 132.832 52.0745 130.993C52.4502 129.219 52.3123 127.323 51.6989 125.627C51.0703 123.898 49.9507 122.396 48.586 121.247C45.7685 118.877 42.0344 117.968 38.4959 118.475C37.0162 118.686 35.5671 119.128 34.2139 119.798C34.1488 120.001 34.0833 120.204 34.0223 120.407C34.6816 120.054 35.3641 119.762 36.0619 119.526C39.4125 118.394 43.1732 118.576 46.3242 120.289C47.8461 121.113 49.2186 122.282 50.2077 123.764C51.1853 125.225 51.741 126.946 51.7946 128.736C51.8482 130.481 51.419 132.263 50.4376 133.684C49.3336 135.28 47.639 136.241 46.0328 137.163C45.0438 137.735 44.0817 138.344 43.1462 139.005C42.5905 138.429 41.973 137.926 41.2372 137.621C40.0566 137.134 38.73 137.174 37.5379 137.597C34.9197 138.522 33.386 141.181 33.0909 143.994C32.9223 145.581 33.1368 147.14 33.5931 148.629C32.4853 149.79 31.3084 150.866 29.9743 151.722C29.1768 152.238 28.3297 152.651 27.4442 152.944C27.4327 153.078 27.4172 153.212 27.4057 153.342C27.5665 153.297 27.7241 153.244 27.8812 153.187C30.1466 152.375 32.0327 150.817 33.735 149.068C34.195 150.427 34.8428 151.726 35.579 152.932C36.5525 154.523 37.6799 156.009 38.9411 157.364C39.0062 157.36 39.0753 157.352 39.1441 157.344C38.4157 156.528 37.7294 155.668 37.0972 154.766C35.8359 152.968 34.6627 150.967 33.9806 148.812C34.6132 148.146 35.2225 147.456 35.8208 146.77C36.9899 145.422 38.1402 144.046 39.3859 142.772C40.5473 141.591 41.8048 140.511 43.1311 139.549C43.9286 140.446 44.603 141.461 45.4771 142.285C46.4854 143.235 47.7274 143.726 49.0345 144.014C50.3914 144.315 51.7869 144.436 53.1209 144.871C54.3093 145.256 55.4019 145.934 56.3218 146.815C58.1657 148.572 59.3197 151.114 59.2968 153.756C59.2931 154.141 59.2661 154.531 59.2125 154.913C59.3737 154.888 59.5345 154.868 59.6917 154.848C59.9605 152.481 59.3663 150.086 58.036 148.134ZM41.1071 140.576C39.6887 141.786 38.4083 143.142 37.1741 144.558C36.0778 145.816 34.9966 147.136 33.8467 148.37C33.6474 147.672 33.5017 146.961 33.4248 146.239C33.1372 143.503 33.9269 140.373 36.1506 138.729C37.1626 137.982 38.3972 137.573 39.6351 137.638C40.8926 137.699 41.9505 138.315 42.836 139.229C42.2496 139.655 41.6669 140.097 41.1071 140.576ZM70.4528 136.675C69.1724 137.759 67.957 138.944 66.5272 139.809C64.4648 141.055 61.6358 141.717 59.7612 139.74C59.025 138.96 58.5458 137.893 58.4501 136.797C58.3466 135.583 58.7451 134.495 59.397 133.517C60.1213 132.422 61.0494 131.5 61.766 130.396C62.3679 129.471 62.8586 128.476 63.3034 127.457C64.2119 127.729 65.178 127.729 66.102 127.351C67.256 126.88 68.0839 126.012 68.6895 124.957C68.6474 124.685 68.6052 124.417 68.5593 124.149C68.2717 124.737 67.9152 125.289 67.4553 125.785C66.6004 126.71 65.4501 127.23 64.2237 127.12C63.9782 127.096 63.7408 127.047 63.5067 126.982C63.5604 126.86 63.614 126.734 63.6639 126.609C64.7029 124.092 65.5729 121.434 67.2061 119.258C67.3518 119.063 67.5052 118.877 67.6701 118.694C67.6509 118.58 67.6317 118.466 67.6124 118.357C66.075 120.049 65.0863 122.249 64.2082 124.376C63.8632 125.208 63.5256 126.049 63.1614 126.877C62.3409 126.581 61.5896 126.049 60.9877 125.403C58.9788 123.24 58.8294 119.895 59.0365 117.046C59.167 115.308 59.4162 113.579 59.485 111.838C59.5578 110.109 59.343 108.424 59.1323 106.716C58.9367 105.149 58.791 103.55 59.0709 101.987C59.2972 100.741 59.7608 99.5716 60.3857 98.4958C60.7958 97.7895 61.2827 97.1318 61.8347 96.5473C61.8004 96.4619 61.7656 96.377 61.7312 96.2955C61.5892 96.4377 61.4513 96.5837 61.3171 96.734C59.5382 98.7228 58.5377 101.321 58.5492 104.065C58.5529 105.851 58.8864 107.608 59.0169 109.386C59.1511 111.217 58.9711 113.039 58.7677 114.858C58.4227 118.024 58.1158 121.51 59.6762 124.396C60.3816 125.707 61.5892 126.82 62.9577 127.339C62.785 127.725 62.6049 128.107 62.4134 128.484C62.0721 129.15 61.6965 129.795 61.275 130.412C60.8801 130.984 60.4353 131.516 59.9986 132.052C59.1973 133.043 58.3809 134.122 58.1317 135.433C57.921 136.55 58.1125 137.723 58.5995 138.729C59.0823 139.736 59.8877 140.596 60.8804 141.031C62.0766 141.559 63.3992 141.518 64.6297 141.137C66.945 140.418 68.6817 138.693 70.5179 137.134C70.495 136.984 70.4721 136.83 70.4528 136.675ZM71.7676 146.486C70.6059 145.507 69.3602 144.546 67.8383 144.399C67.087 144.326 66.3431 144.489 65.7223 144.951C65.151 145.374 64.7524 146.027 64.511 146.709C63.9667 148.248 64.1046 150.025 64.6759 151.531C65.0209 152.444 65.5463 153.223 66.1479 153.934C66.0173 153.95 65.8835 153.97 65.7493 153.991C65.3392 153.512 64.9672 153 64.6722 152.436C64.2466 151.632 63.9708 150.752 63.8403 149.839C63.614 148.251 63.8366 146.47 64.8256 145.195C65.8953 143.819 67.6357 143.677 69.1347 144.257C70.0968 144.627 70.9095 145.244 71.6992 145.901C71.7218 146.101 71.7447 146.295 71.7676 146.486ZM55.2836 92.2897C55.4137 92.0909 55.5365 91.892 55.6515 91.6849C55.5135 91.6684 55.3716 91.6524 55.2296 91.6403C54.4091 93.0406 53.3128 94.3028 52.1936 95.4315C52.117 95.5086 52.0401 95.5858 51.9636 95.6629C51.7221 94.8024 51.3772 93.9744 50.8825 93.2395C50.6869 92.9514 50.4724 92.6793 50.2347 92.4236C50.116 92.4804 49.9969 92.5372 49.8819 92.6022C50.6676 93.4263 51.2197 94.4532 51.5572 95.5732C51.5957 95.7032 51.6301 95.8332 51.6608 95.9589C50.6332 96.9615 49.4948 97.9273 48.2029 98.4754C46.9875 98.9949 45.5078 99.1006 44.3657 98.3861C44.2891 98.4836 44.22 98.5811 44.1471 98.6825C45.0597 99.2709 46.1867 99.413 47.2715 99.1938C48.9661 98.8528 50.4151 97.6677 51.6837 96.4905C51.7144 96.4619 51.7414 96.4337 51.768 96.4095C52.3008 98.8285 52.1015 101.382 52.462 103.833C52.8721 106.642 54.1451 109.48 53.4895 112.353C53.2366 113.445 52.7227 114.537 51.8527 115.215C50.8251 116.018 49.5259 116.067 48.3412 115.661C45.723 114.772 44.197 112.134 42.0311 110.514C40.9462 109.702 39.7231 109.159 38.5233 108.562C38.4734 108.668 38.4275 108.769 38.3813 108.874C39.1097 109.248 39.8459 109.597 40.5321 109.99C41.0572 110.291 41.5748 110.62 42.0503 111.005C42.6179 111.464 43.1351 111.984 43.645 112.507C44.6493 113.542 45.6309 114.642 46.8537 115.397C47.9655 116.083 49.2881 116.518 50.5759 116.254C51.707 116.018 52.6306 115.219 53.2056 114.179C53.7846 113.144 54.0412 111.91 54.0453 110.713C54.053 109.134 53.6426 107.588 53.2862 106.066C53.0947 105.258 52.9105 104.446 52.7992 103.618C52.7035 102.891 52.6498 102.161 52.6077 101.43C52.5271 99.9854 52.4927 98.5282 52.2705 97.0954C52.2169 96.7626 52.1555 96.4337 52.079 96.1049C53.267 94.9566 54.3636 93.6862 55.2836 92.2897Z" fill="white"/>
<path d="M44.248 100.157C37.0427 116.024 27.3953 155.494 25.978 161.297C25.0159 165.235 44.4369 169.225 44.9509 166.487C45.5414 163.339 52.97 117.151 52.2319 100.522C51.8278 91.4136 46.7416 94.6654 44.248 100.157Z" fill="#F1D5C9"/>
<path d="M45.19 164.667C44.9623 167.659 43.3546 173.744 41.981 174.735C40.6074 175.726 33.1559 175.944 29.404 176.154C25.6522 176.363 24.8591 175.297 24.8528 173.926C24.8465 172.554 32.7059 171.856 32.7059 171.856C32.7059 171.856 22.3507 175.632 19.7318 176.3C17.1129 176.969 11.1015 178.936 10.1043 176.662C9.65507 175.638 11.2709 174.486 11.2709 174.486C11.2709 174.486 8.75325 175.419 8.27998 174.095C7.74126 172.589 9.73124 171.633 9.73124 171.633C9.73124 171.633 8.15057 172.063 8.05184 170.817C7.8311 168.032 17.7622 166.104 17.7622 166.104C17.7622 166.104 10.3025 170.477 9.94347 168.214C9.44653 165.082 24.9656 160.753 26.5311 159.289C28.0966 157.824 29.6858 155.683 29.6858 155.683L45.19 164.667Z" fill="#F1D5C9"/>
<path d="M24.9433 174.616C24.8768 174.202 24.9895 173.806 25.2469 173.533C25.492 173.252 25.8011 173.037 26.1302 172.854C26.7902 172.49 27.5145 172.23 28.2429 171.996C29.7016 171.515 31.2035 171.15 32.6921 170.653C31.1325 170.715 29.5899 170.985 28.0869 171.463C27.3411 171.715 26.5935 172.007 25.9202 172.481C25.5841 172.713 25.2683 173.005 25.0391 173.373C24.8121 173.744 24.7581 174.244 24.9433 174.616Z" fill="#263238"/>
<path d="M11.2711 174.486C12.3389 174.146 13.3887 173.763 14.4373 173.378C15.4881 172.999 16.5267 172.589 17.569 172.191L20.6838 170.964C21.722 170.555 22.7603 170.149 23.8104 169.753C22.7052 169.924 21.6259 170.23 20.5562 170.557C19.484 170.879 18.4331 171.267 17.3875 171.668C16.3459 172.079 15.3088 172.504 14.2908 172.979C13.2707 173.448 12.2569 173.933 11.2711 174.486Z" fill="#263238"/>
<path d="M21.1336 167.114C20.1146 167.227 19.1129 167.458 18.1224 167.727C17.1292 167.989 16.156 168.327 15.1954 168.701C14.2382 169.083 13.2916 169.5 12.3806 169.996C11.4625 170.475 10.5762 171.022 9.73206 171.633C10.6816 171.226 11.6037 170.78 12.5481 170.387C13.4887 169.989 14.4282 169.59 15.3792 169.224C16.3247 168.841 17.2819 168.493 18.2385 168.136C19.1972 167.784 20.1619 167.452 21.1336 167.114Z" fill="#263238"/>
<path d="M19.4548 164.542C17.8087 164.739 16.2147 165.25 14.6803 165.89C13.1499 166.543 11.6705 167.359 10.352 168.416C11.8776 167.743 13.3584 167.039 14.8762 166.408C16.3866 165.76 17.9122 165.164 19.4548 164.542Z" fill="#263238"/>
<path d="M52.6049 118.389L35.2948 118.481C35.2948 118.481 39.9935 103.749 44.4656 97.6592C48.9377 91.5695 52.5298 92.374 52.9307 99.5384C53.3311 106.702 52.6049 118.389 52.6049 118.389Z" fill="#77B954"/>
<path d="M52.9316 99.5408C52.9523 99.8634 52.9682 100.203 52.9767 100.545C52.9892 100.697 52.9944 100.852 52.9996 101.006C53.2436 108.185 52.6073 118.389 52.6073 118.389L47.906 118.416L47.4353 118.415L35.2961 118.484C35.2961 118.484 37.2901 112.233 39.9098 106.197C39.9971 105.999 40.0828 105.793 40.1775 105.594C41.5141 102.575 43.0001 99.6547 44.4636 97.6628C48.9398 91.5711 52.5285 92.3772 52.9316 99.5408Z" fill="#77B954"/>
<path d="M38.5768 118.462L42.092 118.442C40.927 118.296 39.7423 118.304 38.5768 118.462ZM52.7992 103.618C52.7034 102.892 52.6498 102.161 52.6077 101.431C52.5271 99.9856 52.4927 98.5284 52.2704 97.0956C52.2168 96.7628 52.1555 96.4339 52.0789 96.1051C52.1481 96.0362 52.2168 95.9712 52.286 95.898C52.2361 95.7559 52.1824 95.622 52.1288 95.4963C52.0752 95.5531 52.0175 95.6059 51.9639 95.6627C51.8567 95.2853 51.7339 94.9157 51.5805 94.5587C51.3583 94.2623 51.1013 94.0309 50.8255 93.8685C51.132 94.4001 51.3775 94.9725 51.5576 95.5734C51.596 95.7034 51.6304 95.8334 51.6611 95.9591C50.6336 96.9617 49.4951 97.9275 48.2032 98.4756C46.8884 99.0397 45.263 99.1169 44.0898 98.1914C44.0206 98.2928 43.9519 98.3903 43.8868 98.496C44.8374 99.2386 46.0794 99.4336 47.2718 99.194C48.9664 98.853 50.4154 97.6679 51.684 96.4907C51.7147 96.4621 51.7417 96.4339 51.7683 96.4097C52.3011 98.8287 52.1018 101.382 52.4623 103.834C52.5966 104.751 52.8228 105.672 53.0451 106.598C53.0488 106.078 53.0565 105.555 53.0565 105.039C52.9526 104.568 52.8646 104.097 52.7992 103.618ZM51.8526 115.215C50.8251 116.019 49.5258 116.067 48.3411 115.662C45.723 114.773 44.197 112.135 42.031 110.515C41.0456 109.78 39.9456 109.261 38.853 108.725C38.8072 108.831 38.7647 108.94 38.7225 109.05C39.3359 109.358 39.953 109.658 40.5321 109.991C41.0571 110.291 41.5748 110.62 42.0503 111.006C42.6178 111.465 43.1351 111.984 43.645 112.508C44.6492 113.543 45.6309 114.643 46.8536 115.398C47.9655 116.084 49.2881 116.518 50.5759 116.254C51.4692 116.067 52.232 115.532 52.7955 114.801C52.8069 114.57 52.8184 114.326 52.8262 114.074C52.5692 114.513 52.2472 114.911 51.8526 115.215Z" fill="white"/>
<path d="M37.5067 114.251C38.6259 113.893 46.608 113.33 52.2722 113.731C52.3584 113.737 52.3554 113.866 52.27 113.871C51.6433 113.911 38.6862 114.641 37.5045 114.441C37.4069 114.425 37.4265 114.277 37.5067 114.251Z" fill="#263238"/>
<path d="M53.702 107.277C53.7028 107.22 53.627 107.216 53.6129 107.266C53.4369 107.885 53.3452 108.526 53.2361 109.161C53.211 109.307 53.1914 109.455 53.1689 109.601C53.12 108.055 53.0476 106.512 52.971 104.979C52.9673 104.905 52.8616 104.907 52.8623 104.981C52.9082 110.3 52.7736 115.156 52.4689 118.239C51.9679 118.282 51.4669 118.326 50.9663 118.369C50.8498 118.379 50.8535 118.556 50.97 118.561C51.5331 118.585 52.3166 118.608 52.8801 118.632C52.9596 118.635 53.279 114.201 53.1999 110.707C53.3057 110.203 53.4162 109.7 53.4946 109.193C53.5918 108.558 53.6961 107.92 53.702 107.277Z" fill="#263238"/>
<path d="M37.6346 118.484C36.8548 118.535 36.075 118.577 35.2956 118.601L35.1436 118.605L35.1913 118.446C35.4927 117.435 35.8051 116.429 36.1423 115.432C36.4806 114.436 36.8282 113.442 37.199 112.459C37.5684 111.474 37.9526 110.496 38.3697 109.532C38.7797 108.565 39.216 107.609 39.7004 106.682L38.61 109.638L37.5459 112.601L36.481 115.564L35.4002 118.522L35.2959 118.367C36.0754 118.39 36.8552 118.432 37.6346 118.484Z" fill="#263238"/>
<path d="M58.7771 101.125C56.1445 102.044 51.174 98.1262 49.0631 94.7746C48.9197 94.544 49.075 84.8044 48.916 82.8715C48.8816 82.475 60.6251 84.7609 60.6251 84.7609C60.6251 84.7609 59.8305 88.9174 60.1271 92.2859C60.1548 92.5673 61.321 100.234 58.7771 101.125Z" fill="#F1D5C9"/>
<path d="M60.6296 84.7577C60.6296 84.7577 60.6296 84.7577 60.6225 84.7671C60.6133 84.8274 60.5675 85.0701 60.5061 85.4593C60.4025 86.1244 60.248 87.2026 60.1567 88.4252C60.0579 89.6491 60.0151 91.0181 60.1289 92.2838C60.1312 92.3766 60.1489 92.4678 60.1581 92.5512L60.1626 92.5931C60.1877 92.7509 60.2106 92.9599 60.238 93.2109C59.903 93.2943 59.5325 93.3479 59.128 93.3804C52.8763 93.8052 50.1095 85.8899 49.2724 82.8315C49.3367 82.8319 49.4014 82.8413 49.4743 82.8492C49.7808 82.8711 50.1864 82.9232 50.6741 82.9909C50.7961 83.0101 50.9181 83.0289 51.0483 83.0469C51.8292 83.1631 52.7588 83.3209 53.7286 83.4822C54.0466 83.5366 54.3646 83.591 54.6914 83.6525C55.3854 83.7797 56.0872 83.9058 56.7402 84.0209C57.0186 84.08 57.2963 84.1309 57.5573 84.1752C57.8432 84.2249 58.1293 84.2832 58.3904 84.3278C58.5213 84.3541 58.6522 84.3807 58.7742 84.3995C58.84 84.4167 58.8973 84.4269 58.9542 84.4371C59.338 84.5087 59.6649 84.5706 59.9267 84.6234C60.1226 84.6587 60.2779 84.6908 60.3922 84.7103C60.4905 84.7323 60.5556 84.7413 60.5893 84.7542C60.6052 84.7522 60.6129 84.7514 60.6218 84.7589C60.6296 84.7577 60.6296 84.7577 60.6296 84.7577Z" fill="#263238"/>
<path d="M46.6662 68.6807C45.5544 73.0373 48.0927 85.4227 51.0795 88.0997C55.41 91.9806 62.308 92.1259 65.3795 86.6669C68.3567 81.3754 64.7787 65.2963 61.4598 62.8846C56.5718 59.3326 48.3086 62.2453 46.6662 68.6807Z" fill="#F1D5C9"/>
<path d="M48.3627 80.8032C50.4522 80.0884 49.5297 74.3334 49.5297 74.3334C49.5297 74.3334 52.0207 72.767 51.9881 67.3831C51.9881 67.3831 54.6795 72.1833 63.3871 69.3582C63.3871 69.3582 63.5309 67.0339 61.9103 64.5714C61.9103 64.5714 63.2872 66.2098 65.0136 69.2251C65.0136 69.2251 65.8174 60.9849 59.034 59.4189C56.3367 58.7964 52.5531 59.7439 47.2598 63.8812C47.2598 63.8812 45.5242 60.4098 44.9378 61.0194C44.351 61.6289 46.2197 64.8251 46.2197 64.8251C46.2197 64.8251 43.5283 64.4724 43.1944 65.1183C42.9071 65.6742 45.4791 65.8915 45.4791 65.8915C45.4791 65.8915 41.799 67.9481 43.2536 72.5896C44.5876 76.8479 47.3293 81.1568 48.3627 80.8032Z" fill="#263238"/>
<path d="M46.1744 65.6932C43.8568 66.0443 42.0835 68.2144 42.1589 70.7082C42.2007 72.0918 42.7653 73.4839 43.3858 74.6807C44.065 75.9907 44.9587 77.0845 45.9204 78.1674C45.9736 78.2269 46.0531 78.1286 45.9988 78.0699C45.118 77.1108 44.4303 75.9288 43.8705 74.7324C43.344 73.6073 42.8311 72.3478 42.6725 71.0942C42.3582 68.6071 43.9215 66.3826 46.2006 65.8302C46.2739 65.8126 46.2483 65.6822 46.1744 65.6932Z" fill="#263238"/>
<path d="M53.7293 59.0772C52.2803 59.6977 50.9011 60.6048 49.6569 61.6016C48.4656 62.556 47.3231 63.6205 46.4945 64.9493C46.4523 65.0166 46.5322 65.0945 46.5869 65.0323C48.527 62.8289 51.0542 61.1619 53.5988 59.8445C55.9793 58.6125 58.9476 58.0523 61.223 59.85C61.2604 59.8794 61.3055 59.8246 61.27 59.7913C59.1816 57.8499 56.1601 58.0366 53.7293 59.0772Z" fill="#263238"/>
<path d="M49.64 78.824C49.64 78.824 46.9187 74.8346 45.2027 75.867C43.4867 76.8994 45.5717 82.7111 47.6135 83.4785C49.6552 84.2458 50.3648 82.2613 50.3648 82.2613L49.64 78.824Z" fill="#F1D5C9"/>
<path d="M45.8392 77.5171C45.8067 77.5148 45.8008 77.5629 45.8296 77.5747C47.262 78.1623 48.0307 79.5466 48.5757 80.9862C48.1446 80.4357 47.5637 80.1394 46.8649 80.6831C46.8283 80.7117 46.8649 80.7728 46.9048 80.763C47.4864 80.6217 47.9087 80.7219 48.3095 81.2097C48.5931 81.5554 48.7902 81.9943 48.9958 82.3952C49.0642 82.5287 49.293 82.4531 49.2424 82.2988C49.2387 82.2879 49.2342 82.2757 49.2302 82.2644C49.2398 80.3445 47.7915 77.68 45.8392 77.5171Z" fill="#263238"/>
<path d="M58.8623 75.7922C58.8509 75.762 58.8076 75.8431 58.8146 75.8767C58.9781 76.6997 59.0343 77.6718 58.3728 78.0793C58.3521 78.0922 58.3617 78.1333 58.3872 78.1243C59.2291 77.8342 59.1418 76.5446 58.8623 75.7922Z" fill="#263238"/>
<path d="M58.0192 75.0588C56.7447 75.1938 57.0934 77.883 58.2743 77.7581C59.4365 77.6344 59.0874 74.9456 58.0192 75.0588Z" fill="#263238"/>
<path d="M63.3403 74.8205C63.3422 74.7876 63.4069 74.8506 63.4102 74.8851C63.4934 75.7217 63.7216 76.6652 64.4692 76.8383C64.4925 76.8437 64.4958 76.886 64.4688 76.8856C63.5836 76.8825 63.2923 75.627 63.3403 74.8205Z" fill="#263238"/>
<path d="M63.9298 73.8483C65.1818 73.5625 65.6292 76.2353 64.4693 76.4999C63.3279 76.7607 62.8801 74.0875 63.9298 73.8483Z" fill="#263238"/>
<path d="M56.8279 74.2938C57.1622 74.1513 57.4476 73.9607 57.7641 73.7841C58.1213 73.5844 58.4253 73.4642 58.6253 73.0716C58.7325 72.8605 58.6327 72.525 58.4497 72.3955C58.0222 72.0936 57.5275 72.2232 57.0882 72.4452C56.6116 72.6859 56.3025 73.0007 56.0774 73.5053C55.8585 73.9943 56.3876 74.4817 56.8279 74.2938Z" fill="#263238"/>
<path d="M64.5431 72.3753C64.183 72.3659 63.8528 72.2935 63.4979 72.2449C63.097 72.1901 62.7728 72.1905 62.4559 71.8965C62.2855 71.7391 62.2681 71.3879 62.3967 71.1984C62.697 70.7572 63.2035 70.6954 63.6883 70.7404C64.2144 70.7893 64.6078 70.9694 64.9861 71.3582C65.3521 71.7352 65.0179 72.3882 64.5431 72.3753Z" fill="#263238"/>
<path d="M59.0082 83.2011C59.2219 83.3686 59.4449 83.6098 59.7336 83.5937C60.0106 83.5781 60.3149 83.4007 60.5523 83.261C60.5756 83.2473 60.6048 83.2711 60.5918 83.2985C60.4291 83.6481 60.0254 83.9108 59.6519 83.896C59.2874 83.8819 59.0688 83.5816 58.9376 83.2492C58.9191 83.203 58.9771 83.1768 59.0082 83.2011Z" fill="#263238"/>
<path d="M59.512 80.5868C60.0463 81.2457 60.7448 81.5468 61.4635 81.5887C61.7849 81.6098 62.115 81.573 62.433 81.4951C62.4963 81.4845 62.5587 81.4677 62.6142 81.4462C62.6708 81.4305 62.7214 81.4156 62.7832 81.3929C62.873 81.3655 62.9133 81.2778 62.9167 81.1835L62.9155 81.1772C62.9111 81.1467 62.9074 81.1224 62.8971 81.093C62.8971 81.093 62.8971 81.093 62.8963 81.0868L62.8856 81.0139C62.8187 80.3703 62.6338 79.4033 62.6338 79.4033C62.8701 79.4887 64.0684 79.8622 64.007 79.5294C63.4909 76.7783 62.9167 73.7188 61.854 71.0966C61.8233 71.0081 61.6939 71.0484 61.7131 71.1384C62.1106 73.8034 62.9477 76.3763 63.387 79.0467C63.008 78.9543 62.3857 78.7714 62.0699 78.8243C61.9875 78.8631 62.4596 80.6863 62.4678 80.9779C62.4678 80.9779 62.4696 80.9901 62.4667 81.0092C61.4669 81.295 60.6575 81.0809 59.5756 80.5011C59.5113 80.4623 59.4562 80.5273 59.512 80.5868Z" fill="#263238"/>
<path d="M62.0339 81.2223C62.0339 81.2223 61.5962 82.0676 60.897 82.4516C60.6393 82.5937 60.3527 82.6771 60.0358 82.6353C59.3847 82.5519 59.29 81.9439 59.3377 81.4044C59.3755 80.9612 59.5156 80.5638 59.5156 80.5638C59.5156 80.5638 60.5505 81.3398 62.0339 81.2223Z" fill="#263238"/>
</svg>
