<svg width="25" height="37" viewBox="0 0 25 37" fill="none" xmlns="http://www.w3.org/2000/svg">
<path d="M10.1085 2.20703C10.5494 2.2304 10.8701 2.41994 11.2493 2.63675C11.3122 2.67245 11.3752 2.70815 11.4401 2.7445C12.0481 3.08854 12.6265 3.46114 13.1933 3.87008C13.318 3.96161 13.318 3.96161 13.4504 4.02458C13.4504 4.06742 13.4504 4.11026 13.4504 4.1544C13.4928 4.16673 13.5352 4.17842 13.5789 4.19075C13.8572 4.32577 14.059 4.52959 14.2859 4.73861C14.3688 4.81196 14.4517 4.88466 14.5352 4.95801C14.5777 4.99566 14.6201 5.03331 14.6644 5.07226C14.7576 5.15535 14.8514 5.23779 14.9459 5.31958C15.9067 6.16798 16.7049 7.14621 17.3707 8.24387C17.4118 8.30684 17.4523 8.3698 17.4948 8.43472C19.1394 11.0124 19.5475 14.2749 18.9163 17.2453C18.8591 17.4926 18.7917 17.7366 18.7203 17.9807C18.7011 18.0482 18.6824 18.1157 18.6625 18.1858C18.6002 18.4 18.5327 18.6123 18.4633 18.8246C18.4401 18.8966 18.4401 18.8966 18.4163 18.9693C18.1618 19.7502 17.8675 20.4935 17.4993 21.2263C17.4735 21.277 17.4485 21.3282 17.4221 21.3802C16.9041 22.4077 16.3219 23.3555 15.6355 24.2772C15.5629 24.3752 15.5629 24.3752 15.489 24.4752C15.2846 24.7511 15.0802 25.0263 14.872 25.2989C14.4247 25.889 14.0147 26.4914 13.6432 27.1333C13.6175 27.1775 13.5918 27.221 13.5654 27.2664C13.1593 27.9727 12.8939 28.6841 12.6792 29.4702C12.6477 29.5812 12.6477 29.5812 12.6149 29.6941C12.399 30.4945 12.4054 31.3085 12.4221 32.1316C12.4241 32.2348 12.4241 32.2348 12.4253 32.3393C12.4523 32.9352 12.5963 33.5051 12.7332 34.0829C12.7891 34.3185 12.8373 34.5528 12.872 34.793C11.8919 34.5963 10.9421 34.19 10.0442 33.7544C9.9427 33.7064 9.8418 33.659 9.74026 33.6109C9.39064 33.4454 9.04231 33.2766 8.69462 33.1053C8.64642 33.0813 8.59822 33.0579 8.5481 33.0332C6.19334 31.8603 3.46905 29.9161 2.33216 27.4579C2.28781 27.367 2.28781 27.367 2.24218 27.2742C1.27496 25.2554 1.27689 23.0283 1.96262 20.9199C2.00439 20.7908 2.04488 20.6609 2.08473 20.5311C2.40414 19.5477 2.9382 18.6344 3.51725 17.786C3.5481 17.7405 3.5783 17.6951 3.60979 17.6484C3.73961 17.4582 3.87007 17.2725 4.01339 17.0921C4.13357 16.946 4.13357 16.946 4.22226 16.7876C4.69398 15.9996 5.37457 15.3531 6.02046 14.713C6.40478 14.33 6.74861 13.9386 7.06995 13.5018C7.21133 13.3135 7.36172 13.1428 7.52175 12.9701C7.76082 12.7079 7.94848 12.434 8.12907 12.1282C8.22419 11.977 8.32316 11.8374 8.43049 11.6953C9.31095 10.5223 10.0462 9.12473 10.4941 7.72458C10.5185 7.65058 10.5423 7.57658 10.5674 7.49998C11.077 5.82394 11.1098 4.20633 10.3135 2.62117C10.237 2.46668 10.237 2.46668 10.237 2.33686C10.1946 2.33686 10.1522 2.33686 10.1085 2.33686C10.1085 2.29401 10.1085 2.25117 10.1085 2.20703Z" fill="#5CC623"/>
<path d="M20.5198 14.8C21.2904 15.551 21.8521 16.8635 22.255 17.8509C22.3 17.9586 22.3 17.9586 22.3456 18.069C23.4318 20.7115 23.9382 23.5969 22.962 26.3544C22.935 26.4316 22.9086 26.5082 22.881 26.5881C22.7325 26.9996 22.5642 27.3573 22.3193 27.7175C22.2653 27.8052 22.2653 27.8052 22.2094 27.8947C21.8881 28.4056 21.514 28.8431 21.0982 29.2754C21.0609 29.3144 21.0243 29.354 20.9858 29.3942C20.2846 30.1323 19.5564 30.736 18.7081 31.2981C18.1773 31.6499 17.6663 32.0303 17.1528 32.4061C16.8977 32.5931 16.6419 32.7781 16.3823 32.9592C15.8399 33.3402 15.3167 33.7472 14.8039 34.1679C14.6715 34.2737 14.6715 34.2737 14.4787 34.4035C14.3501 34.3386 14.3501 34.3386 14.2859 34.1464C13.8225 32.3419 13.8681 30.6652 14.6715 28.9509C14.701 28.8866 14.701 28.8866 14.7313 28.821C15.3007 27.6007 16.0751 26.5069 16.9298 25.4735C17.7499 24.4817 18.3649 23.3632 18.9131 22.2C18.9485 22.1253 18.9838 22.0507 19.0205 21.9741C19.4016 21.1471 19.6676 20.2766 19.9414 19.4088C19.9568 19.3614 19.9723 19.314 19.9877 19.2653C20.3701 18.0839 20.5333 16.8136 20.5237 15.575C20.5237 15.5004 20.523 15.4251 20.523 15.3485C20.5224 15.1654 20.5211 14.983 20.5198 14.8Z" fill="#5CC623"/>
</svg>
