<svg width="15" height="6" viewBox="0 0 15 6" fill="none" xmlns="http://www.w3.org/2000/svg">
<path fill-rule="evenodd" clip-rule="evenodd" d="M4.32369 5.57207H3.11208L2.20352 1.52815C2.1604 1.34213 2.06883 1.17768 1.93414 1.10017C1.59801 0.905389 1.22761 0.750373 0.823547 0.67219V0.5165H2.77536C3.04474 0.5165 3.24677 0.750373 3.28044 1.02199L3.75186 3.939L4.96288 0.5165H6.14082L4.32369 5.57207ZM6.81427 5.57207H5.67L6.61223 0.5165H7.7565L6.81427 5.57207ZM9.2369 1.91704C9.27057 1.64475 9.47261 1.48906 9.70831 1.48906C10.0787 1.44997 10.4822 1.52815 10.8189 1.72226L11.0209 0.633775C10.6842 0.478085 10.3138 0.399902 9.97769 0.399902C8.8671 0.399902 8.05896 1.10017 8.05896 2.07206C8.05896 2.81142 8.63139 3.19964 9.03546 3.43351C9.47261 3.66671 9.64097 3.8224 9.6073 4.0556C9.6073 4.4054 9.27057 4.56109 8.93444 4.56109C8.53037 4.56109 8.12631 4.44449 7.7565 4.24971L7.55447 5.33887C7.95853 5.53298 8.39568 5.61116 8.79975 5.61116C10.045 5.64958 10.8189 4.94998 10.8189 3.89991C10.8189 2.57755 9.2369 2.50004 9.2369 1.91704ZM14.8235 5.57207L13.915 0.5165H12.9391C12.737 0.5165 12.535 0.67219 12.4677 0.905389L10.7852 5.57207H11.9632L12.1983 4.83338H13.6456L13.7803 5.57207H14.8235ZM13.1074 1.87796L13.4436 3.78332H12.5013L13.1074 1.87796Z" fill="#172B85"/>
</svg>
