<svg width="20" height="20" viewBox="0 0 20 20" fill="none" xmlns="http://www.w3.org/2000/svg">
<g clip-path="url(#clip0_881_5896)">
<path d="M12.5 15.4167C10.4083 15.4167 8.59999 14.2333 7.69999 12.5H11.9833C12.3 12.5 12.5917 12.325 12.725 12.0417C13 11.4917 12.6 10.8333 11.9833 10.8333H7.14999C7.10832 10.5583 7.08332 10.2833 7.08332 10C7.08332 9.71667 7.10832 9.44167 7.14999 9.16667H11.9833C12.3 9.16667 12.5917 8.99167 12.725 8.70833C13.0083 8.15 12.6083 7.5 11.9833 7.5H7.69999C8.59999 5.76667 10.4167 4.58333 12.5 4.58333C13.5417 4.58333 14.5167 4.88333 15.35 5.39167C15.7667 5.65 16.3083 5.60833 16.6583 5.25833C17.1417 4.775 17.0333 3.98333 16.45 3.625C15.3 2.91667 13.9417 2.5 12.5 2.5C9.23332 2.5 6.46666 4.59167 5.43332 7.5H3.01666C2.69999 7.5 2.40832 7.675 2.26666 7.95833C1.99166 8.51667 2.39166 9.16667 3.01666 9.16667H5.04999C5.01666 9.44167 4.99999 9.71667 4.99999 10C4.99999 10.2833 5.01666 10.5583 5.04999 10.8333H3.01666C2.69999 10.8333 2.40832 11.0083 2.27499 11.2917C1.99166 11.85 2.39166 12.5 3.01666 12.5H5.43332C6.46666 15.4083 9.23332 17.5 12.5 17.5C13.95 17.5 15.3 17.0917 16.45 16.375C17.025 16.0167 17.1333 15.2167 16.65 14.7333C16.3 14.3833 15.7583 14.3417 15.3417 14.6083C14.5167 15.125 13.55 15.4167 12.5 15.4167Z" fill="#9798A2"/>
</g>
<defs>
<clipPath id="clip0_881_5896">
<rect width="20" height="20" fill="white"/>
</clipPath>
</defs>
</svg>
