<svg width="14" height="10" viewBox="0 0 14 10" fill="none" xmlns="http://www.w3.org/2000/svg">
<path fill-rule="evenodd" clip-rule="evenodd" d="M7.10529 8.21958C6.40879 8.88494 5.50531 9.2866 4.51806 9.2866C2.31519 9.2866 0.529419 7.28681 0.529419 4.81994C0.529419 2.35307 2.31519 0.353271 4.51806 0.353271C5.50531 0.353271 6.40879 0.754937 7.10529 1.4203C7.80179 0.754937 8.70526 0.353271 9.69251 0.353271C11.8954 0.353271 13.6812 2.35307 13.6812 4.81994C13.6812 7.28681 11.8954 9.2866 9.69251 9.2866C8.70526 9.2866 7.80179 8.88494 7.10529 8.21958Z" fill="#ED0006"/>
<path fill-rule="evenodd" clip-rule="evenodd" d="M7.10529 8.21958C7.9629 7.40031 8.5067 6.18124 8.5067 4.81994C8.5067 3.45863 7.9629 2.23957 7.10529 1.4203C7.80179 0.754936 8.70526 0.353271 9.69251 0.353271C11.8954 0.353271 13.6812 2.35307 13.6812 4.81994C13.6812 7.28681 11.8954 9.2866 9.69251 9.2866C8.70526 9.2866 7.80179 8.88494 7.10529 8.21958Z" fill="#F9A000"/>
<path fill-rule="evenodd" clip-rule="evenodd" d="M7.10532 8.21966C7.96292 7.40039 8.50672 6.18133 8.50672 4.82003C8.50672 3.45874 7.96292 2.23968 7.10532 1.42041C6.24772 2.23968 5.70392 3.45874 5.70392 4.82003C5.70392 6.18133 6.24772 7.40039 7.10532 8.21966Z" fill="#FF5E00"/>
</svg>
