<svg width="167" height="190" viewBox="0 0 167 190" fill="none" xmlns="http://www.w3.org/2000/svg">
<path d="M11.1149 144.209L29.9719 144.113L48.8289 144.078L86.5425 144.012L124.256 144.078L143.113 144.113L161.97 144.209L143.113 144.306L124.256 144.341L86.5425 144.407L48.8289 144.34L29.9719 144.305L11.1149 144.209Z" fill="#263238"/>
<path d="M33.4106 71.7824C33.4106 71.7824 37.832 116.656 37.8733 118.013C38.1051 125.452 38.2046 146.808 38.2046 146.808L52.9475 146.765C52.9475 146.765 53.3309 122.133 52.7074 115.725C51.914 107.55 47.083 71.8361 47.083 71.8361L33.4106 71.7824Z" fill="#F1D5C9"/>
<path d="M63.2056 164.321C62.4147 164.612 39.8216 164.604 38.9595 164.006C38.6339 163.783 38.4424 160.162 38.3249 155.785C38.2983 154.839 38.2789 153.866 38.2627 152.871C38.2426 151.697 38.2261 150.507 38.2164 149.352C38.1765 144.165 38.2314 139.598 38.2314 139.598L52.9398 139.556L52.956 149.31L52.9607 152.829L52.8917 155.744C52.8917 155.744 61.54 160.001 62.4197 160.77C63.2958 161.535 63.9929 164.033 63.2056 164.321Z" fill="#F1D5C9"/>
<path d="M63.2057 164.321C62.4148 164.612 39.8216 164.604 38.9596 164.006C38.634 163.783 38.4425 160.162 38.325 155.785C38.2984 154.839 38.279 153.866 38.2628 152.871C38.2427 151.697 38.2261 150.507 38.2164 149.352L52.9557 149.31L52.9604 152.828L52.8914 155.743C52.8914 155.743 61.5397 160.001 62.4194 160.77C63.2959 161.535 63.993 164.033 63.2057 164.321Z" fill="#EBEBEB"/>
<path d="M63.2739 164.358C62.7593 164.545 53.136 164.611 46.1288 164.471C44.5074 164.438 43.0244 164.393 41.8282 164.339C40.1791 164.26 39.0727 164.164 38.8927 164.039C38.4945 163.759 38.2919 158.448 38.1887 152.843L52.9697 152.801L52.9007 155.731C52.9007 155.731 61.5976 160.011 62.4844 160.784C63.3637 161.557 64.0648 164.063 63.2739 164.358Z" fill="#77B954"/>
<path d="M62.948 163.359C59.1396 163.255 43.7701 163.23 39.9984 163.445C39.9678 163.447 39.9678 163.47 39.9984 163.471C43.7711 163.665 59.1403 163.553 62.9483 163.427C63.0285 163.425 63.0285 163.361 62.948 163.359Z" fill="#263238"/>
<path d="M53.439 154.802C51.9405 154.494 50.1075 154.746 48.9619 155.919C48.9174 155.965 48.977 156.034 49.0255 156.017C50.5042 155.505 51.8852 155.176 53.4329 155.01C53.5418 154.998 53.5461 154.824 53.439 154.802Z" fill="#263238"/>
<path d="M54.5204 155.519C53.0219 155.211 51.1889 155.463 50.0433 156.637C49.9987 156.682 50.0584 156.751 50.1069 156.734C51.5856 156.222 52.9665 155.894 54.5142 155.727C54.6235 155.716 54.6278 155.541 54.5204 155.519Z" fill="#263238"/>
<path d="M55.6019 156.236C54.1034 155.928 52.2704 156.18 51.1248 157.353C51.0803 157.399 51.1399 157.468 51.1884 157.451C52.6671 156.939 54.0477 156.61 55.5958 156.444C55.705 156.433 55.7093 156.258 55.6019 156.236Z" fill="#263238"/>
<path d="M56.6835 156.953C55.185 156.645 53.352 156.898 52.2064 158.071C52.1619 158.117 52.2215 158.185 52.27 158.168C53.7487 157.656 55.1297 157.328 56.6774 157.161C56.7866 157.15 56.7906 156.975 56.6835 156.953Z" fill="#263238"/>
<path d="M37.7167 166.794C36.9013 166.988 14.4462 164.251 13.6488 163.552C13.3476 163.291 13.5191 159.669 13.8399 155.304C13.9082 154.36 17.446 139.197 17.446 139.197L32.5895 140.931L28.3223 157.022C28.3223 157.022 36.4927 162.299 37.2901 163.17C38.085 164.037 38.5281 166.604 37.7167 166.794Z" fill="#F1D5C9"/>
<path d="M13.6474 163.554C14.4448 164.249 36.9021 166.987 37.7182 166.796C38.5292 166.605 38.0861 164.039 37.2884 163.172C36.4906 162.3 28.3216 157.022 28.3216 157.022L29.9114 151.023L15.258 148.707C14.6198 151.533 13.8666 154.948 13.8415 155.302C13.5188 159.672 13.3502 163.292 13.6474 163.554Z" fill="#EBEBEB"/>
<path d="M37.7809 166.84C37.2505 166.964 27.679 165.866 20.7285 164.881C19.1204 164.652 17.6507 164.428 16.4674 164.23C14.8363 163.952 13.7461 163.724 13.5797 163.578C13.2822 163.314 13.4169 159.595 13.8402 155.304C13.9405 154.29 14.2103 153.188 14.4385 152.363L28.9953 154.482L28.3333 157.012C28.3333 157.012 36.5494 162.317 37.3536 163.192C38.1503 164.067 38.5962 166.642 37.7809 166.84Z" fill="#77B954"/>
<path d="M37.5564 165.807C33.7815 165.243 18.5075 163.362 14.7373 163.121C14.7067 163.119 14.7042 163.141 14.7348 163.147C18.4651 163.795 33.7528 165.54 37.55 165.875C37.6297 165.883 37.6362 165.819 37.5564 165.807Z" fill="#263238"/>
<path d="M28.9606 156.153C27.5016 155.666 25.6546 155.695 24.399 156.723C24.3505 156.763 24.4026 156.839 24.4526 156.828C25.9737 156.498 27.3787 156.338 28.934 156.359C29.0432 156.361 29.0648 156.188 28.9606 156.153Z" fill="#263238"/>
<path d="M29.9639 156.997C28.5053 156.509 26.6579 156.539 25.4023 157.567C25.3538 157.606 25.4059 157.682 25.4559 157.671C26.9766 157.341 28.382 157.181 29.9373 157.203C30.0469 157.204 30.0684 157.032 29.9639 156.997Z" fill="#263238"/>
<path d="M30.9671 157.84C29.5085 157.353 27.6611 157.382 26.4052 158.41C26.3567 158.45 26.4088 158.525 26.4587 158.514C27.9795 158.184 29.3849 158.025 30.9401 158.046C31.0497 158.048 31.0717 157.875 30.9671 157.84Z" fill="#263238"/>
<path d="M31.9706 158.683C30.5121 158.196 28.665 158.226 27.4091 159.253C27.3606 159.293 27.4127 159.369 27.4627 159.358C28.9834 159.027 30.3888 158.868 31.944 158.89C32.0536 158.891 32.0752 158.718 31.9706 158.683Z" fill="#263238"/>
<path d="M46.5899 71.8376C46.5899 71.8376 46.4512 77.3639 44.1611 80.5434C43.6134 81.3038 41.006 84.959 40.135 85.6613C40.135 85.6613 37.9404 113.444 37.5567 118.449C37.0306 125.308 30.7223 147.972 30.7223 147.972L15.9521 145.659C15.9521 145.659 21.0386 124.616 22.4559 117.992C22.7822 116.466 25.7058 86.3395 25.478 85.7107C23.1228 79.2035 27.4802 71.7543 27.4802 71.7543L46.5899 71.8376Z" fill="#F1D5C9"/>
<path d="M47.083 71.8364C47.083 71.8364 52.9749 114.041 53.1822 116.125C53.1822 116.125 48.4076 118.613 41.1768 119.913C33.9461 121.213 20.1318 115.857 20.1318 115.857C20.1318 115.857 24.887 87.2911 24.8866 87.1244C24.8863 86.9577 23.243 79.2604 27.48 71.7546L47.083 71.8364Z" fill="#263238"/>
<path d="M43.8533 92.3313C43.1012 94.9131 42.3567 97.5028 41.6588 100.102C40.9689 102.672 40.266 105.237 39.7399 107.855C39.4417 109.34 39.2084 110.836 38.9702 112.333C38.9598 112.397 39.0435 112.421 39.06 112.357C39.3978 111.054 39.7665 109.759 40.087 108.449C40.4072 107.141 40.7091 105.827 41.0077 104.512C41.5977 101.914 42.1529 99.3085 42.7728 96.7187C43.1235 95.2536 43.5145 93.7984 43.8997 92.3439C43.9083 92.3111 43.8627 92.2993 43.8533 92.3313Z" fill="#37474F"/>
<path d="M44.2831 88.6466C43.7739 89.5978 43.2959 90.5711 42.8568 91.5642C42.6434 92.0469 42.4393 92.5348 42.2398 93.0246C42.1338 93.2849 42.035 93.5472 41.9362 93.8107C41.8478 94.0477 41.7371 94.2827 41.6965 94.5363C41.6922 94.5636 41.7256 94.5916 41.7439 94.5652C41.8765 94.3756 41.9577 94.15 42.0533 93.9359C42.1672 93.6815 42.2844 93.4291 42.3969 93.1739C42.6157 92.6774 42.8403 92.1836 43.0649 91.6902C43.5148 90.7023 43.9686 89.7171 44.4279 88.7343C44.4767 88.6304 44.337 88.5455 44.2831 88.6466Z" fill="#37474F"/>
<path d="M45.9444 32.5958C45.9444 32.5958 41.3221 30.7522 38.8595 34.2556C36.0904 38.1951 37.3729 41.3288 36.8921 46.1042C36.4117 50.8796 32.9738 52.6153 33.6339 55.9327C34.2941 59.25 38.2127 58.7523 38.2127 58.7523C38.2127 58.7523 38.9368 62.5579 42.2701 62.9127C45.6034 63.2674 47.3685 60.4339 47.3685 60.4339C47.3685 60.4339 49.8512 62.0432 51.7877 60.7136C53.3757 59.6233 52.8754 56.558 52.8754 56.558C52.8754 56.558 55.2417 57.1975 56.0567 54.8938C56.9044 52.4988 53.3174 50.8634 52.2631 47.7463C51.3098 44.9275 50.8692 37.3992 49.4466 34.9414C48.0236 32.484 45.9444 32.5958 45.9444 32.5958Z" fill="#263238"/>
<path d="M38.153 58.5429C36.7117 58.8625 34.9667 58.7859 33.8915 57.5301C32.8954 56.3664 33.0506 54.5797 33.5922 53.2181C34.1837 51.7308 35.1661 50.4846 35.8374 49.0447C36.4989 47.6254 36.9122 46.0706 37.0635 44.4854C37.246 42.57 36.8425 40.5838 37.324 38.7071C37.3304 38.6822 37.2952 38.6727 37.2884 38.6972C36.8119 40.4072 37.1048 42.2137 36.9636 43.9667C36.8223 45.7206 36.3422 47.4409 35.5837 48.9906C34.8599 50.4695 33.7981 51.7431 33.2411 53.3208C32.756 54.6951 32.6963 56.3921 33.6245 57.5649C34.105 58.172 34.7924 58.5615 35.5007 58.7353C36.3868 58.9526 37.2934 58.8147 38.1684 58.6022C38.2047 58.5935 38.1882 58.5354 38.153 58.5429Z" fill="#263238"/>
<path d="M56.263 52.0015C55.9367 51.4311 55.4804 50.9772 55.0312 50.5269C54.554 50.0481 54.1005 49.5512 53.7127 48.9808C52.123 46.6447 51.5283 43.7369 50.9537 40.9469C50.5961 39.2096 50.2174 37.4707 49.6162 35.8125C49.6029 35.7757 49.5487 35.7935 49.5623 35.8302C50.6084 38.6451 50.8013 41.718 51.5599 44.6233C51.8973 45.9158 52.3332 47.2024 52.9775 48.3507C53.2902 48.9077 53.6491 49.4359 54.0559 49.9142C54.4782 50.4108 54.9679 50.8283 55.4128 51.2988C55.9163 51.8313 56.3482 52.4352 56.5275 53.1909C56.7172 53.9908 56.585 54.8421 56.2019 55.5476C56.1955 55.5594 56.2124 55.5697 56.2192 55.5579C56.8279 54.5055 56.8718 53.0653 56.263 52.0015Z" fill="#263238"/>
<path d="M52.7862 55.7411C52.77 55.7055 52.7219 55.7383 52.7384 55.7735C53.3471 57.0711 53.7597 58.7267 52.8703 59.9919C52.1113 61.0715 50.8583 61.5096 49.6566 61.2536C48.9193 61.0968 48.2282 60.7183 47.6486 60.1973C47.603 60.1562 47.539 60.2285 47.5847 60.2712C48.6145 61.2287 50.0437 61.8185 51.3862 61.3879C52.5709 61.0079 53.5426 59.8631 53.5911 58.4734C53.626 57.4851 53.1743 56.5971 52.7862 55.7411Z" fill="#263238"/>
<path d="M43.3023 52.4304C45.5055 60.1878 49.5251 68.6976 51.9518 69.7061C54.5427 70.7829 64.5835 69.3174 68.0673 68.3437C69.2079 68.0249 65.7629 59.2397 64.6144 58.674C63.4663 58.1084 55.5553 60.4583 54.8082 60.2521C54.4097 60.1423 49.5934 53.8141 46.1634 50.0749C43.0957 46.7299 42.5829 49.8971 43.3023 52.4304Z" fill="#F1D5C9"/>
<path d="M67.2084 68.5549C68.391 68.3187 73.7226 66.7122 75.1154 65.9C76.5083 65.0878 80.3619 62.4321 79.9044 61.1961C79.447 59.9605 78.2622 60.6387 78.2622 60.6387C78.2622 60.6387 79.728 59.2341 79.1645 58.0364C78.6011 56.8387 76.7893 57.9605 76.7893 57.9605C76.7893 57.9605 78.199 56.397 77.559 55.2467C76.9194 54.0964 75.2696 55.56 75.2696 55.56C75.2696 55.56 76.6189 54.1968 75.7292 53.4929C74.6587 52.6459 72.4293 55.4683 70.8306 56.2382C70.4677 56.4132 63.2423 59.2048 63.2423 59.2048L67.2084 68.5549Z" fill="#F1D5C9"/>
<path d="M75.4129 55.4383C73.7689 57.5098 72.7235 58.1031 70.3648 58.8777C70.3188 58.8928 70.3289 58.9718 70.3781 58.9607C72.7505 58.4334 74.1595 57.8965 75.5081 55.5205C75.5746 55.4043 75.4912 55.3396 75.4129 55.4383Z" fill="#263238"/>
<path d="M76.917 57.7945C75.0384 59.7819 73.91 60.4368 71.4938 61.4477C71.4596 61.4619 71.478 61.5271 71.5135 61.516C73.9592 60.7421 75.3535 60.1713 76.9932 57.9146C77.0676 57.8123 77.0029 57.7033 76.917 57.7945Z" fill="#263238"/>
<path d="M78.1374 60.6867C76.1923 62.4667 74.9835 63.2433 72.523 63.8935C72.4652 63.9089 72.4799 64.0033 72.5396 63.9942C75.1071 63.5992 76.6224 62.6425 78.1806 60.7574C78.2869 60.6287 78.26 60.5746 78.1374 60.6867Z" fill="#263238"/>
<path d="M61.7323 59.0943C61.7323 59.0943 63.7551 56.4638 64.8759 55.5237C65.9963 54.5839 71.3455 52.7704 71.7674 54.0179C72.3121 55.6288 69.4119 57.3443 67.8915 57.9807C67.8915 57.9807 69.1549 61.7061 67.3158 63.4324C65.4763 65.159 61.7323 59.0943 61.7323 59.0943Z" fill="#F1D5C9"/>
<path d="M71.7851 54.5147C71.3179 56.3776 69.2729 57.0713 67.8402 57.8096C67.7313 57.8657 67.7342 57.9818 67.7895 58.0652C68.224 59.6654 68.4133 62.062 67.4147 63.441C67.3856 63.4813 67.4338 63.5326 67.4679 63.4963C68.722 62.1773 68.7109 59.806 68.1327 58.0865C69.6128 57.3545 71.636 56.5601 71.802 54.5187C71.8027 54.5072 71.788 54.5029 71.7851 54.5147Z" fill="#263238"/>
<path d="M52.0815 55.7394L46.0355 61.5015C46.0355 61.5015 43.1075 55.1445 42.7633 51.2326C42.419 47.3208 44.1288 47.6929 46.1745 49.5028C48.2203 51.3128 52.0815 55.7394 52.0815 55.7394Z" fill="#77B954"/>
<path d="M46.3749 53.7959C46.3749 53.9855 46.2351 54.1392 46.0627 54.1392C45.8902 54.1392 45.7504 53.9855 45.7504 53.7959C45.7504 53.6063 45.8902 53.4526 46.0627 53.4526C46.2351 53.4522 46.3749 53.6059 46.3749 53.7959ZM50.0726 53.4933C49.972 53.5486 49.9001 53.6632 49.9001 53.7975C49.9001 53.9871 50.0403 54.1372 50.2127 54.1372C50.3313 54.1372 50.4355 54.0661 50.4894 53.9555C50.3565 53.8054 50.2163 53.6513 50.0726 53.4933ZM43.9874 50.0697C43.815 50.0697 43.6752 50.2234 43.6752 50.413C43.6752 50.6026 43.815 50.7562 43.9874 50.7562C44.1599 50.7562 44.2997 50.6026 44.2997 50.413C44.2997 50.2234 44.1599 50.0697 43.9874 50.0697ZM46.0627 60.3094C45.8902 60.3094 45.7504 60.463 45.7504 60.6526C45.7504 60.8423 45.8902 60.9959 46.0627 60.9959C46.2351 60.9959 46.3749 60.8423 46.3749 60.6526C46.3749 60.463 46.2351 60.3094 46.0627 60.3094ZM48.1379 56.9272C47.9654 56.9272 47.8256 57.0809 47.8256 57.2705C47.8256 57.4601 47.9654 57.6138 48.1379 57.6138C48.3104 57.6138 48.4502 57.4601 48.4502 57.2705C48.4502 57.0809 48.3104 56.9272 48.1379 56.9272Z" fill="white"/>
<path d="M50.744 55.0696C50.7832 55.0308 50.8195 55.0486 50.7821 55.0881C48.8937 57.0806 46.5975 59.2283 45.6898 59.901C45.6758 59.9113 45.6621 59.8892 45.6726 59.8765C46.415 58.9743 50.3157 55.4946 50.744 55.0696Z" fill="#263238"/>
<path opacity="0.1" d="M50.0352 57.6888L46.0357 61.5023C46.0357 61.5023 43.1081 55.1437 42.7628 51.2315C42.6647 50.1195 42.7322 49.3555 42.9252 48.8669L50.0352 57.6888Z" fill="black"/>
<path d="M47.2867 65.7472L47.083 71.8361L27.4803 71.7543C27.4803 71.7543 31.8985 53.7482 37.7443 48.9696C40.6683 46.5794 43.4788 47.3888 44.9453 49.7901C45.3165 50.398 49.28 57.9622 49.3336 61.1236C49.3749 63.9124 47.2867 65.7472 47.2867 65.7472Z" fill="#77B954"/>
<path d="M38.0738 53.7961C38.0738 53.9857 37.934 54.1394 37.7616 54.1394C37.5891 54.1394 37.4493 53.9857 37.4493 53.7961C37.4493 53.6065 37.5891 53.4528 37.7616 53.4528C37.934 53.4524 38.0738 53.6061 38.0738 53.7961ZM41.912 53.4524C41.7395 53.4524 41.5997 53.6061 41.5997 53.7957C41.5997 53.9853 41.7395 54.139 41.912 54.139C42.0845 54.139 42.2243 53.9853 42.2243 53.7957C42.2243 53.6061 42.0845 53.4524 41.912 53.4524ZM46.0624 53.4524C45.89 53.4524 45.7502 53.6061 45.7502 53.7957C45.7502 53.9853 45.89 54.139 46.0624 54.139C46.2349 54.139 46.3747 53.9853 46.3747 53.7957C46.3747 53.6061 46.2349 53.4524 46.0624 53.4524ZM39.8368 50.0699C39.6643 50.0699 39.5245 50.2235 39.5245 50.4132C39.5245 50.6028 39.6643 50.7564 39.8368 50.7564C40.0093 50.7564 40.1491 50.6028 40.1491 50.4132C40.1491 50.2235 40.0093 50.0699 39.8368 50.0699ZM43.9872 50.0699C43.8147 50.0699 43.675 50.2235 43.675 50.4132C43.675 50.6028 43.8147 50.7564 43.9872 50.7564C44.1597 50.7564 44.2995 50.6028 44.2995 50.4132C44.2995 50.2235 44.1597 50.0699 43.9872 50.0699ZM33.6111 60.3096C33.4386 60.3096 33.2989 60.4632 33.2989 60.6528C33.2989 60.8424 33.4386 60.9961 33.6111 60.9961C33.7836 60.9961 33.9234 60.8424 33.9234 60.6528C33.9234 60.4632 33.7836 60.3096 33.6111 60.3096ZM37.7616 60.3096C37.5891 60.3096 37.4493 60.4632 37.4493 60.6528C37.4493 60.8424 37.5891 60.9961 37.7616 60.9961C37.934 60.9961 38.0738 60.8424 38.0738 60.6528C38.0738 60.4632 37.934 60.3096 37.7616 60.3096ZM41.912 60.3096C41.7395 60.3096 41.5997 60.4632 41.5997 60.6528C41.5997 60.8424 41.7395 60.9961 41.912 60.9961C42.0845 60.9961 42.2243 60.8424 42.2243 60.6528C42.2243 60.4632 42.0845 60.3096 41.912 60.3096ZM46.0624 60.3096C45.89 60.3096 45.7502 60.4632 45.7502 60.6528C45.7502 60.8424 45.89 60.9961 46.0624 60.9961C46.2349 60.9961 46.3747 60.8424 46.3747 60.6528C46.3747 60.4632 46.2349 60.3096 46.0624 60.3096ZM35.6863 56.9274C35.5139 56.9274 35.3741 57.0811 35.3741 57.2707C35.3741 57.4603 35.5139 57.6139 35.6863 57.6139C35.8588 57.6139 35.9986 57.4603 35.9986 57.2707C35.999 57.0811 35.8588 56.9274 35.6863 56.9274ZM39.8368 56.9274C39.6643 56.9274 39.5245 57.0811 39.5245 57.2707C39.5245 57.4603 39.6643 57.6139 39.8368 57.6139C40.0093 57.6139 40.1491 57.4603 40.1491 57.2707C40.1491 57.0811 40.0093 56.9274 39.8368 56.9274ZM43.9872 56.9274C43.8147 56.9274 43.675 57.0811 43.675 57.2707C43.675 57.4603 43.8147 57.6139 43.9872 57.6139C44.1597 57.6139 44.2995 57.4603 44.2995 57.2707C44.2995 57.0811 44.1597 56.9274 43.9872 56.9274ZM48.2721 56.9618V56.9578C48.2325 56.9381 48.1858 56.9262 48.1391 56.9262C47.9666 56.9262 47.8265 57.0803 47.8265 57.2699C47.8265 57.4595 47.9666 57.6136 48.1391 57.6136C48.2721 57.6136 48.387 57.5227 48.4302 57.3923C48.3799 57.2501 48.326 57.1079 48.2721 56.9618ZM29.461 67.1671C29.2886 67.1671 29.1488 67.3207 29.1488 67.5104C29.1488 67.7 29.2886 67.8536 29.461 67.8536C29.6335 67.8536 29.7733 67.7 29.7733 67.5104C29.7733 67.3207 29.6335 67.1671 29.461 67.1671ZM33.6111 67.1671C33.4386 67.1671 33.2989 67.3207 33.2989 67.5104C33.2989 67.7 33.4386 67.8536 33.6111 67.8536C33.7836 67.8536 33.9234 67.7 33.9234 67.5104C33.9234 67.3207 33.7836 67.1671 33.6111 67.1671ZM37.7616 67.1671C37.5891 67.1671 37.4493 67.3207 37.4493 67.5104C37.4493 67.7 37.5891 67.8536 37.7616 67.8536C37.934 67.8536 38.0738 67.7 38.0738 67.5104C38.0738 67.3207 37.934 67.1671 37.7616 67.1671ZM41.912 67.1671C41.7395 67.1671 41.5997 67.3207 41.5997 67.5104C41.5997 67.7 41.7395 67.8536 41.912 67.8536C42.0845 67.8536 42.2243 67.7 42.2243 67.5104C42.2243 67.3207 42.0845 67.1671 41.912 67.1671ZM46.0624 67.1671C45.89 67.1671 45.7502 67.3207 45.7502 67.5104C45.7502 67.7 45.89 67.8536 46.0624 67.8536C46.2349 67.8536 46.3747 67.7 46.3747 67.5104C46.3747 67.3207 46.2349 67.1671 46.0624 67.1671ZM31.5359 63.7845C31.3634 63.7845 31.2236 63.9382 31.2236 64.1278C31.2236 64.3174 31.3634 64.4711 31.5359 64.4711C31.7084 64.4711 31.8482 64.3174 31.8482 64.1278C31.8485 63.9382 31.7088 63.7845 31.5359 63.7845ZM35.6863 63.7845C35.5139 63.7845 35.3741 63.9382 35.3741 64.1278C35.3741 64.3174 35.5139 64.4711 35.6863 64.4711C35.8588 64.4711 35.9986 64.3174 35.9986 64.1278C35.999 63.9382 35.8588 63.7845 35.6863 63.7845ZM39.8368 63.7845C39.6643 63.7845 39.5245 63.9382 39.5245 64.1278C39.5245 64.3174 39.6643 64.4711 39.8368 64.4711C40.0093 64.4711 40.1491 64.3174 40.1491 64.1278C40.1491 63.9382 40.0093 63.7845 39.8368 63.7845ZM43.9872 63.7845C43.8147 63.7845 43.675 63.9382 43.675 64.1278C43.675 64.3174 43.8147 64.4711 43.9872 64.4711C44.1597 64.4711 44.2995 64.3174 44.2995 64.1278C44.2995 63.9382 44.1597 63.7845 43.9872 63.7845ZM48.1377 63.7845C47.9652 63.7845 47.8254 63.9382 47.8254 64.1278C47.8254 64.3174 47.9652 64.4711 48.1377 64.4711C48.3101 64.4711 48.4499 64.3174 48.4499 64.1278C48.4499 63.9382 48.3101 63.7845 48.1377 63.7845ZM27.6923 70.9257C27.6672 71.0323 27.642 71.1271 27.6169 71.214C27.6672 71.1548 27.6995 71.0758 27.6995 70.9849C27.6995 70.9652 27.6995 70.9454 27.6923 70.9257ZM31.5359 70.6417C31.3634 70.6417 31.2236 70.7953 31.2236 70.9849C31.2236 71.1745 31.3634 71.3282 31.5359 71.3282C31.7084 71.3282 31.8482 71.1745 31.8482 70.9849C31.8485 70.7953 31.7088 70.6417 31.5359 70.6417ZM35.6863 70.6417C35.5139 70.6417 35.3741 70.7953 35.3741 70.9849C35.3741 71.1745 35.5139 71.3282 35.6863 71.3282C35.8588 71.3282 35.9986 71.1745 35.9986 70.9849C35.999 70.7953 35.8588 70.6417 35.6863 70.6417ZM39.8368 70.6417C39.6643 70.6417 39.5245 70.7953 39.5245 70.9849C39.5245 71.1745 39.6643 71.3282 39.8368 71.3282C40.0093 71.3282 40.1491 71.1745 40.1491 70.9849C40.1491 70.7953 40.0093 70.6417 39.8368 70.6417ZM43.9872 70.6417C43.8147 70.6417 43.675 70.7953 43.675 70.9849C43.675 71.1745 43.8147 71.3282 43.9872 71.3282C44.1597 71.3282 44.2995 71.1745 44.2995 70.9849C44.2995 70.7953 44.1597 70.6417 43.9872 70.6417Z" fill="white"/>
<path d="M41.1315 64.9108C41.9907 64.8377 42.8585 64.7959 43.7195 64.863C44.1478 64.8966 44.5719 64.9515 44.997 65.0167C45.209 65.0491 45.4206 65.0739 45.6334 65.0973C45.8518 65.1213 46.0847 65.1379 46.3028 65.102C46.3226 65.0988 46.3273 65.1308 46.3079 65.1356C46.098 65.1842 45.8968 65.23 45.6822 65.2474C45.4785 65.264 45.2715 65.2568 45.0678 65.243C44.6329 65.2138 44.1999 65.162 43.7655 65.1277C42.889 65.0581 42.013 64.9894 41.134 64.9898C41.093 64.9898 41.0905 64.9144 41.1315 64.9108Z" fill="#263238"/>
<path d="M39.1759 66.1528C39.8568 65.9367 40.5576 65.7526 41.2568 65.6227C41.6086 65.5571 41.9608 65.5148 42.3162 65.482C42.4858 65.4666 42.6558 65.4544 42.8257 65.4445C43.013 65.4334 43.2016 65.45 43.3881 65.4362C43.4075 65.4346 43.4129 65.4674 43.3932 65.4698C43.2174 65.4888 43.0435 65.5397 42.8692 65.5701C42.6939 65.6005 42.5185 65.6294 42.3428 65.6594C41.9917 65.7198 41.6413 65.7846 41.2895 65.8415C40.5852 65.9553 39.8856 66.0761 39.1856 66.2168C39.1475 66.2239 39.1407 66.1642 39.1759 66.1528Z" fill="#263238"/>
<path d="M40.7979 48.6816C40.8478 49.0885 42.3488 51.8521 44.0101 51.9417C44.5509 51.9698 44.8222 48.7302 44.8222 48.7302L44.8919 48.496L45.8661 45.2181L42.5073 42.3155L42.0193 41.9268C42.0193 41.9268 41.8066 42.8429 41.5522 43.9864C41.5399 44.0394 41.5281 44.0923 41.5159 44.1492C41.5001 44.2136 41.4842 44.274 41.472 44.3349C41.4318 44.5051 41.3919 44.6793 41.3549 44.8535C41.3265 44.9858 41.2981 45.1146 41.2729 45.2552C41.2442 45.3955 41.219 45.5322 41.1903 45.672C40.9352 47.0601 40.7788 48.509 40.7979 48.6816Z" fill="#F1D5C9"/>
<path d="M41.5522 43.9864C42.1922 46.7445 44.0345 48.0362 44.8919 48.496L45.8661 45.2181L42.5073 42.3155L42.0193 41.9268C42.0193 41.9268 41.8066 42.8429 41.5522 43.9864Z" fill="#263238"/>
<path d="M51.012 40.3615C51.1334 46.4116 47.8504 47.1752 46.6635 47.202C45.5862 47.2269 41.9144 47.1609 41.2252 41.1566C40.5356 35.1524 43.0564 33.1777 45.5179 32.9778C47.9791 32.7779 50.8905 34.311 51.012 40.3615Z" fill="#F1D5C9"/>
<path d="M49.8103 38.6451C49.6802 38.6427 49.5605 38.6167 49.4322 38.5997C49.2874 38.5807 49.1703 38.5815 49.0546 38.4725C48.9924 38.414 48.9852 38.2825 49.0312 38.211C49.1383 38.0447 49.3212 38.0194 49.4962 38.0348C49.6863 38.0514 49.829 38.1178 49.967 38.2619C50.101 38.4022 49.982 38.6479 49.8103 38.6451Z" fill="#263238"/>
<path d="M46.0159 38.8342C46.1449 38.8176 46.2617 38.7785 46.3878 38.7477C46.5301 38.7125 46.6469 38.7011 46.7518 38.5798C46.8079 38.5146 46.8036 38.3831 46.7511 38.3171C46.6293 38.1635 46.4453 38.1587 46.2724 38.1931C46.0845 38.2306 45.9487 38.312 45.825 38.4712C45.705 38.6244 45.8455 38.8563 46.0159 38.8342Z" fill="#263238"/>
<path d="M46.867 40.3815C46.8638 40.3657 46.8383 40.4016 46.839 40.4186C46.8602 40.8302 46.821 41.3054 46.485 41.4516C46.4746 41.4563 46.476 41.4769 46.4886 41.4745C46.9008 41.3991 46.9468 40.7674 46.867 40.3815Z" fill="#263238"/>
<path d="M46.5229 39.96C45.9192 39.926 45.9012 41.256 46.4607 41.2876C47.0112 41.3189 47.0288 39.9888 46.5229 39.96Z" fill="#263238"/>
<path d="M46.2843 40.0271C46.1776 40.1005 46.0723 40.2317 45.9447 40.2435C45.797 40.2573 45.6878 40.1163 45.5929 39.9808C45.5832 39.967 45.5725 39.9781 45.5721 39.9958C45.5653 40.2506 45.6508 40.5137 45.8991 40.5556C46.1255 40.5939 46.2911 40.3707 46.3526 40.1155C46.3637 40.0677 46.3274 39.9974 46.2843 40.0271Z" fill="#263238"/>
<path d="M49.0366 40.3197C49.0398 40.3039 49.0653 40.3398 49.0646 40.3568C49.0441 40.7684 49.0843 41.2436 49.4203 41.389C49.4308 41.3933 49.4293 41.4139 49.4167 41.4119C49.0046 41.3372 48.9575 40.706 49.0366 40.3197Z" fill="#263238"/>
<path d="M49.3805 39.8974C49.9842 39.8618 50.0047 41.1918 49.4452 41.225C48.8947 41.2574 48.8746 39.9274 49.3805 39.8974Z" fill="#263238"/>
<path d="M49.6339 39.9803C49.7306 40.0491 49.8272 40.1755 49.9415 40.1814C50.0741 40.1885 50.1697 40.0428 50.2523 39.9033C50.261 39.8891 50.2707 39.8998 50.2714 39.9175C50.2815 40.1715 50.2092 40.4378 49.9879 40.4907C49.7859 40.5389 49.6336 40.3236 49.575 40.0712C49.5635 40.025 49.5947 39.9527 49.6339 39.9803Z" fill="#263238"/>
<path d="M46.8285 43.7349C46.8989 43.8495 46.9622 43.9992 47.0933 44.0415C47.2191 44.0822 47.3804 44.0525 47.5069 44.0288C47.5195 44.0265 47.5285 44.0427 47.5191 44.0529C47.3948 44.1864 47.1763 44.2382 47.0121 44.1671C46.8518 44.0976 46.799 43.9214 46.79 43.7452C46.7886 43.7207 46.8181 43.7183 46.8285 43.7349Z" fill="#263238"/>
<path d="M48.5193 42.202C48.5193 42.202 48.5951 42.8179 48.5944 43.1082C48.5941 43.1354 48.5301 43.1481 48.4406 43.1536C48.4363 43.1552 48.4338 43.1568 48.4302 43.154C47.9638 43.2326 47.4945 43.0541 47.2124 42.6346C47.1941 42.6061 47.2278 42.5765 47.2519 42.5947C47.5994 42.8767 47.9839 42.9506 48.3975 42.9593C48.4162 42.8791 48.2358 41.9097 48.2775 41.9061C48.4219 41.8931 48.7062 42.0021 48.8769 42.0574C48.7529 40.7697 48.4421 39.5147 48.3361 38.2305C48.3332 38.1847 48.3928 38.1712 48.4051 38.2119C48.8154 39.5021 48.9879 40.9802 49.1467 42.3063C49.1679 42.4714 48.625 42.2514 48.5193 42.202Z" fill="#263238"/>
<path d="M48.4 43.1027C48.4 43.1027 48.1474 43.4934 47.7945 43.64C47.6644 43.6945 47.5239 43.7178 47.3752 43.6775C47.0701 43.5965 47.0572 43.2904 47.1082 43.0269C47.1495 42.8104 47.2372 42.6228 47.2372 42.6228C47.2372 42.6228 47.6885 43.0696 48.4 43.1027Z" fill="#263238"/>
<path d="M42.1091 41.6002C42.1091 41.6002 41.021 39.6298 40.215 40.0446C39.4094 40.4594 40.1503 43.2561 41.0419 43.6946C41.9334 44.1331 42.319 43.234 42.319 43.234L42.1091 41.6002Z" fill="#F1D5C9"/>
<path d="M40.4455 40.8406C40.4308 40.8379 40.4269 40.8604 40.4391 40.8671C41.0629 41.1977 41.3615 41.8748 41.5581 42.5684C41.3827 42.2943 41.1319 42.1331 40.7999 42.3599C40.7826 42.3717 40.7966 42.4017 40.8149 42.399C41.0809 42.3559 41.2674 42.4195 41.4309 42.6628C41.5469 42.8355 41.6202 43.0484 41.6993 43.2435C41.7255 43.3087 41.8308 43.2822 41.8136 43.208C41.8121 43.2024 41.8103 43.1969 41.8093 43.1914C41.8779 42.2947 41.3169 40.9931 40.4455 40.8406Z" fill="#263238"/>
<path d="M41.4626 40.9807C42.0588 40.9558 43.6446 39.1917 43.7538 36.0315C43.7538 36.0315 43.4771 38.8619 43.2748 39.2731C43.0725 39.6843 44.1613 38.28 44.2821 35.7329C44.2821 35.7329 45.5466 36.7825 46.6351 37.1455C47.7235 37.5089 48.394 37.5133 48.4738 37.4279C48.554 37.3426 46.9531 36.7465 46.5283 36.1836C46.5283 36.1836 49.4124 37.7416 50.7531 37.8858C50.9084 37.9024 51.1624 34.3954 49.1156 32.856C47.0688 31.3166 43.7488 32.8481 42.8461 33.7661C42.8461 33.7661 41.8044 33.904 40.643 35.5654C39.4812 37.2273 40.8201 41.0076 41.4626 40.9807Z" fill="#263238"/>
<path d="M35.974 50.8285C31.6683 56.9722 27.4705 67.627 27.9257 70.6908C28.569 75.0198 39.2983 82.6441 42.4404 84.3138C43.6191 84.9403 47.1838 73.627 45.9315 72.9393C43.9411 71.8454 36.8885 66.9986 36.7858 66.1556C36.7211 65.6263 38.5613 58.3172 39.5161 53.5154C40.7925 47.0967 37.4427 48.7325 35.974 50.8285Z" fill="#F1D5C9"/>
<path d="M58.3084 78.3501C58.0069 79.3333 57.2544 79.7714 57.2544 79.7714C57.2544 79.7714 57.7952 80.5665 57.6828 81.5114C57.5541 82.5934 55.9532 82.8442 55.9532 82.8442C55.9532 82.8442 56.3492 83.7733 56.139 84.7581C55.9213 85.78 54.3391 86.286 54.3391 86.286C54.3391 86.286 54.2751 87.3735 53.5377 88.0806C52.2771 89.2901 49.8289 88.4728 48.2683 87.9708C46.7073 87.4687 42.706 84.4389 41.8903 83.9463L44.7233 72.915C44.7233 72.915 52.3034 72.979 54.0627 73.8556C55.545 74.5943 58.7371 76.9517 58.3084 78.3501Z" fill="#F1D5C9"/>
<path d="M57.2426 79.7224C55.8379 78.5219 54.1745 77.6931 52.5618 76.9126C52.5258 76.8952 52.5018 76.9572 52.5377 76.9742C54.1501 77.7299 55.6177 78.9774 57.1991 79.8022C57.243 79.8247 57.2807 79.7547 57.2426 79.7224Z" fill="#263238"/>
<path d="M55.958 82.6898C55.6328 82.4287 55.2303 82.2865 54.8573 82.1297C54.4559 81.961 54.0517 81.8002 53.6452 81.6462C52.8317 81.3381 52.0117 81.0501 51.1844 80.7886C51.1478 80.7771 51.1226 80.836 51.1604 80.8502C51.9707 81.1591 52.7767 81.481 53.5745 81.8271C53.9737 82.0001 54.3718 82.1771 54.7686 82.3568C55.1376 82.5239 55.5146 82.734 55.9109 82.8079C55.9702 82.8194 56.0072 82.7293 55.958 82.6898Z" fill="#263238"/>
<path d="M54.3049 86.2719C54.0307 86.0325 53.6185 85.9421 53.2897 85.8255C52.9164 85.6936 52.5437 85.5593 52.1718 85.4226C51.4279 85.1497 50.6845 84.8763 49.9496 84.5749C49.9129 84.5599 49.8889 84.6211 49.9255 84.6365C50.6708 84.947 51.4118 85.2682 52.1596 85.5716C52.5265 85.7205 52.8944 85.867 53.2631 86.0116C53.5765 86.1345 53.9556 86.3268 54.2941 86.3134C54.3128 86.313 54.3185 86.2842 54.3049 86.2719Z" fill="#263238"/>
<path d="M38.4012 60.6894L30.7281 58.1948C30.7281 58.1948 34.0222 52.0582 36.8348 49.632C39.6474 47.2058 40.2834 48.9893 39.9985 51.8591C39.7135 54.7285 38.4012 60.6894 38.4012 60.6894Z" fill="#77B954"/>
<path d="M33.9234 53.7975C33.9234 53.9871 33.7832 54.1372 33.6107 54.1372C33.4778 54.1372 33.3628 54.0463 33.3197 53.916C33.4239 53.7659 33.5245 53.6118 33.6323 53.4577C33.794 53.4656 33.9234 53.6157 33.9234 53.7975ZM37.7615 53.4522C37.589 53.4522 37.4493 53.6059 37.4493 53.7955C37.4493 53.9851 37.589 54.1388 37.7615 54.1388C37.934 54.1388 38.0738 53.9851 38.0738 53.7955C38.0738 53.6059 37.934 53.4522 37.7615 53.4522ZM35.7129 50.7519C35.8638 50.74 35.986 50.6057 35.9968 50.4398C35.9034 50.5425 35.8063 50.6452 35.7129 50.7519ZM40.0394 50.1514C39.9855 50.1001 39.9136 50.0685 39.8382 50.0685C39.6657 50.0685 39.5256 50.2225 39.5256 50.4121C39.5256 50.6018 39.6657 50.7558 39.8382 50.7558C39.928 50.7558 40.0071 50.7163 40.061 50.6492C40.0574 50.4754 40.0538 50.3094 40.0394 50.1514ZM37.7612 60.3074C37.6749 60.3074 37.5959 60.3469 37.542 60.4101L38.0666 60.5799C38.0379 60.4259 37.9121 60.3074 37.7612 60.3074ZM31.5373 56.926C31.5014 56.926 31.4654 56.9339 31.4331 56.9458V56.9497C31.3576 57.0722 31.293 57.1907 31.2283 57.2973C31.2391 57.4751 31.372 57.6133 31.5373 57.6133C31.7098 57.6133 31.8499 57.4593 31.8499 57.2697C31.8499 57.0801 31.7098 56.926 31.5373 56.926ZM35.6863 56.9272C35.5138 56.9272 35.374 57.0808 35.374 57.2705C35.374 57.4601 35.5138 57.6137 35.6863 57.6137C35.8588 57.6137 35.9986 57.4601 35.9986 57.2705C35.9989 57.0808 35.8588 56.9272 35.6863 56.9272Z" fill="white"/>
<path d="M38.1941 59.0901C38.2447 59.1055 38.2508 59.149 38.2002 59.1356C35.6556 58.4601 32.7726 57.4911 31.7679 57.0127C31.7524 57.0056 31.7621 56.9807 31.7776 56.9835C32.8689 57.1846 37.6374 58.9222 38.1941 59.0901Z" fill="#263238"/>
<path d="M39.7309 54.0894C39.346 56.3137 38.8796 58.64 38.4423 60.8008C38.4344 60.8395 38.1235 60.6728 37.9935 60.6147C37.9435 60.5926 37.9794 60.5428 38.0283 60.5582C38.153 60.5973 38.1864 60.5993 38.3187 60.619C38.7599 58.4354 39.2059 56.2521 39.7075 54.0839C39.7108 54.0669 39.7338 54.0728 39.7309 54.0894Z" fill="#263238"/>
<path d="M136.71 46.1717L60.1042 56.0155L64.4174 96.5764L141.023 86.7326L136.71 46.1717Z" fill="#77B954"/>
<path opacity="0.1" d="M136.71 46.1717L60.1042 56.0155L64.4174 96.5764L141.023 86.7326L136.71 46.1717Z" fill="black"/>
<path opacity="0.1" d="M136.711 46.1792L134.391 46.4775L62.4267 55.7245L60.1021 56.0235L60.3734 58.5733L64.1454 94.0306L64.4174 96.586L66.737 96.2877L138.707 87.0404L141.021 86.7429L141.026 86.7421L136.716 46.1788L136.711 46.1792ZM138.435 84.4901L66.4646 93.732L62.6976 58.2739L134.663 49.0324L138.435 84.4901Z" fill="black"/>
<path opacity="0.1" d="M102.079 85.6245C108.004 84.863 112.154 78.0873 111.346 70.4905C110.538 62.8938 105.079 57.3527 99.1531 58.1141C93.2272 58.8756 89.0781 65.6513 89.8859 73.2481C90.6937 80.8449 96.1526 86.386 102.079 85.6245Z" fill="black"/>
<path opacity="0.1" d="M82.6664 73.2814C82.8518 75.027 81.7152 76.6075 80.1273 76.8113C78.5393 77.0151 77.102 75.7657 76.9162 74.0201C76.7308 72.2745 77.8674 70.6941 79.4553 70.4902C81.0433 70.2864 82.481 71.5362 82.6664 73.2814Z" fill="black"/>
<path opacity="0.1" d="M124.13 67.9559C124.315 69.7015 123.179 71.2815 121.591 71.4858C120.003 71.6896 118.565 70.4401 118.38 68.6946C118.194 66.949 119.331 65.3685 120.919 65.1647C122.507 64.9605 123.944 66.2103 124.13 67.9559Z" fill="black"/>
<path opacity="0.1" d="M71.6 93.073L66.4657 93.7322L65.8663 88.0949C68.7016 87.7307 71.2687 89.9567 71.6 93.073Z" fill="black"/>
<path opacity="0.1" d="M137.833 78.8477L138.433 84.4913L133.305 85.1502C132.974 82.0339 134.998 79.2119 137.833 78.8477Z" fill="black"/>
<path opacity="0.1" d="M129.529 49.6886L134.663 49.0289L135.263 54.6662C132.428 55.0304 129.861 52.8049 129.529 49.6886Z" fill="black"/>
<path opacity="0.1" d="M63.2959 63.914L62.6961 58.2703L67.8243 57.6115C68.1556 60.7278 66.1311 63.5498 63.2959 63.914Z" fill="black"/>
<path d="M99.6368 61.4755C99.9174 61.4396 100.182 61.6699 100.215 61.978L100.316 62.9272C101.884 62.8695 103.067 63.2954 104.333 64.0937C104.545 64.2351 104.668 64.3635 104.693 64.6005C104.728 64.9323 104.497 65.227 104.195 65.2657C104.065 65.2827 103.955 65.272 103.789 65.15C102.633 64.3611 101.547 64.019 100.389 64.0238L101.094 70.6648C104.455 71.003 105.979 72.1774 106.226 74.502C106.493 77.0159 104.763 79.0424 102.075 79.4832L102.272 81.3335C102.305 81.6416 102.095 81.9327 101.814 81.9691C101.534 82.005 101.269 81.7747 101.236 81.4666L101.037 79.5926C99.1419 79.6677 97.5292 79.106 95.9373 77.915C95.7709 77.7929 95.6696 77.661 95.647 77.4477C95.6143 77.1396 95.8428 76.8212 96.1234 76.7856C96.3175 76.7604 96.4569 76.839 96.5295 76.9018C97.8688 77.9802 99.2631 78.5462 100.966 78.5194L100.248 71.7594C96.9284 71.3924 95.4515 70.2599 95.1996 67.8878C94.9452 65.4921 96.6495 63.4222 99.2742 63.0121L99.1786 62.1107C99.1466 61.803 99.3561 61.5118 99.6368 61.4755ZM100.12 70.5495L99.4319 64.0739C97.3438 64.3907 96.1094 65.944 96.2909 67.6516C96.462 69.2645 97.2583 70.1726 100.12 70.5495ZM101.223 71.8748L101.919 78.4214C104.072 78.0967 105.328 76.5415 105.137 74.7383C104.963 73.1017 104.101 72.2022 101.223 71.8748Z" fill="#77B954"/>
<path d="M144.341 85.2406H58.176V155.962H144.341V85.2406Z" fill="#77B954"/>
<path opacity="0.1" d="M144.341 85.2406H58.176V155.962H144.341V85.2406Z" fill="black"/>
<path d="M128.847 49.5411L137.443 92.2434C137.924 94.6321 136.554 96.9951 134.385 97.5224L72.7723 112.51C70.6036 113.038 68.454 111.531 67.9732 109.142L59.3769 66.44C58.9299 64.2188 60.2052 62.0201 62.2258 61.5283L124.379 46.4094C126.399 45.9176 128.4 47.3199 128.847 49.5411Z" fill="#455A64"/>
<path d="M79.442 75.4239L69.3505 77.8789C68.5362 78.0769 67.7302 77.512 67.5502 76.6169L66.2084 69.9513C66.0283 69.0562 66.5422 68.1702 67.3565 67.9723L77.4483 65.5172C78.2626 65.3193 79.0686 65.8842 79.249 66.7793L80.5908 73.4449C80.7705 74.3396 80.2563 75.2256 79.442 75.4239Z" fill="#77B954"/>
<path d="M122.576 60.2396L116.676 61.6747C115.311 62.0065 113.959 61.0596 113.657 59.559C113.355 58.0583 114.217 56.573 115.582 56.2408L121.482 54.8057C122.847 54.4735 124.198 55.4207 124.5 56.9214C124.802 58.4221 123.94 59.9074 122.576 60.2396Z" fill="white"/>
<path d="M69.2155 87.3864L68.7501 87.8612C68.7361 87.877 68.7113 87.8955 68.6898 87.9007C68.6413 87.9125 68.592 87.8936 68.5622 87.8568C68.5087 87.7889 68.5137 87.7004 68.5712 87.6491L69.2029 86.9842C69.2554 86.9341 69.3463 86.9368 69.3923 86.9945C69.4153 87.0261 69.4282 87.0601 69.4297 87.0976L70.1987 90.9174C70.2145 90.9945 70.1735 91.0727 70.0977 91.0913C70.0276 91.1082 69.9547 91.0573 69.9392 90.9803L69.2155 87.3864Z" fill="#F8F8F8"/>
<path d="M71.1042 90.5789L72.5186 88.3964C72.686 88.1314 72.7421 87.8185 72.6824 87.5215C72.6307 87.2659 72.4927 87.0317 72.2846 86.8705C72.0489 86.6848 71.7604 86.6303 71.4955 86.6947C71.2576 86.7528 71.0431 86.8981 70.8911 87.1284L70.7445 87.3572C70.7024 87.4298 70.6148 87.4448 70.5594 87.3959C70.4933 87.3496 70.4796 87.2537 70.5242 87.1924L70.6697 86.9578C70.8609 86.6682 71.1394 86.4759 71.4369 86.4036C71.7665 86.3234 72.1301 86.3846 72.4345 86.6283C72.709 86.8357 72.8772 87.1375 72.9419 87.4583C73.0159 87.8264 72.9552 88.2278 72.7399 88.5667L71.5293 90.4379L73.3181 90.0026C73.3882 89.9856 73.4608 90.0362 73.4773 90.1195C73.4928 90.1965 73.4468 90.2763 73.3767 90.2937L71.2691 90.8065L71.2476 90.8116C71.2098 90.8211 71.1692 90.8183 71.1416 90.7934C71.0801 90.7405 71.0621 90.6516 71.1042 90.5789Z" fill="#F8F8F8"/>
<path d="M75.8491 85.6049L75.0934 86.9476C75.3421 86.9433 75.594 87.0132 75.8186 87.17C76.1219 87.3825 76.3195 87.7151 76.3925 88.0774C76.4654 88.4396 76.414 88.8323 76.215 89.1672C76.0213 89.501 75.7205 89.7238 75.3906 89.804C75.0665 89.8826 74.7093 89.8261 74.4046 89.6077C74.3399 89.5674 74.3205 89.4722 74.3625 89.3999C74.3992 89.3284 74.4858 89.3075 74.5519 89.3537C74.7948 89.5184 75.0704 89.5638 75.3299 89.501C75.5893 89.4378 75.8272 89.268 75.9839 89.0057C76.1399 88.737 76.1797 88.4285 76.1223 88.1429C76.0648 87.8581 75.9102 87.5966 75.667 87.4311C75.428 87.2585 75.147 87.215 74.8875 87.2783C74.8444 87.2885 74.8017 87.2743 74.7675 87.2447L74.7621 87.2459C74.696 87.1996 74.6766 87.1044 74.719 87.0322L75.4452 85.7404L73.9971 86.0924C73.9213 86.111 73.8487 86.06 73.8321 85.9767C73.8153 85.8937 73.8616 85.8135 73.9374 85.7953L75.7047 85.3656C75.7805 85.347 75.8531 85.398 75.87 85.4813C75.8747 85.505 75.8739 85.5303 75.8668 85.5508C75.8646 85.5698 75.8574 85.5903 75.8491 85.6049Z" fill="#F8F8F8"/>
<path d="M79.6367 87.8739L77.5884 88.3724L77.583 88.3736L77.5722 88.3764C77.5457 88.3827 77.5119 88.3847 77.4853 88.3661C77.4163 88.3329 77.3915 88.2393 77.4285 88.1682L79.0147 84.6419L79.019 84.6348C79.0545 84.5573 79.1289 84.5332 79.1994 84.572C79.2245 84.5842 79.2414 84.6115 79.2565 84.6328C79.259 84.6446 79.2655 84.6494 79.2669 84.6553L79.2705 84.6731L79.8444 87.5247L80.0984 87.4627C80.1739 87.4441 80.2469 87.4951 80.2623 87.5725C80.2778 87.6499 80.2314 87.7293 80.1559 87.7479L79.9019 87.8099L80.0453 88.5229C80.0607 88.6 80.0147 88.6798 79.9389 88.6983C79.8688 88.7153 79.7962 88.6644 79.7804 88.5873L79.6367 87.8739ZM79.5792 87.5887L79.089 85.153L77.7904 88.024L79.5792 87.5887Z" fill="#F8F8F8"/>
<path d="M84.4664 87.1664C84.4003 87.1202 84.3809 87.025 84.4244 86.9586C84.4664 86.886 84.553 86.865 84.6188 86.9112C84.8621 87.0768 85.1377 87.1218 85.3971 87.0586C85.6566 86.9954 85.8891 86.8267 86.0447 86.5585C86.2006 86.2899 86.2412 85.9873 86.1841 85.7021C86.1255 85.411 85.971 85.1495 85.7331 84.9828C85.4956 84.8161 85.2146 84.7722 84.9551 84.8354C84.6903 84.8998 84.4581 85.0685 84.3022 85.3371C84.2598 85.4094 84.1735 85.4303 84.1132 85.3829C84.0945 85.375 84.0798 85.3596 84.0711 85.3434L84.0701 85.3375C84.0636 85.3327 84.0621 85.3268 84.0611 85.3209C84.0532 85.3102 84.0496 85.2925 84.046 85.2743C84.0445 85.2684 84.0478 85.2553 84.0453 85.2435L83.8915 83.5232C83.8821 83.4758 83.8965 83.4347 83.9238 83.4031C83.9407 83.3742 83.9709 83.3541 84.0032 83.3466L85.7651 82.918C85.8409 82.8994 85.9135 82.9504 85.93 83.0337C85.9476 83.123 85.9002 83.1965 85.8247 83.2151L84.1764 83.616L84.29 84.8848C84.4592 84.7126 84.6676 84.5933 84.8948 84.5384C85.2243 84.4582 85.575 84.5099 85.8801 84.7284C86.1888 84.9397 86.3796 85.2676 86.4536 85.6357C86.5251 85.992 86.4805 86.389 86.2818 86.7244C86.0867 87.0527 85.7805 87.2762 85.4564 87.3552C85.1273 87.4354 84.7697 87.3789 84.4664 87.1664Z" fill="#F8F8F8"/>
<path d="M87.4973 83.4505C87.6551 82.8824 88.0173 82.4017 88.6393 82.2259C88.7086 82.2026 88.7812 82.2536 88.8021 82.3294C88.819 82.4128 88.7726 82.4925 88.7036 82.5159C88.179 82.6679 87.9034 83.0468 87.7531 83.5386C87.6727 83.8135 87.6446 84.1256 87.6504 84.436C87.82 84.0955 88.1179 83.8297 88.4905 83.7392C89.1877 83.5698 89.8686 84.0521 90.0206 84.8066C90.1737 85.567 89.7403 86.3144 89.0428 86.4838C88.3676 86.6481 87.6978 86.1943 87.5278 85.4627C87.4995 85.3762 87.4815 85.2869 87.4621 85.1921C87.3564 84.6375 87.337 84.0067 87.4973 83.4505ZM87.788 85.3738C87.7941 85.4038 87.8045 85.426 87.8146 85.4485C87.8182 85.4662 87.8203 85.4785 87.8175 85.4915C87.9889 86.0043 88.4873 86.3132 88.9846 86.1919C89.5359 86.058 89.8812 85.4627 89.7615 84.8686C89.6419 84.2749 89.1007 83.8953 88.5495 84.0296C88.0094 84.1611 87.664 84.756 87.7837 85.3497L87.788 85.3738Z" fill="#F8F8F8"/>
<path d="M91.6321 85.6411L92.2973 81.653L90.4707 82.0974C90.4007 82.1148 90.3281 82.0638 90.3126 81.9868C90.2972 81.9094 90.3432 81.83 90.4132 81.8126L92.413 81.3263C92.4389 81.3137 92.4658 81.3074 92.4953 81.3121C92.5316 81.322 92.5657 81.3516 92.5837 81.384C92.5927 81.4006 92.6006 81.4113 92.6042 81.429C92.6099 81.4591 92.6092 81.4836 92.5977 81.5116L91.9034 85.6937C91.8923 85.7521 91.851 85.7995 91.8025 85.8118C91.7809 85.8169 91.7698 85.8197 91.7461 85.813C91.6749 85.7991 91.6246 85.7178 91.6321 85.6411Z" fill="#F8F8F8"/>
<path d="M94.5731 80.7758C95.0054 80.6707 95.4402 80.9702 95.5358 81.4454C95.5944 81.7365 95.515 82.0174 95.3525 82.2248C95.842 82.3176 96.2534 82.7288 96.3655 83.287C96.5165 84.0355 96.0914 84.7683 95.4104 84.9338C94.7348 85.0981 94.0632 84.632 93.9123 83.8838C93.8002 83.3253 94.0154 82.762 94.4179 82.4519C94.1965 82.3377 94.0219 82.1185 93.9633 81.8274C93.8674 81.3526 94.1354 80.8825 94.5731 80.7758ZM95.3529 84.649C95.8934 84.5174 96.2247 83.9387 96.1061 83.3506C95.989 82.7683 95.4654 82.3907 94.9246 82.5222C94.3899 82.6522 94.0542 83.2388 94.1714 83.821C94.29 84.4092 94.8178 84.7793 95.3529 84.649ZM94.8649 82.2251C95.1553 82.1485 95.3407 81.8289 95.276 81.5086C95.2113 81.1878 94.9224 80.9903 94.6303 81.061C94.3385 81.1321 94.1574 81.4442 94.2221 81.765C94.2867 82.0853 94.5717 82.2903 94.8649 82.2251Z" fill="#F8F8F8"/>
<path d="M101.296 79.1404C101.945 78.9828 102.576 79.3837 102.783 80.0501C102.791 80.0608 102.792 80.0663 102.8 80.077C102.829 80.1884 102.858 80.3057 102.883 80.4305C102.994 80.9827 103.009 81.6215 102.854 82.1761C102.694 82.7323 102.329 83.2261 101.712 83.401L101.707 83.4022C101.631 83.4208 101.56 83.3758 101.544 83.2979C101.527 83.215 101.568 83.1368 101.643 83.1123C102.162 82.961 102.448 82.5798 102.593 82.0896C102.673 81.8083 102.707 81.501 102.696 81.1921C102.526 81.5322 102.226 81.7862 101.847 81.8782C101.161 82.0453 100.477 81.5757 100.323 80.8093C100.171 80.0556 100.61 79.3075 101.296 79.1404ZM102.561 80.2658C102.441 79.6721 101.906 79.2972 101.355 79.4311C100.815 79.5626 100.468 80.1516 100.588 80.7453C100.71 81.3513 101.249 81.7187 101.789 81.5875C102.341 81.4536 102.682 80.8717 102.561 80.2658Z" fill="#F8F8F8"/>
<path d="M103.928 80.681C103.816 80.1228 103.843 79.5801 103.997 79.1373C104.156 78.7122 104.434 78.3769 104.818 78.2832C105.201 78.19 105.583 78.3654 105.889 78.6771C106.194 79.0081 106.437 79.4849 106.55 80.0431C106.662 80.6016 106.624 81.1467 106.474 81.582C106.317 82.013 106.039 82.3484 105.655 82.4416C105.271 82.5352 104.89 82.3598 104.582 82.0422C104.273 81.7187 104.041 81.2396 103.928 80.681ZM104.193 80.6166C104.296 81.1274 104.512 81.5548 104.771 81.8281C105.029 82.096 105.326 82.2168 105.596 82.1509C105.866 82.0853 106.083 81.8396 106.22 81.4758C106.35 81.1076 106.387 80.6186 106.285 80.1078C106.182 79.5967 105.96 79.1709 105.701 78.8975C105.435 78.6194 105.146 78.5088 104.876 78.5744C104.606 78.6399 104.381 78.8754 104.252 79.2495C104.122 79.618 104.091 80.1059 104.193 80.6166Z" fill="#F8F8F8"/>
<path d="M107.964 77.9608L107.499 78.4356C107.485 78.4514 107.46 78.4696 107.438 78.4747C107.39 78.4866 107.34 78.4676 107.311 78.4313C107.257 78.3633 107.262 78.2748 107.32 78.2231L107.951 77.5583C108.004 77.5081 108.095 77.5113 108.141 77.5685C108.164 77.6001 108.177 77.6345 108.178 77.6716L108.947 81.4915C108.963 81.5685 108.922 81.6471 108.846 81.6653C108.776 81.6823 108.703 81.6317 108.688 81.5547L107.964 77.9608Z" fill="#F8F8F8"/>
<path d="M109.853 81.153L111.267 78.9706C111.435 78.7055 111.491 78.3926 111.431 78.096C111.38 77.8404 111.242 77.6062 111.033 77.4446C110.798 77.2589 110.509 77.2044 110.244 77.2692C110.006 77.3273 109.792 77.473 109.64 77.7029L109.493 77.9317C109.451 78.0039 109.363 78.019 109.308 77.9704C109.242 77.9242 109.228 77.8278 109.273 77.7669L109.418 77.5323C109.609 77.2423 109.888 77.0504 110.185 76.9777C110.515 76.8979 110.879 76.9587 111.183 77.2025C111.457 77.4098 111.625 77.712 111.69 78.0328C111.764 78.4009 111.703 78.8023 111.488 79.1412L110.278 81.0124L112.067 80.5771C112.137 80.5601 112.209 80.6111 112.226 80.6944C112.241 80.7714 112.195 80.8508 112.125 80.8682L110.017 81.381L109.996 81.3865C109.958 81.3956 109.918 81.3932 109.89 81.3683C109.829 81.3146 109.811 81.2257 109.853 81.153Z" fill="#F8F8F8"/>
<path d="M117.838 75.3909L117.082 76.7335C117.331 76.7296 117.582 76.7991 117.807 76.9559C118.111 77.1688 118.308 77.5011 118.381 77.8633C118.454 78.2255 118.402 78.6182 118.203 78.9531C118.01 79.2873 117.709 79.5101 117.379 79.5899C117.055 79.6689 116.698 79.6124 116.393 79.3936C116.328 79.3537 116.309 79.2585 116.351 79.1858C116.388 79.1147 116.474 79.0934 116.54 79.1396C116.783 79.3047 117.059 79.3497 117.318 79.2865C117.577 79.2237 117.815 79.0535 117.972 78.7912C118.128 78.5226 118.167 78.2137 118.11 77.9285C118.053 77.6433 117.898 77.3818 117.655 77.2166C117.416 77.0444 117.135 77.0006 116.876 77.0638C116.833 77.0744 116.79 77.0598 116.756 77.0306L116.751 77.0318C116.684 76.9856 116.665 76.8904 116.707 76.8177L117.434 75.5256L115.986 75.8779C115.91 75.8961 115.837 75.8455 115.821 75.7622C115.804 75.6792 115.85 75.5994 115.926 75.5809L117.693 75.1511C117.768 75.1325 117.841 75.1835 117.858 75.2664C117.863 75.2901 117.862 75.3154 117.855 75.336C117.853 75.3553 117.847 75.3763 117.838 75.3909Z" fill="#F8F8F8"/>
<path d="M121.625 77.6598L119.577 78.158L119.572 78.1591L119.561 78.1619C119.534 78.1686 119.5 78.1706 119.474 78.1516C119.405 78.1188 119.38 78.0252 119.417 77.9537L121.003 74.427L121.007 74.4199C121.043 74.3429 121.117 74.3184 121.187 74.3575C121.213 74.3701 121.23 74.3974 121.245 74.4183C121.248 74.4302 121.254 74.4349 121.255 74.4408L121.259 74.4586L121.833 77.3102L122.087 77.2482C122.162 77.2297 122.235 77.2806 122.251 77.358C122.266 77.4355 122.22 77.5149 122.144 77.5334L121.89 77.5951L122.033 78.3081C122.049 78.3851 122.003 78.4649 121.927 78.4831C121.857 78.5004 121.784 78.4495 121.769 78.3724L121.625 77.6598ZM121.568 77.375L121.078 74.9393L119.779 77.8099L121.568 77.375Z" fill="#F8F8F8"/>
<path d="M123.215 77.7406C123.149 77.6943 123.13 77.5995 123.173 77.5324C123.216 77.4601 123.302 77.4392 123.368 77.485C123.611 77.6505 123.886 77.6955 124.146 77.6323C124.405 77.5691 124.637 77.4004 124.793 77.1322C124.949 76.8636 124.99 76.561 124.933 76.2758C124.874 75.9847 124.719 75.7232 124.482 75.5565C124.244 75.3898 123.963 75.3459 123.704 75.4091C123.439 75.4735 123.207 75.6422 123.051 75.9108C123.009 75.9835 122.922 76.0044 122.862 75.9566C122.843 75.9487 122.828 75.9333 122.82 75.9175L122.818 75.9116C122.812 75.9069 122.811 75.901 122.809 75.895C122.802 75.8844 122.798 75.8666 122.794 75.8484C122.793 75.8425 122.796 75.8295 122.794 75.8176L122.64 74.0977C122.631 74.0503 122.645 74.0088 122.673 73.9776C122.689 73.9488 122.72 73.9286 122.752 73.9211L124.514 73.4925C124.59 73.474 124.662 73.5249 124.679 73.6079C124.696 73.6971 124.649 73.771 124.574 73.7896L122.925 74.1905L123.039 75.4589C123.208 75.2867 123.417 75.1678 123.644 75.1125C123.973 75.0323 124.324 75.0841 124.629 75.3025C124.938 75.5138 125.128 75.8417 125.202 76.2099C125.274 76.5662 125.229 76.9635 125.031 77.2985C124.835 77.6268 124.529 77.8508 124.205 77.9294C123.876 78.01 123.518 77.9535 123.215 77.7406Z" fill="#F8F8F8"/>
<path d="M126.246 74.0244C126.403 73.4564 126.766 72.9756 127.388 72.7995C127.457 72.7761 127.53 72.8271 127.551 72.9029C127.567 72.9863 127.521 73.0661 127.452 73.089C126.927 73.2415 126.651 73.6199 126.501 74.1117C126.42 74.3866 126.393 74.6987 126.398 75.0092C126.568 74.6687 126.866 74.4032 127.239 74.3124C127.936 74.1425 128.617 74.6252 128.769 75.3793C128.922 76.1397 128.489 76.8871 127.792 77.0566C127.116 77.2209 126.447 76.7666 126.277 76.0354C126.248 75.9493 126.23 75.8601 126.211 75.7649C126.105 75.2118 126.085 74.5806 126.246 74.0244ZM126.536 75.9477C126.543 75.9778 126.553 76.0003 126.563 76.022C126.567 76.0398 126.569 76.0516 126.566 76.0651C126.737 76.5778 127.236 76.8863 127.733 76.7658C128.284 76.6319 128.63 76.0366 128.51 75.4425C128.39 74.8484 127.849 74.4692 127.298 74.6035C126.758 74.735 126.412 75.3299 126.532 75.9237L126.536 75.9477Z" fill="#F8F8F8"/>
<path d="M104.878 90.1122L71.8873 98.1385L72.2462 99.9209L105.237 91.8945L104.878 90.1122Z" fill="#A6A6A6"/>
<path d="M96.0406 96.4142L72.6846 102.097L73.0434 103.879L96.3994 98.1965L96.0406 96.4142Z" fill="#A6A6A6"/>
<path d="M110.846 57.3912L94.3918 61.3943L94.7507 63.1766L111.204 59.1735L110.846 57.3912Z" fill="#A6A6A6"/>
<path d="M138.868 93.9489H63.6489V118.152H138.868V93.9489Z" fill="#77B954"/>
<path opacity="0.3" d="M138.868 93.9489H63.6489V118.152H138.868V93.9489Z" fill="black"/>
<path d="M136.782 93.3436L136.885 137.079C136.891 139.525 135.092 141.512 132.872 141.518L69.7691 141.699C67.548 141.705 65.7405 139.728 65.7347 137.282L65.6316 93.5466C65.6262 91.2717 67.2993 89.423 69.3688 89.4171L133.025 89.2354C135.095 89.2294 136.776 91.0687 136.782 93.3436Z" fill="#DBDBDB"/>
<path d="M126.615 130.944C126.621 133.193 124.967 135.021 122.921 135.026C120.876 135.032 119.213 133.214 119.208 130.966C119.202 128.717 120.856 126.889 122.902 126.884C124.947 126.878 126.61 128.696 126.615 130.944Z" fill="#A6A6A6"/>
<path d="M131.176 130.931C131.181 133.18 129.527 135.007 127.481 135.013C125.436 135.019 123.773 133.201 123.768 130.952C123.763 128.703 125.417 126.876 127.462 126.87C129.508 126.865 131.17 128.682 131.176 130.931Z" fill="#77B954"/>
<path d="M83.4886 107.033L73.1527 107.063C72.3187 107.065 71.641 106.324 71.6388 105.407L71.6226 98.5805C71.6205 97.6637 72.2946 96.9187 73.1286 96.9163L83.4645 96.8867C84.2985 96.8843 84.9763 97.6254 84.9784 98.5422L84.9946 105.369C84.9967 106.286 84.3226 107.031 83.4886 107.033Z" fill="#77B954"/>
<path d="M128.577 102.323L122.534 102.341C121.136 102.345 120 101.102 119.996 99.5652C119.993 98.0282 121.123 96.7795 122.521 96.7756L128.564 96.7582C129.962 96.7542 131.098 97.9966 131.102 99.5336C131.105 101.07 129.975 102.319 128.577 102.323Z" fill="white"/>
<path d="M71.1742 116.319L70.6272 116.674C70.6107 116.686 70.5827 116.698 70.5608 116.698C70.5112 116.698 70.4666 116.668 70.4443 116.625C70.4052 116.547 70.4274 116.461 70.4936 116.425L71.2396 115.923C71.3003 115.887 71.389 115.911 71.4225 115.978C71.439 116.014 71.4447 116.051 71.439 116.087L71.448 120C71.4483 120.079 71.3934 120.145 71.3157 120.146C71.2439 120.146 71.1824 120.079 71.1824 120L71.1742 116.319Z" fill="#F8F8F8"/>
<path d="M72.3992 119.881L74.2049 118.081C74.4202 117.861 74.5359 117.569 74.5352 117.265C74.5344 117.003 74.445 116.742 74.2732 116.535C74.0791 116.299 73.8078 116.178 73.5365 116.179C73.2929 116.179 73.055 116.271 72.8617 116.46L72.6738 116.649C72.6184 116.711 72.53 116.705 72.4855 116.644C72.4301 116.583 72.4351 116.486 72.4905 116.437L72.6784 116.242C72.9213 116.004 73.2311 115.881 73.5355 115.88C73.8729 115.879 74.2164 116.025 74.4662 116.334C74.694 116.601 74.7996 116.935 74.8007 117.264C74.8014 117.641 74.6642 118.019 74.3882 118.299L72.8423 119.843L74.6742 119.838C74.7461 119.838 74.8068 119.904 74.8072 119.99C74.8075 120.069 74.7468 120.136 74.6749 120.136L72.5164 120.142H72.4944C72.4556 120.143 72.4168 120.13 72.3945 120.1C72.3442 120.034 72.3439 119.942 72.3992 119.881Z" fill="#F8F8F8"/>
<path d="M78.0006 116.136L77.0012 117.27C77.2449 117.324 77.4777 117.451 77.6664 117.658C77.9215 117.936 78.0498 118.308 78.0509 118.679C78.0516 119.05 77.9251 119.421 77.6657 119.702C77.4116 119.982 77.0745 120.129 76.7368 120.13C76.4047 120.131 76.0666 119.992 75.8114 119.707C75.7561 119.652 75.7557 119.555 75.8107 119.494C75.8603 119.433 75.9491 119.432 76.0044 119.493C76.2096 119.711 76.4701 119.82 76.7357 119.819C77.0016 119.819 77.2668 119.708 77.4709 119.489C77.6754 119.263 77.7742 118.971 77.7738 118.679C77.7731 118.387 77.6729 118.095 77.4673 117.876C77.2672 117.652 77.0012 117.543 76.7357 117.544C76.6915 117.544 76.6527 117.52 76.625 117.483H76.6196C76.5639 117.422 76.5636 117.325 76.6193 117.264L77.5798 116.173L76.0964 116.177C76.0188 116.177 75.9577 116.11 75.9577 116.025C75.9573 115.94 76.0181 115.872 76.0957 115.872L77.9053 115.867C77.983 115.867 78.0441 115.934 78.0444 116.019C78.0444 116.043 78.039 116.068 78.0279 116.086C78.0225 116.105 78.0117 116.123 78.0006 116.136Z" fill="#F8F8F8"/>
<path d="M81.2602 119.241L79.1624 119.248H79.157H79.1459C79.1185 119.248 79.0851 119.241 79.0628 119.217C79.0018 119.169 78.996 119.071 79.0456 119.01L81.28 115.937L81.2854 115.931C81.335 115.864 81.4126 115.858 81.4737 115.912C81.496 115.931 81.5071 115.961 81.5179 115.985C81.5179 115.997 81.5236 116.003 81.5236 116.01V116.028L81.5305 118.948L81.791 118.947C81.8686 118.947 81.9293 119.014 81.9297 119.093C81.9297 119.172 81.8693 119.239 81.7917 119.24L81.5312 119.24L81.533 119.971C81.5333 120.05 81.4726 120.117 81.3954 120.117C81.3235 120.117 81.2624 120.051 81.262 119.972L81.2602 119.241ZM81.2592 118.949L81.2534 116.455L79.4269 118.954L81.2592 118.949Z" fill="#F8F8F8"/>
<path d="M86.1161 119.684C86.0604 119.623 86.06 119.526 86.1154 119.471C86.1707 119.41 86.2591 119.41 86.3144 119.471C86.52 119.689 86.7805 119.798 87.0461 119.797C87.3116 119.797 87.5718 119.686 87.7759 119.461C87.9804 119.235 88.0788 118.949 88.0785 118.657C88.0777 118.359 87.9775 118.067 87.7777 117.848C87.5779 117.63 87.3116 117.521 87.0461 117.522C86.7747 117.522 86.5153 117.633 86.3108 117.859C86.2555 117.919 86.1671 117.92 86.1171 117.859C86.1006 117.847 86.0891 117.829 86.0837 117.81V117.804C86.0783 117.798 86.0783 117.792 86.0783 117.786C86.0726 117.774 86.0726 117.756 86.0726 117.737C86.0722 117.731 86.078 117.719 86.078 117.707L86.262 115.991C86.262 115.942 86.2842 115.906 86.3169 115.882C86.3392 115.857 86.3726 115.845 86.4053 115.845L88.2096 115.84C88.2872 115.839 88.348 115.906 88.3483 115.991C88.3483 116.083 88.2876 116.143 88.2103 116.144L86.5221 116.149L86.3867 117.415C86.5854 117.286 86.8121 117.219 87.0446 117.218C87.382 117.217 87.7148 117.35 87.9703 117.635C88.2308 117.914 88.3534 118.279 88.3544 118.656C88.3552 119.021 88.2344 119.399 87.975 119.679C87.7205 119.954 87.3781 120.101 87.0461 120.102C86.7093 120.102 86.3712 119.963 86.1161 119.684Z" fill="#F8F8F8"/>
<path d="M89.7988 116.765C90.0633 116.247 90.5107 115.862 91.1524 115.836C91.2247 115.83 91.2858 115.897 91.2912 115.976C91.2915 116.061 91.2308 116.128 91.1586 116.134C90.6163 116.16 90.2739 116.465 90.0313 116.91C89.8991 117.16 89.8114 117.458 89.7564 117.763C89.9882 117.469 90.331 117.28 90.7126 117.279C91.4266 117.277 91.9983 117.908 92.0001 118.681C92.0019 119.46 91.4335 120.088 90.7194 120.09C90.0277 120.092 89.4617 119.491 89.4377 118.737C89.4265 118.646 89.4261 118.555 89.4261 118.457C89.4305 117.892 89.5343 117.271 89.7988 116.765ZM89.7093 118.712C89.7093 118.743 89.7151 118.767 89.7208 118.791C89.7208 118.809 89.7208 118.822 89.7154 118.834C89.7833 119.375 90.2102 119.794 90.7194 119.792C91.284 119.791 91.7367 119.291 91.7353 118.682C91.7339 118.073 91.2786 117.576 90.714 117.578C90.1607 117.579 89.7082 118.079 89.7093 118.688V118.712Z" fill="#F8F8F8"/>
<path d="M93.4126 119.876L94.837 116.136L92.9663 116.141C92.8944 116.141 92.8333 116.075 92.8333 115.996C92.833 115.917 92.8937 115.849 92.9656 115.849L95.0135 115.843C95.0411 115.837 95.0688 115.837 95.0965 115.849C95.1299 115.867 95.1579 115.904 95.1687 115.94C95.1741 115.958 95.1802 115.97 95.1802 115.988C95.1802 116.019 95.1748 116.043 95.1579 116.068L93.6674 119.99C93.6451 120.045 93.5958 120.081 93.5459 120.082C93.5236 120.082 93.5125 120.082 93.4906 120.07C93.4237 120.04 93.3903 119.949 93.4126 119.876Z" fill="#F8F8F8"/>
<path d="M97.2308 115.813C97.6735 115.812 98.04 116.206 98.0411 116.693C98.0418 116.991 97.9096 117.247 97.7109 117.412C98.1708 117.617 98.4928 118.115 98.4942 118.687C98.496 119.454 97.9383 120.07 97.2412 120.072C96.5495 120.074 95.9835 119.46 95.9817 118.694C95.9806 118.122 96.3001 117.622 96.7536 117.414C96.5595 117.25 96.4316 116.995 96.4309 116.697C96.4294 116.211 96.7827 115.814 97.2308 115.813ZM97.2405 119.78C97.7939 119.778 98.2301 119.291 98.2287 118.688C98.2272 118.092 97.7888 117.6 97.2354 117.602C96.6878 117.603 96.2458 118.098 96.2472 118.694C96.2487 119.296 96.6925 119.782 97.2405 119.78ZM97.2347 117.297C97.5333 117.291 97.7763 117.022 97.7755 116.694C97.7745 116.365 97.5305 116.104 97.2315 116.105C96.9329 116.106 96.695 116.368 96.6961 116.697C96.6968 117.025 96.9358 117.292 97.2347 117.297Z" fill="#F8F8F8"/>
<path d="M104.117 115.793C104.781 115.791 105.319 116.331 105.393 117.031C105.398 117.043 105.398 117.049 105.404 117.061C105.41 117.177 105.416 117.298 105.416 117.426C105.417 117.992 105.308 118.619 105.049 119.125C104.784 119.631 104.331 120.027 103.695 120.054H103.689C103.612 120.054 103.551 119.993 103.551 119.914C103.55 119.828 103.606 119.762 103.683 119.755C104.22 119.729 104.574 119.424 104.811 118.98C104.943 118.724 105.036 118.431 105.085 118.127C104.854 118.42 104.511 118.597 104.123 118.598C103.42 118.6 102.843 117.981 102.842 117.196C102.84 116.423 103.414 115.795 104.117 115.793ZM105.133 117.189C105.132 116.581 104.682 116.09 104.118 116.091C103.564 116.093 103.112 116.587 103.113 117.195C103.115 117.816 103.57 118.301 104.123 118.3C104.688 118.298 105.135 117.81 105.133 117.189Z" fill="#F8F8F8"/>
<path d="M106.389 117.916C106.387 117.344 106.519 116.821 106.756 116.424C106.993 116.046 107.33 115.784 107.723 115.783C108.116 115.782 108.454 116.043 108.693 116.419C108.927 116.814 109.072 117.336 109.073 117.908C109.074 118.48 108.932 119.004 108.7 119.394C108.463 119.778 108.126 120.04 107.733 120.042C107.34 120.043 107.002 119.782 106.763 119.4C106.524 119.011 106.39 118.488 106.389 117.916ZM106.66 117.916C106.662 118.439 106.79 118.907 106.99 119.235C107.19 119.557 107.456 119.745 107.733 119.744C108.009 119.743 108.269 119.554 108.473 119.231C108.672 118.902 108.803 118.433 108.802 117.91C108.801 117.386 108.667 116.918 108.467 116.59C108.261 116.256 108.001 116.08 107.724 116.081C107.447 116.082 107.182 116.259 106.984 116.594C106.785 116.924 106.659 117.392 106.66 117.916Z" fill="#F8F8F8"/>
<path d="M110.86 116.206L110.313 116.561C110.296 116.573 110.268 116.585 110.247 116.585C110.197 116.585 110.152 116.555 110.13 116.513C110.091 116.434 110.113 116.348 110.179 116.311L110.925 115.811C110.986 115.774 111.075 115.798 111.108 115.865C111.125 115.901 111.131 115.938 111.125 115.974L111.134 119.887C111.134 119.966 111.079 120.033 111.002 120.033C110.93 120.033 110.868 119.967 110.868 119.888L110.86 116.206Z" fill="#F8F8F8"/>
<path d="M112.085 119.768L113.891 117.968C114.106 117.748 114.222 117.456 114.221 117.152C114.22 116.89 114.131 116.629 113.959 116.422C113.765 116.186 113.493 116.065 113.222 116.066C112.978 116.067 112.74 116.159 112.547 116.348L112.359 116.537C112.304 116.598 112.216 116.592 112.171 116.531C112.116 116.471 112.121 116.373 112.176 116.324L112.364 116.129C112.607 115.891 112.916 115.769 113.221 115.768C113.559 115.767 113.902 115.912 114.152 116.221C114.379 116.488 114.485 116.823 114.486 117.152C114.487 117.529 114.35 117.907 114.074 118.187L112.528 119.731L114.36 119.726C114.431 119.725 114.492 119.792 114.493 119.878C114.493 119.957 114.432 120.023 114.36 120.024L112.202 120.03L112.18 120.03C112.141 120.03 112.102 120.018 112.08 119.987C112.03 119.92 112.03 119.829 112.085 119.768Z" fill="#F8F8F8"/>
<path d="M121.005 116.013L120.006 117.147C120.249 117.202 120.482 117.328 120.671 117.535C120.926 117.814 121.054 118.185 121.055 118.556C121.056 118.927 120.93 119.298 120.67 119.579C120.416 119.86 120.079 120.007 119.741 120.007C119.409 120.009 119.071 119.87 118.816 119.584C118.761 119.53 118.76 119.432 118.815 119.371C118.865 119.31 118.954 119.31 119.009 119.371C119.214 119.589 119.475 119.698 119.74 119.697C120.006 119.697 120.272 119.586 120.475 119.367C120.68 119.141 120.779 118.849 120.778 118.556C120.778 118.265 120.677 117.973 120.472 117.754C120.272 117.53 120.006 117.421 119.74 117.422C119.696 117.422 119.657 117.398 119.629 117.362H119.624C119.568 117.301 119.568 117.204 119.624 117.142L120.584 116.051L119.101 116.055C119.024 116.055 118.962 115.988 118.962 115.903C118.962 115.818 119.023 115.751 119.1 115.751L120.91 115.746C120.987 115.745 121.049 115.812 121.049 115.897C121.049 115.921 121.043 115.945 121.032 115.964C121.027 115.982 121.016 116.001 121.005 116.013Z" fill="#F8F8F8"/>
<path d="M124.264 119.119L122.167 119.124H122.161H122.15C122.122 119.125 122.089 119.119 122.067 119.094C122.006 119.046 122 118.949 122.05 118.887L124.284 115.815L124.289 115.809C124.339 115.742 124.417 115.736 124.478 115.79C124.5 115.808 124.511 115.839 124.522 115.863C124.522 115.875 124.527 115.881 124.528 115.887V115.905L124.534 118.826L124.795 118.825C124.872 118.825 124.933 118.892 124.934 118.971C124.934 119.05 124.873 119.117 124.795 119.117L124.535 119.118L124.537 119.849C124.537 119.928 124.477 119.994 124.399 119.995C124.327 119.995 124.266 119.928 124.266 119.849L124.264 119.119ZM124.263 118.827L124.258 116.332L122.432 118.832L124.263 118.827Z" fill="#F8F8F8"/>
<path d="M125.802 119.571C125.746 119.51 125.746 119.413 125.801 119.358C125.856 119.297 125.945 119.297 126 119.357C126.206 119.576 126.466 119.685 126.732 119.684C126.997 119.683 127.257 119.573 127.462 119.347C127.666 119.122 127.765 118.836 127.764 118.544C127.763 118.245 127.663 117.954 127.463 117.735C127.264 117.517 126.997 117.408 126.732 117.408C126.46 117.409 126.201 117.519 125.997 117.745C125.941 117.806 125.853 117.807 125.803 117.746C125.786 117.733 125.775 117.715 125.769 117.697V117.692C125.764 117.686 125.764 117.679 125.764 117.673C125.758 117.661 125.758 117.643 125.758 117.624C125.758 117.618 125.764 117.606 125.764 117.594L125.948 115.878C125.948 115.829 125.97 115.792 126.003 115.768C126.025 115.744 126.058 115.731 126.091 115.731L127.896 115.726C127.973 115.726 128.034 115.792 128.034 115.878C128.034 115.969 127.974 116.03 127.896 116.031L126.208 116.035L126.073 117.301C126.271 117.173 126.499 117.105 126.731 117.105C127.068 117.104 127.401 117.236 127.656 117.521C127.917 117.8 128.039 118.166 128.04 118.542C128.041 118.907 127.92 119.285 127.661 119.566C127.407 119.84 127.064 119.987 126.732 119.988C126.395 119.989 126.057 119.85 125.802 119.571Z" fill="#F8F8F8"/>
<path d="M129.484 116.652C129.749 116.134 130.196 115.749 130.838 115.723C130.91 115.717 130.971 115.784 130.977 115.863C130.977 115.948 130.916 116.015 130.844 116.021C130.302 116.047 129.96 116.352 129.717 116.797C129.585 117.047 129.497 117.345 129.442 117.65C129.674 117.357 130.017 117.167 130.399 117.166C131.113 117.164 131.684 117.795 131.686 118.568C131.688 119.346 131.119 119.975 130.405 119.977C129.714 119.979 129.148 119.378 129.124 118.624C129.113 118.533 129.113 118.442 129.112 118.344C129.116 117.779 129.22 117.157 129.484 116.652ZM129.395 118.599C129.395 118.63 129.401 118.654 129.406 118.678C129.406 118.696 129.406 118.708 129.401 118.721C129.469 119.262 129.896 119.681 130.405 119.679C130.969 119.678 131.422 119.178 131.421 118.569C131.419 117.961 130.964 117.463 130.399 117.464C129.846 117.466 129.394 117.966 129.395 118.574V118.599Z" fill="#F8F8F8"/>
<path d="M105.48 127.354L71.6919 127.45L71.6962 129.276L105.484 129.179L105.48 127.354Z" fill="#A6A6A6"/>
<path d="M95.6219 131.436L71.7014 131.504L71.7057 133.329L95.6262 133.261L95.6219 131.436Z" fill="#A6A6A6"/>
<path d="M117.667 96.7891L100.815 96.8373L100.819 98.6627L117.671 98.6145L117.667 96.7891Z" fill="#A6A6A6"/>
<path d="M138.868 101.706H63.6486V142.233H138.868V101.706Z" fill="#77B954"/>
<path opacity="0.2" d="M138.868 101.706H63.6486V142.233H138.868V101.706Z" fill="black"/>
<path d="M138.868 108.908H63.6488V149.434H138.868V108.908Z" fill="#77B954"/>
<path opacity="0.3" d="M138.868 108.908H63.6488V149.434H138.868V108.908Z" fill="black"/>
<path d="M138.868 116.332H63.6488V149.434H138.868V116.332Z" fill="#77B954"/>
<path opacity="0.2" d="M138.868 116.332H63.6488V149.434H138.868V116.332Z" fill="black"/>
<path d="M136.545 168.227L58.176 155.961V85.2406L60.6896 87.2896C61.8985 88.2747 63.3247 88.8874 64.821 89.0636L136.545 97.5063V168.227Z" fill="#77B954"/>
<path d="M58.2828 88.2775L58.0614 88.5886L58.6275 89.0753L58.8489 88.7641L58.2828 88.2775Z" fill="white"/>
<path d="M131.463 100.674L130.013 100.496L130.053 100.103L131.503 100.281L131.463 100.674ZM128.926 100.362L127.477 100.185L127.517 99.792L128.966 99.9697L128.926 100.362ZM126.391 100.051L124.941 99.8729L124.981 99.4803L126.43 99.6585L126.391 100.051ZM123.854 99.7394L122.405 99.5617L122.445 99.169L123.894 99.3468L123.854 99.7394ZM121.318 99.4282L119.868 99.25L119.908 98.8574L121.358 99.0355L121.318 99.4282ZM118.782 99.1165L117.332 98.9387L117.372 98.5461L118.822 98.7238L118.782 99.1165ZM116.245 98.8052L114.796 98.6271L114.836 98.2344L116.285 98.4126L116.245 98.8052ZM113.71 98.4935L112.26 98.3158L112.3 97.9231L113.749 98.1009L113.71 98.4935ZM111.173 98.1823L109.724 98.0041L109.764 97.6115L111.213 97.7896L111.173 98.1823ZM108.637 97.8702L107.187 97.6924L107.227 97.2998L108.677 97.4776L108.637 97.8702ZM106.101 97.5589L104.652 97.3808L104.691 96.9881L106.141 97.1663L106.101 97.5589ZM103.565 97.2473L102.115 97.0695L102.155 96.6768L103.604 96.8546L103.565 97.2473ZM101.029 96.936L99.5794 96.7578L99.6193 96.3652L101.069 96.5433L101.029 96.936ZM98.492 96.6243L97.0431 96.4466L97.083 96.0539L98.5319 96.2317L98.492 96.6243ZM95.9558 96.313L94.5065 96.1349L94.5464 95.7422L95.9957 95.9204L95.9558 96.313ZM93.4199 96.0014L91.9706 95.8236L92.0105 95.431L93.4597 95.6087L93.4199 96.0014ZM90.8836 95.6901L89.4344 95.5119L89.4742 95.1193L90.9235 95.2974L90.8836 95.6901ZM88.347 95.3784L86.8981 95.2007L86.938 94.808L88.3869 94.9858L88.347 95.3784ZM85.8111 95.0671L84.3618 94.889L84.4017 94.4964L85.851 94.6745L85.8111 95.0671ZM83.2748 94.7555L81.8256 94.5777L81.8655 94.1851L83.3147 94.3628L83.2748 94.7555ZM80.7389 94.4442L79.2897 94.2661L79.3296 93.8734L80.7788 94.0516L80.7389 94.4442ZM78.2023 94.1321L76.7531 93.9544L76.7929 93.5617L78.2422 93.7395L78.2023 94.1321ZM75.6664 93.8209L74.2172 93.6427L74.257 93.2501L75.7063 93.4282L75.6664 93.8209ZM73.1301 93.5092L71.6809 93.3314L71.7208 92.9388L73.17 93.1166L73.1301 93.5092ZM70.5939 93.1979L69.1446 93.0198L69.1845 92.6271L70.6338 92.8053L70.5939 93.1979ZM68.0576 92.8867L66.6084 92.7085L66.6483 92.3158L68.0975 92.494L68.0576 92.8867ZM65.5214 92.575L64.6579 92.4691C64.4581 92.4442 64.2597 92.4122 64.0628 92.3727L64.1275 91.9844C64.3161 92.0223 64.5066 92.0532 64.6981 92.0765L65.5616 92.1827L65.5214 92.575ZM62.9801 92.0741C62.5082 91.9078 62.0469 91.6949 61.6085 91.4421L61.7755 91.0921C62.1956 91.3346 62.638 91.5381 63.09 91.6976L62.9801 92.0741ZM60.6555 90.8025C60.5354 90.7097 60.4176 90.6137 60.3019 90.5142L59.493 89.8185L59.7143 89.5073L60.5232 90.2029C60.6343 90.2985 60.7475 90.3905 60.8624 90.4798L60.6555 90.8025Z" fill="white"/>
<path d="M133.465 101.489H133.105V100.876L132.55 100.808L132.591 100.415L133.465 100.522V101.489Z" fill="white"/>
<path d="M133.465 163.043H133.105V161.444H133.465V163.043ZM133.465 160.245H133.105V158.646H133.465V160.245ZM133.465 157.447H133.105V155.848H133.465V157.447ZM133.465 154.649H133.105V153.05H133.465V154.649ZM133.465 151.851H133.105V150.252H133.465V151.851ZM133.465 149.053H133.105V147.454H133.465V149.053ZM133.465 146.256H133.105V144.657H133.465V146.256ZM133.465 143.458H133.105V141.859H133.465V143.458ZM133.465 140.66H133.105V139.061H133.465V140.66ZM133.465 137.862H133.105V136.263H133.465V137.862ZM133.465 135.064H133.105V133.465H133.465V135.064ZM133.465 132.266H133.105V130.667H133.465V132.266ZM133.465 129.468H133.105V127.869H133.465V129.468ZM133.465 126.67H133.105V125.072H133.465V126.67ZM133.465 123.872H133.105V122.274H133.465V123.872ZM133.465 121.074H133.105V119.476H133.465V121.074ZM133.465 118.276H133.105V116.678H133.465V118.276ZM133.465 115.478H133.105V113.88H133.465V115.478ZM133.465 112.681H133.105V111.082H133.465V112.681ZM133.465 109.883H133.105V108.284H133.465V109.883ZM133.465 107.085H133.105V105.486H133.465V107.085ZM133.465 104.287H133.105V102.688H133.465V104.287Z" fill="white"/>
<path d="M133.464 165.261L132.547 165.111L132.6 164.721L133.105 164.803V164.242H133.464V165.261Z" fill="white"/>
<path d="M131.475 164.936L130.044 164.702L130.096 164.312L131.527 164.546L131.475 164.936ZM128.971 164.527L127.54 164.294L127.592 163.903L129.023 164.137L128.971 164.527ZM126.466 164.118L125.036 163.885L125.088 163.494L126.519 163.728L126.466 164.118ZM123.963 163.71L122.532 163.476L122.584 163.085L124.015 163.319L123.963 163.71ZM121.459 163.301L120.028 163.067L120.081 162.677L121.511 162.91L121.459 163.301ZM118.955 162.892L117.524 162.658L117.576 162.268L119.007 162.502L118.955 162.892ZM116.451 162.483L115.02 162.25L115.072 161.859L116.503 162.093L116.451 162.483ZM113.947 162.074L112.517 161.841L112.569 161.45L114 161.684L113.947 162.074ZM111.443 161.665L110.013 161.431L110.065 161.041L111.496 161.275L111.443 161.665ZM108.939 161.256L107.508 161.023L107.561 160.632L108.992 160.866L108.939 161.256ZM106.435 160.848L105.004 160.614L105.057 160.223L106.488 160.457L106.435 160.848ZM103.931 160.439L102.501 160.205L102.554 159.815L103.984 160.048L103.931 160.439ZM101.428 160.03L99.9966 159.796L100.049 159.406L101.48 159.64L101.428 160.03ZM98.9236 159.621L97.4927 159.388L97.5451 158.997L98.9764 159.231L98.9236 159.621ZM96.4193 159.213L94.9888 158.979L95.0416 158.589L96.4721 158.822L96.4193 159.213ZM93.9158 158.803L92.4848 158.57L92.5377 158.179L93.9682 158.413L93.9158 158.803ZM91.4118 158.395L89.9809 158.161L90.0334 157.771L91.4647 158.004L91.4118 158.395ZM88.9079 157.986L87.477 157.752L87.5295 157.362L88.9604 157.595L88.9079 157.986ZM86.4036 157.577L84.9731 157.343L85.0259 156.953L86.4565 157.187L86.4036 157.577ZM83.8997 157.168L82.4688 156.935L82.5216 156.544L83.9525 156.778L83.8997 157.168ZM81.3958 156.759L79.9652 156.525L80.0184 156.135L81.449 156.369L81.3958 156.759ZM78.8919 156.35L77.461 156.117L77.5138 155.727L78.9447 155.96L78.8919 156.35ZM76.388 155.941L74.9574 155.708L75.0099 155.318L76.4404 155.551L76.388 155.941ZM73.884 155.533L72.4531 155.299L72.5059 154.909L73.9369 155.143L73.884 155.533ZM71.3801 155.124L69.9492 154.89L70.0024 154.5L71.4329 154.734L71.3801 155.124ZM68.8762 154.715L67.4453 154.482L67.4981 154.091L68.929 154.325L68.8762 154.715ZM66.3723 154.307L64.9417 154.073L64.9942 153.683L66.4248 153.916L66.3723 154.307ZM63.8684 153.897L62.4375 153.664L62.4899 153.274L63.9208 153.507L63.8684 153.897ZM61.3644 153.489L59.9335 153.255L59.9867 152.865L61.4173 153.099L61.3644 153.489Z" fill="white"/>
<path d="M58.1979 152.579L58.1451 152.969L58.8559 153.085L58.9087 152.695L58.1979 152.579Z" fill="white"/>
<path d="M126.441 136.358C128.167 136.358 129.565 134.607 129.565 132.447C129.565 130.287 128.167 128.535 126.441 128.535C124.716 128.535 123.317 130.287 123.317 132.447C123.317 134.607 124.716 136.358 126.441 136.358Z" fill="#EBEBEB"/>
<path d="M127.894 132.447C127.894 133.452 127.244 134.266 126.441 134.266C125.639 134.266 124.988 133.452 124.988 132.447C124.988 131.442 125.639 130.628 126.441 130.628C127.244 130.628 127.894 131.442 127.894 132.447Z" fill="#DBDBDB"/>
</svg>
