<svg width="20" height="20" viewBox="0 0 20 20" fill="none" xmlns="http://www.w3.org/2000/svg">
<path d="M5.44948 4.37262C4.6986 5.0401 4.16667 6.05934 4.16667 7.50006C4.16667 7.96029 3.79357 8.33342 3.33333 8.33342C2.8731 8.33342 2.5 7.96029 2.5 7.50006C2.5 5.60713 3.21807 4.12622 4.34218 3.12696C5.45097 2.14133 6.90578 1.66643 8.33333 1.66647C9.76092 1.6665 11.2157 2.14148 12.3245 3.12712C13.4486 4.12638 14.1667 5.60727 14.1667 7.50008V10H16.6667C17.1269 10 17.5 10.3731 17.5 10.8333C17.5 11.2936 17.1269 11.6667 16.6667 11.6667H14.1667V13.3333H16.6667C17.1269 13.3333 17.5 13.7064 17.5 14.1667C17.5 14.6269 17.1269 15 16.6667 15H14.1667V17.5C14.1667 17.9602 13.7936 18.3333 13.3333 18.3333C12.8731 18.3333 12.5 17.9602 12.5 17.5V15H10C9.53975 15 9.16667 14.6269 9.16667 14.1667C9.16667 13.7064 9.53975 13.3333 10 13.3333H12.5V11.6667H10C9.53975 11.6667 9.16667 11.2936 9.16667 10.8333C9.16667 10.3731 9.53975 10 10 10H12.5V7.50008C12.5 6.05951 11.9681 5.04028 11.2172 4.37277C10.4509 3.69162 9.40575 3.33316 8.33331 3.33313C7.26088 3.3331 6.2157 3.69151 5.44948 4.37262Z" fill="#9798A2"/>
</svg>
