<svg width="167" height="190" viewBox="0 0 167 190" fill="none" xmlns="http://www.w3.org/2000/svg">
<path d="M4.02411 144.67L23.7916 144.575L43.5586 144.541L83.0931 144.475L122.628 144.54L142.395 144.575L162.162 144.67L142.395 144.766L122.628 144.801L83.0931 144.866L43.5586 144.8L23.7916 144.765L4.02411 144.67Z" fill="#263238"/>
<path d="M144.245 15H82.8168C79.3868 15 76.6032 17.9443 76.6032 21.5837V153.113C76.6032 156.745 79.3864 159.697 82.8168 159.697H144.245C147.675 159.697 150.466 156.745 150.466 153.113V21.5841C150.466 17.9443 147.676 15 144.245 15ZM146.578 149.047C146.578 152.509 144.086 155.309 141.012 155.309H86.0578C82.9764 155.309 80.4838 152.509 80.4838 149.047V26.569C80.4838 19.5165 82.9764 19.1723 86.0578 19.1723H97.0675C97.7071 19.1723 98.2304 19.9281 98.2304 20.8656V21.2701C98.2304 23.4661 99.3858 23.4735 100.803 23.4735H126.259C127.691 23.4735 128.839 23.4661 128.839 21.2701V20.8656C128.839 19.9281 129.355 19.1723 130.006 19.1723H141.012C144.085 19.1723 146.578 20.1098 146.578 26.569V149.047Z" fill="#263238"/>
<path d="M146.582 26.6767V149.154C146.582 152.616 144.09 155.417 141.016 155.417H86.0615C82.9801 155.417 80.4875 152.616 80.4875 149.154V26.6767C80.4875 19.6243 82.9801 19.2805 86.0615 19.2805H97.0712C97.7108 19.2805 98.2338 20.0362 98.2338 20.9737V21.3782C98.2338 23.5742 99.3891 23.5816 100.807 23.5816H126.263C127.695 23.5816 128.843 23.5742 128.843 21.3782V20.9737C128.843 20.0362 129.359 19.2805 130.009 19.2805H141.015C144.089 19.2805 146.582 20.2175 146.582 26.6767Z" fill="white"/>
<path d="M146.582 26.6781V37.7897H80.4875V26.6781C80.4875 19.6256 82.9801 19.2818 86.0615 19.2818H97.0712C97.7108 19.2818 98.2338 20.0376 98.2338 20.975V21.3795C98.2338 23.5755 99.3891 23.583 100.806 23.583H126.263C127.694 23.583 128.843 23.5755 128.843 21.3795V20.975C128.843 20.0376 129.359 19.2818 130.009 19.2818H141.015C144.089 19.2818 146.582 20.2189 146.582 26.6781Z" fill="#77B954"/>
<path d="M117.005 20.7309H110.061C109.825 20.7309 109.633 20.5312 109.633 20.2849C109.633 20.0386 109.825 19.8389 110.061 19.8389H117.005C117.242 19.8389 117.434 20.0386 117.434 20.2849C117.434 20.5312 117.242 20.7309 117.005 20.7309Z" fill="white"/>
<path d="M92.1191 102.761C92.1895 102.764 92.2603 102.77 92.3307 102.77C95.6104 102.77 98.8902 102.77 102.17 102.77C102.263 102.77 102.356 102.77 102.461 102.77C102.461 106.36 102.461 109.921 102.461 113.512C102.378 113.516 102.295 113.524 102.211 113.524C98.9316 113.525 95.6515 113.525 92.3717 113.523C92.2874 113.523 92.203 113.5 92.1187 113.488C92.1191 109.912 92.1191 106.337 92.1191 102.761ZM93.628 111.961C96.0878 111.961 98.5329 111.961 100.979 111.961C100.979 109.402 100.979 106.866 100.979 104.325C98.5194 104.325 96.0788 104.325 93.628 104.325C93.628 106.88 93.628 109.416 93.628 111.961Z" fill="#263238"/>
<path d="M92.1191 69.0079C95.5178 69.0067 98.9165 69.0055 102.315 69.0048C102.36 69.0048 102.406 69.0134 102.463 69.0192C102.463 72.5921 102.463 76.1532 102.463 79.7287C102.382 79.7342 102.313 79.7424 102.244 79.7424C98.932 79.7432 95.6202 79.7428 92.3081 79.7424C92.2452 79.7424 92.1823 79.7369 92.1191 79.7338C92.1191 76.159 92.1191 72.5835 92.1191 69.0079ZM100.982 70.5476C98.5254 70.5476 96.0836 70.5476 93.6295 70.5476C93.6295 73.1031 93.6295 75.646 93.6295 78.1996C96.087 78.1996 98.5284 78.1996 100.982 78.1996C100.982 75.6437 100.982 73.0988 100.982 70.5476Z" fill="#263238"/>
<path d="M92.1191 93.5603C92.1191 91.0017 92.1191 88.4431 92.1191 85.8845C93.1153 85.8829 94.1114 85.8814 95.1075 85.8794C95.1068 86.39 95.106 86.9006 95.1053 87.4113C94.6189 87.4113 94.1325 87.4113 93.6306 87.4113C93.6306 88.4537 93.6306 89.4624 93.6306 90.4829C94.6128 90.4829 95.5773 90.4829 96.5656 90.4829C96.5656 89.9558 96.5656 89.4424 96.5656 88.9291C97.0497 88.9291 97.5338 88.9291 98.033 88.9291C98.033 90.5107 98.033 92.0371 98.033 93.5631L98.0394 93.5564C97.5545 93.5564 97.0697 93.5564 96.5614 93.5564C96.5614 93.0376 96.5614 92.543 96.5614 92.0508C95.5672 92.0508 94.597 92.0508 93.6318 92.0508C93.6318 92.5685 93.6318 93.0658 93.6318 93.5635L93.6423 93.5553C93.1345 93.5572 92.627 93.5588 92.1191 93.5603Z" fill="#263238"/>
<path d="M92.1191 81.3087C92.1967 81.2993 92.2742 81.2821 92.3518 81.2821C94.6591 81.2805 96.9665 81.2809 99.2739 81.2813C99.3435 81.2813 99.4132 81.2887 99.4979 81.2934C99.4979 81.817 99.4979 82.3288 99.4979 82.841L99.5069 82.8308C99.0231 82.8308 98.5394 82.8308 98.0296 82.8308C98.0296 83.3543 98.0296 83.8481 98.0296 84.3635C97.524 84.3635 97.0452 84.3635 96.5663 84.3635C96.5663 83.8583 96.5663 83.3532 96.5663 82.8363C96.0671 82.8363 95.592 82.8363 95.1079 82.8363C95.1079 83.3555 95.1079 83.8599 95.1079 84.3646C94.1118 84.3627 93.1156 84.3611 92.1195 84.3592C92.1191 83.3426 92.1191 82.3256 92.1191 81.3087Z" fill="#263238"/>
<path d="M93.6407 95.0792C93.6313 95.1838 93.6143 95.2887 93.6143 95.3933C93.6128 97.2326 93.6132 99.0718 93.6132 100.911C93.6132 101.008 93.6132 101.105 93.6132 101.236C93.1027 101.236 92.611 101.236 92.1194 101.236C92.1194 99.1854 92.1194 97.1354 92.1194 95.0855C92.6261 95.0835 93.1336 95.0816 93.6407 95.0792Z" fill="#263238"/>
<path d="M129.038 98.1842C129.043 98.2903 129.051 98.3964 129.051 98.5022C129.052 100.329 129.052 102.156 129.052 103.982C129.052 104.079 129.052 104.175 129.052 104.303C129.552 104.303 130.028 104.303 130.534 104.303C130.534 104.829 130.534 105.324 130.534 105.844C131.53 105.844 132.495 105.844 133.487 105.844C133.487 106.364 133.487 106.86 133.487 107.373C133.982 107.373 134.452 107.373 134.942 107.373C134.942 107.885 134.942 108.38 134.942 108.901C134.477 108.901 134.001 108.901 133.495 108.901C133.495 109.937 133.495 110.947 133.495 111.944C132.989 111.944 132.515 111.944 132.039 111.944C132.039 111.452 132.039 110.959 132.039 110.446C131.863 110.446 131.747 110.448 131.63 110.446C131.279 110.438 130.928 110.428 130.577 110.419C130.563 110.089 130.542 109.759 130.538 109.429C130.536 109.263 130.564 109.096 130.578 108.929C131.052 108.928 131.527 108.928 132 108.928C132 108.384 132 107.897 132 107.397C131.512 107.397 131.036 107.397 130.535 107.397C130.535 107.808 130.532 108.207 130.537 108.605C130.539 108.715 130.568 108.824 130.583 108.934C130.063 108.933 129.542 108.932 129.021 108.931C129.022 108.421 129.022 107.911 129.022 107.401C128.543 107.401 128.068 107.401 127.595 107.401C127.595 107.913 127.595 108.407 127.595 108.925C128.084 108.925 128.556 108.925 129.027 108.925C129.027 109.425 129.027 109.925 129.027 110.417C129.582 110.417 130.081 110.417 130.579 110.417C130.579 110.932 130.579 111.447 130.579 111.984C130.846 111.984 131.119 111.99 131.392 111.982C131.609 111.976 131.826 111.954 132.043 111.939C132.033 112.332 132.023 112.724 132.014 113.116C132.011 113.238 132.014 113.36 132.014 113.503C131.522 113.503 131.047 113.503 130.541 113.503C130.541 113.006 130.541 112.511 130.541 111.993C129.055 111.993 127.6 111.993 126.118 111.993C126.118 111.475 126.118 110.98 126.118 110.465C125.127 110.465 124.162 110.465 123.162 110.465C123.162 110.956 123.162 111.45 123.162 111.938C122.63 111.938 122.132 111.938 121.635 111.938L121.637 111.94C121.637 111.453 121.637 110.965 121.637 110.451C120.679 110.451 119.713 110.451 118.725 110.451C118.725 109.411 118.725 108.397 118.725 107.384L118.719 107.39C119.292 107.388 119.866 107.382 120.439 107.384C120.839 107.385 121.238 107.397 121.639 107.403C121.639 107.898 121.639 108.394 121.639 108.9C123.157 108.9 124.62 108.9 126.09 108.9C126.09 108.392 126.09 107.897 126.09 107.393C126.03 107.389 125.984 107.383 125.938 107.383C124.566 107.383 123.193 107.382 121.82 107.384C121.758 107.384 121.696 107.399 121.634 107.408C121.634 106.897 121.634 106.387 121.634 105.848C121.166 105.848 120.691 105.848 120.193 105.848C120.193 105.324 120.193 104.83 120.193 104.308C120.084 104.308 120 104.308 119.915 104.308C119.246 104.308 118.578 104.31 117.909 104.307C117.69 104.305 117.471 104.291 117.252 104.283L117.257 104.288C117.256 103.778 117.254 103.268 117.253 102.757C118.227 102.757 119.201 102.757 120.202 102.757C120.202 102.241 120.202 101.746 120.202 101.224C120.704 101.224 121.181 101.224 121.676 101.224C121.676 100.708 121.676 100.218 121.676 99.7035C123.158 99.7035 124.621 99.7035 126.109 99.7035C126.109 99.1792 126.109 98.6807 126.109 98.1826L126.103 98.1893C127.083 98.1893 128.063 98.1889 129.043 98.1889L129.038 98.1842ZM127.56 105.835C127.56 104.289 127.56 102.77 127.56 101.252C126.086 101.252 124.631 101.252 123.169 101.252C123.169 102.785 123.169 104.303 123.169 105.835C124.64 105.835 126.094 105.835 127.56 105.835Z" fill="#263238"/>
<path d="M102.509 99.732C102.498 99.3816 102.486 99.0315 102.477 98.681C102.473 98.5264 102.476 98.3717 102.476 98.1731C102.142 98.1731 101.823 98.1731 101.503 98.1731C100.997 98.1731 100.997 98.1731 100.998 97.6437C100.998 97.3402 101 97.0371 101.002 96.7337C101.002 96.7106 101.014 96.6875 101.031 96.6307C101.499 96.6307 101.975 96.6307 102.492 96.6307C102.492 96.0911 102.492 95.5852 102.492 95.0792L102.483 95.089C103.374 95.091 104.264 95.0937 105.155 95.0937C105.248 95.0937 105.341 95.0769 105.434 95.0683C105.433 95.5824 105.433 96.0962 105.433 96.6389C104.919 96.6389 104.442 96.6389 103.969 96.6389C103.969 97.164 103.969 97.6594 103.969 98.159C105.441 98.159 106.897 98.159 108.367 98.159C108.367 97.6496 108.367 97.155 108.367 96.6299C107.877 96.6299 107.4 96.6299 106.894 96.6299C106.894 96.1056 106.894 95.6106 106.894 95.0757C106.385 95.0757 105.906 95.0757 105.428 95.0757C105.428 93.0469 105.428 91.0177 105.428 88.9372C104.922 88.9372 104.436 88.9372 103.951 88.9372C103.951 88.4399 103.951 87.9426 103.951 87.4171C104.452 87.4171 104.928 87.4171 105.406 87.4171C105.406 85.8703 105.406 84.3525 105.406 82.8312C103.93 82.8312 102.473 82.8312 101.016 82.8312L101.025 82.8414C101.025 82.3363 101.025 81.8307 101.025 81.3036C103.463 81.3036 105.908 81.3036 108.366 81.3036C108.366 81.8061 108.366 82.3006 108.366 82.825C107.875 82.825 107.399 82.825 106.911 82.825C106.911 83.8513 106.911 84.8483 106.911 85.866C107.393 85.866 107.875 85.866 108.377 85.866C108.377 85.3722 108.377 84.8823 108.377 84.3749C109.368 84.3749 110.34 84.3749 111.324 84.3749C111.324 84.8702 111.324 85.3589 111.324 85.8746C110.851 85.8746 110.375 85.8746 109.868 85.8746C109.868 86.9127 109.868 87.9242 109.868 88.9356L109.875 88.9306C109.62 88.9396 109.365 88.9568 109.109 88.9548C108.88 88.9533 108.65 88.9306 108.421 88.9172C108.408 88.815 108.385 88.7128 108.384 88.6102C108.38 88.2194 108.382 87.8282 108.382 87.439C107.87 87.439 107.393 87.439 106.912 87.439C106.912 87.9469 106.912 88.4356 106.912 88.9576C107.182 88.9576 107.441 88.9635 107.698 88.956C107.94 88.949 108.182 88.9282 108.424 88.9137C108.41 89.0261 108.386 89.1381 108.384 89.2505C108.379 89.6577 108.382 90.065 108.382 90.5012C107.875 90.5012 107.398 90.5012 106.913 90.5012C106.913 91.5342 106.913 92.5374 106.913 93.5657C107.404 93.5657 107.881 93.5657 108.392 93.5657C108.392 94.6003 108.392 95.6102 108.392 96.6464C109.393 96.6464 110.358 96.6464 111.317 96.6464C111.317 97.1687 111.317 97.6633 111.317 98.1876C110.822 98.1876 110.346 98.1876 109.868 98.1876C109.868 99.2253 109.868 100.233 109.868 101.24L109.876 101.232C108.911 101.234 107.947 101.236 106.982 101.237C106.944 101.237 106.905 101.224 106.867 101.216L106.872 101.222C106.872 100.727 106.872 100.232 106.872 99.7223C106.826 99.7176 106.773 99.7082 106.721 99.7082C105.369 99.7074 104.017 99.7074 102.666 99.7082C102.612 99.7082 102.558 99.7215 102.504 99.7281L102.509 99.732Z" fill="#263238"/>
<path d="M123.171 87.4065C123.165 87.4798 123.152 87.5526 123.152 87.6258C123.151 89.0116 123.151 90.3975 123.152 91.7833C123.152 91.8557 123.159 91.9282 123.164 92.0292C123.651 92.0292 124.128 92.0292 124.617 92.0292C124.617 92.5465 124.617 93.0352 124.617 93.5544C123.642 93.5544 122.669 93.5544 121.682 93.5544C121.682 94.0733 121.682 94.5616 121.682 95.0855C124.129 95.0855 126.576 95.0855 129.039 95.0855C129.039 95.6173 129.039 96.1142 129.039 96.6111L129.044 96.6072C128.959 96.6154 128.874 96.6311 128.789 96.6311C127.981 96.6331 127.173 96.6319 126.364 96.6327C126.282 96.6327 126.199 96.6409 126.104 96.646C126.104 97.1789 126.104 97.6841 126.104 98.1892L126.111 98.1826C125.135 98.1826 124.16 98.1826 123.154 98.1826C123.154 97.652 123.154 97.157 123.154 96.6311C121.663 96.6311 120.202 96.6311 118.719 96.6311C118.719 96.0927 118.719 95.5864 118.719 95.08C119.204 95.08 119.69 95.08 120.176 95.08C120.176 94.5667 120.176 94.0717 120.176 93.5626C119.679 93.5626 119.199 93.5626 118.719 93.5626C118.719 93.0579 118.719 92.5535 118.719 92.0496C116.735 92.0496 114.779 92.0496 112.808 92.0496C112.808 92.5665 112.808 93.0649 112.808 93.5634C112.323 93.5634 111.838 93.5634 111.328 93.5634C111.328 94.0897 111.328 94.5851 111.328 95.0746C110.827 95.0746 110.351 95.0746 109.879 95.0746C109.879 94.0525 109.879 93.0497 109.879 92.0206C110.372 92.0206 110.848 92.0206 111.318 92.0206C111.318 91.4986 111.318 91.004 111.318 90.4895C110.829 90.4895 110.359 90.4895 109.876 90.4895C109.876 89.9558 109.876 89.4428 109.876 88.9294L109.868 88.9345C109.962 88.9419 110.055 88.9553 110.149 88.9553C111.915 88.9564 113.682 88.956 115.448 88.956C115.542 88.956 115.635 88.956 115.76 88.956C115.76 89.4706 115.76 89.9659 115.76 90.4969C115.882 90.4969 115.974 90.4969 116.065 90.4969C117.343 90.4969 118.62 90.4961 119.898 90.4981C119.99 90.4981 120.083 90.5169 120.176 90.5263C120.176 91.0213 120.176 91.5166 120.176 92.012C120.702 92.012 121.178 92.012 121.648 92.012C121.648 91.4986 121.648 91.0036 121.648 90.5314C121.142 90.5314 120.656 90.5314 120.17 90.5314C120.17 90.0188 120.17 89.5062 120.17 88.965C120.682 88.965 121.157 88.965 121.66 88.965C121.66 88.4266 121.66 87.9156 121.66 87.405L121.654 87.4116C122.161 87.4116 122.669 87.4112 123.176 87.4112L123.171 87.4065Z" fill="#263238"/>
<path d="M124.643 79.7259C124.643 76.1507 124.643 72.5896 124.643 69.0164C128.083 69.0164 131.509 69.0164 134.949 69.0164C134.949 72.5865 134.949 76.1476 134.949 79.7259C131.52 79.7259 128.094 79.7259 124.643 79.7259ZM126.116 78.192C128.584 78.192 131.031 78.192 133.47 78.192C133.47 75.6303 133.47 73.0869 133.47 70.5491C131.009 70.5491 128.568 70.5491 126.116 70.5491C126.116 73.101 126.116 75.6385 126.116 78.192Z" fill="#263238"/>
<path d="M132.021 90.5086C132.021 91.0063 132.021 91.5044 132.021 92.0272C133.004 92.0272 133.969 92.0272 134.948 92.0272C134.948 93.5646 134.948 95.0769 134.948 96.6107C133.983 96.6107 133.019 96.6107 132.025 96.6107C132.025 96.1236 132.025 95.6282 132.025 95.1027C131.521 95.1027 131.045 95.1027 130.541 95.1027C130.541 94.0689 130.541 93.0657 130.541 92.0468C130.037 92.0468 129.56 92.0468 129.056 92.0468C129.056 92.5453 129.056 93.0406 129.056 93.5485C128.559 93.5485 128.088 93.5485 127.592 93.5485C127.592 93.0578 127.592 92.5629 127.592 92.0409C127.09 92.0409 126.614 92.0409 126.112 92.0409C126.112 91.5193 126.112 91.0243 126.112 90.4996C125.61 90.4996 125.134 90.4996 124.645 90.4996C124.645 89.9745 124.645 89.4795 124.645 88.9622C125.128 88.9622 125.598 88.9622 126.095 88.9622C126.095 88.4457 126.095 87.95 126.095 87.4127C126.606 87.4127 127.092 87.4127 127.578 87.4127L127.572 87.4057C127.572 87.9171 127.572 88.4285 127.572 88.9622C128.088 88.9622 128.558 88.9622 129.056 88.9622C129.056 89.4799 129.056 89.9749 129.056 90.4973C129.175 90.4973 129.268 90.4969 129.361 90.4973C130.25 90.5027 131.14 90.5086 132.03 90.5145L132.021 90.5086Z" fill="#263238"/>
<path d="M115.817 108.937C115.8 108.844 115.77 108.751 115.769 108.657C115.764 108.241 115.767 107.825 115.767 107.387C114.776 107.387 113.809 107.387 112.819 107.387C112.819 106.871 112.819 106.375 112.818 105.878C113.3 105.877 113.782 105.877 114.266 105.877C114.266 105.319 114.266 104.825 114.266 104.326C113.774 104.326 113.298 104.326 112.824 104.326C112.824 104.858 112.824 105.372 112.824 105.886C112.339 105.886 111.854 105.886 111.343 105.886C111.343 106.36 111.343 106.855 111.343 107.367C110.842 107.367 110.366 107.367 109.875 107.367C109.875 106.356 109.875 105.352 109.875 104.318C110.353 104.318 110.829 104.318 111.321 104.318C111.321 103.793 111.321 103.298 111.321 102.774C110.84 102.774 110.363 102.774 109.876 102.774C109.876 102.241 109.876 101.736 109.876 101.231L109.868 101.24C111.337 101.237 112.805 101.235 114.274 101.232C114.274 101.737 114.274 102.242 114.274 102.755C114.806 102.755 115.3 102.755 115.794 102.755C115.794 103.265 115.794 103.775 115.794 104.289C116.288 104.289 116.773 104.289 117.258 104.289L117.253 104.283C117.253 104.796 117.253 105.308 117.253 105.848C117.747 105.848 118.222 105.848 118.719 105.848C118.719 106.381 118.719 106.885 118.719 107.39L118.726 107.384C118.241 107.384 117.756 107.384 117.246 107.384C117.246 107.9 117.246 108.394 117.246 108.935C116.752 108.935 116.284 108.935 115.816 108.935L115.817 108.937Z" fill="#263238"/>
<path d="M109.875 75.1555C109.384 75.1551 108.894 75.1551 108.403 75.1547L108.408 75.1625C108.408 74.6507 108.408 74.1393 108.408 73.624C107.869 73.624 107.393 73.624 106.883 73.624C106.883 74.1495 106.883 74.6562 106.883 75.1629L106.889 75.1551C105.92 75.1551 104.952 75.1551 103.968 75.1551C103.968 74.6284 103.968 74.1327 103.968 73.6068C104.445 73.6068 104.921 73.6068 105.409 73.6068C105.409 73.0821 105.409 72.5871 105.409 72.0718C104.925 72.0718 104.455 72.0718 103.968 72.0718C103.968 71.5564 103.968 71.0611 103.968 70.5391C104.445 70.5391 104.921 70.5391 105.415 70.5391C105.415 70.0238 105.415 69.5351 105.415 69.0248C105.909 69.0248 106.384 69.0248 106.888 69.0248C106.888 70.0206 106.888 71.0239 106.888 72.0467C107.391 72.0467 107.868 72.0467 108.374 72.0467C108.374 71.5545 108.374 71.0591 108.374 70.5493C109.37 70.5493 110.337 70.5493 111.32 70.5493C111.32 71.0458 111.32 71.5404 111.32 72.0647C110.84 72.0647 110.364 72.0647 109.869 72.0647C109.869 73.1165 109.869 74.1386 109.869 75.161C109.869 75.1618 109.875 75.1555 109.875 75.1555Z" fill="#263238"/>
<path d="M111.342 78.212C111.342 77.7139 111.342 77.2158 111.342 76.6903C110.849 76.6903 110.374 76.6903 109.875 76.6903C109.875 76.1609 109.875 75.6585 109.875 75.1557L109.87 75.1619C109.908 75.1568 109.947 75.147 109.986 75.147C111.858 75.1463 113.729 75.1459 115.602 75.1474C115.671 75.1474 115.74 75.1678 115.81 75.1784L115.805 75.1745C115.805 75.6671 115.805 76.1597 115.805 76.6809C116.27 76.6809 116.746 76.6809 117.232 76.6809C117.232 77.7108 117.232 78.7124 117.232 79.7309C116.742 79.7309 116.265 79.7309 115.788 79.7309L115.791 79.7364C115.791 79.2328 115.791 78.7289 115.791 78.2276C115.256 78.2276 114.78 78.2276 114.27 78.2276C114.27 78.7418 114.27 79.2391 114.27 79.7368L114.275 79.7309C113.784 79.7306 113.293 79.7302 112.802 79.7302L112.809 79.7376C112.809 79.2332 112.809 78.7293 112.809 78.2057C112.294 78.2057 111.815 78.2057 111.335 78.2057L111.342 78.212Z" fill="#263238"/>
<path d="M117.259 72.0601C117.259 71.5624 117.259 71.0647 117.259 70.5372C116.252 70.5372 115.28 70.5372 114.296 70.5372C114.296 70.0191 114.296 69.5308 114.296 69.0233C117.242 69.0233 120.184 69.0233 123.137 69.0233C123.137 70.0352 123.137 71.0392 123.137 72.0522C122.646 72.0522 122.17 72.0522 121.673 72.0522C121.673 71.5486 121.673 71.0596 121.673 70.5528C120.688 70.5528 119.723 70.5528 118.719 70.5528C118.719 71.0517 118.719 71.5557 118.719 72.0601L118.726 72.0542C118.235 72.0546 117.744 72.0546 117.253 72.055L117.259 72.0601Z" fill="#263238"/>
<path d="M127.57 82.8403C128.056 82.8403 128.541 82.8403 129.047 82.8403C129.047 82.3026 129.047 81.8131 129.047 81.3025C129.542 81.3025 130.019 81.3025 130.527 81.3025C130.527 81.7936 130.527 82.2885 130.527 82.8023C131.033 82.8023 131.508 82.8023 132.012 82.8023C132.012 82.2991 132.012 81.8037 132.012 81.2966C132.517 81.2966 132.994 81.2966 133.487 81.2966C133.487 81.8018 133.487 82.292 133.487 82.8109C133.979 82.8109 134.455 82.8109 134.947 82.8109C134.947 83.3348 134.947 83.8298 134.947 84.3561C132.486 84.3561 130.028 84.3561 127.571 84.3561L127.578 84.3631C127.578 83.8525 127.578 83.3419 127.578 82.8312L127.57 82.8403Z" fill="#263238"/>
<path d="M121.66 85.8871C121.654 85.3831 121.648 84.8788 121.641 84.3748L121.636 84.3799C122.029 84.3717 122.423 84.363 122.816 84.3556C122.917 84.3536 123.018 84.3552 123.146 84.3552C123.146 83.3316 123.146 82.3272 123.146 81.3016C123.647 81.3016 124.122 81.3016 124.626 81.3016C124.626 81.8017 124.626 82.2967 124.626 82.8394C125.14 82.8394 125.626 82.8394 126.112 82.8394L126.104 82.8308C126.104 83.3414 126.104 83.852 126.104 84.3627L126.111 84.3556C125.625 84.3556 125.139 84.3556 124.628 84.3556C124.628 85.3847 124.628 86.3871 124.628 87.4061C124.126 87.4061 123.648 87.4061 123.171 87.4061L123.176 87.4115C123.176 86.908 123.176 86.404 123.176 85.8804C122.629 85.8804 122.141 85.8804 121.654 85.8804L121.66 85.8871Z" fill="#263238"/>
<path d="M105.433 113.512C104.926 113.512 104.456 113.512 103.969 113.512C103.969 110.962 103.969 108.419 103.969 105.863C104.445 105.863 104.915 105.863 105.409 105.863C105.409 106.863 105.409 107.867 105.409 108.899C105.907 108.899 106.383 108.899 106.878 108.899C106.878 109.421 106.878 109.915 106.878 110.439C106.407 110.439 105.93 110.439 105.433 110.439C105.433 111.473 105.433 112.478 105.433 113.512Z" fill="#263238"/>
<path d="M117.27 82.8496C117.262 83.2408 117.253 83.6324 117.245 84.0236C117.244 84.1207 117.245 84.2182 117.245 84.3353C116.258 84.3353 115.287 84.3353 114.288 84.3353C114.288 83.8415 114.288 83.3469 114.288 82.823C113.785 82.823 113.309 82.823 112.808 82.823C112.808 82.2798 112.808 81.7665 112.808 81.2531L112.802 81.2617C113.288 81.2617 113.773 81.2617 114.276 81.2617C114.276 80.7429 114.276 80.2369 114.276 79.731L114.27 79.7369C114.777 79.7369 115.284 79.7365 115.792 79.7365L115.788 79.731C115.781 80.3529 115.772 80.9743 115.767 81.5961C115.764 81.9952 115.767 82.3942 115.767 82.8555C116.29 82.8555 116.783 82.8555 117.275 82.8551L117.27 82.8496Z" fill="#263238"/>
<path d="M111.325 108.927C111.325 109.44 111.325 109.929 111.325 110.446C110.838 110.446 110.363 110.446 109.863 110.446C109.863 111.479 109.863 112.483 109.863 113.506C108.869 113.506 107.898 113.506 106.912 113.506C106.912 113.006 106.912 112.518 106.912 111.997C107.387 111.997 107.863 111.997 108.374 111.997C108.374 110.956 108.374 109.948 108.374 108.927C109.376 108.927 110.342 108.927 111.325 108.927Z" fill="#263238"/>
<path d="M112.809 81.2531C112.424 81.2625 112.039 81.2723 111.654 81.2805C111.553 81.2829 111.453 81.2809 111.338 81.2809C111.338 81.8033 111.338 82.2939 111.338 82.803C110.847 82.803 110.371 82.803 109.877 82.803C109.877 81.2785 109.877 79.7592 109.877 78.212C110.369 78.212 110.855 78.212 111.341 78.212L111.335 78.2054C111.335 78.7148 111.335 79.2239 111.335 79.7373C111.853 79.7373 112.33 79.7373 112.809 79.7373L112.801 79.7298C112.802 80.2405 112.802 80.7511 112.802 81.2617L112.809 81.2531Z" fill="#263238"/>
<path d="M106.867 101.215C106.878 101.271 106.896 101.326 106.897 101.381C106.897 102.346 106.895 103.312 106.894 104.277L106.899 104.271C106.847 104.283 106.795 104.306 106.742 104.306C105.861 104.308 104.979 104.307 104.097 104.307C104.059 104.307 104.02 104.299 103.967 104.293C103.967 103.279 103.967 102.27 103.967 101.222C104.942 101.222 105.908 101.222 106.873 101.221L106.867 101.215Z" fill="#263238"/>
<path d="M108.403 75.155C108.396 75.2521 108.383 75.3493 108.383 75.4468C108.382 76.7734 108.382 78.1001 108.382 79.4268C108.382 79.5232 108.382 79.6199 108.382 79.7299C107.879 79.7299 107.403 79.7299 106.889 79.7299C106.889 78.1969 106.889 76.6763 106.889 75.1558L106.884 75.1636C107.392 75.1636 107.9 75.1636 108.408 75.1636L108.403 75.155Z" fill="#263238"/>
<path d="M132.023 87.4127C132.502 87.4127 132.98 87.4127 133.485 87.4127C133.485 87.9339 133.485 88.4285 133.485 88.9525C133.986 88.9525 134.461 88.9525 134.949 88.9525C134.949 89.4768 134.949 89.9718 134.949 90.509C133.968 90.509 132.995 90.509 132.022 90.509L132.029 90.5149C132.029 89.4784 132.029 88.4422 132.029 87.4057L132.023 87.4127Z" fill="#263238"/>
<path d="M120.202 73.5654C120.451 73.5788 120.7 73.5968 120.948 73.6038C121.175 73.6105 121.403 73.605 121.659 73.605C121.659 74.1195 121.659 74.6137 121.659 75.1369C122.164 75.1369 122.64 75.1369 123.134 75.1369C123.134 75.6604 123.134 76.155 123.134 76.6645C122.161 76.6645 121.195 76.6645 120.23 76.6645C120.22 76.6519 120.203 76.6394 120.203 76.6269C120.204 75.6036 120.206 74.5804 120.209 73.5576C120.208 73.5584 120.202 73.5654 120.202 73.5654Z" fill="#263238"/>
<path d="M115.81 75.1788C115.795 75.1001 115.769 75.0218 115.769 74.9431C115.766 74.062 115.771 73.181 115.763 72.2999C115.762 72.1198 115.809 72.0587 115.988 72.0634C116.412 72.0747 116.836 72.063 117.259 72.0606L117.253 72.0555C117.253 72.5677 117.253 73.0799 117.253 73.5866C117.766 73.5866 118.246 73.5866 118.726 73.5866L118.719 73.5768C118.719 74.0906 118.719 74.604 118.719 75.1463C118.613 75.1463 118.529 75.1463 118.445 75.1463C117.649 75.1463 116.854 75.1455 116.058 75.1475C115.973 75.1479 115.889 75.1647 115.805 75.1745L115.81 75.1788Z" fill="#263238"/>
<path d="M127.577 87.4128C127.573 86.9064 127.57 86.3997 127.567 85.893L127.56 85.9008C128.387 85.8961 129.214 85.8899 130.041 85.8871C130.687 85.8848 131.332 85.8868 132.023 85.8868C132.023 86.4048 132.023 86.9092 132.023 87.4132L132.029 87.4057C131.534 87.41 131.038 87.419 130.543 87.4182C129.553 87.4167 128.562 87.4104 127.571 87.4057L127.577 87.4128Z" fill="#263238"/>
<path d="M98.0311 95.0796C98.0311 95.5856 98.0311 96.0919 98.0311 96.628C97.544 96.628 97.0681 96.628 96.5686 96.628C96.5686 97.1531 96.5686 97.6484 96.5686 98.1579C96.0682 98.1579 95.5928 98.1579 95.1071 98.1579C95.1071 97.1218 95.1071 96.1005 95.1071 95.0789L95.0981 95.0886C96.0784 95.0886 97.0587 95.0886 98.0394 95.0886L98.0311 95.0796Z" fill="#263238"/>
<path d="M102.492 95.0791C102.091 95.0842 101.69 95.0944 101.289 95.0936C100.203 95.0913 99.1169 95.0846 98.0312 95.0795L98.0395 95.0885C98.0395 94.5779 98.0395 94.0673 98.0391 93.5566L98.0327 93.5633C99.5073 93.5633 100.982 93.5633 102.483 93.5633C102.483 94.0943 102.483 94.5916 102.483 95.0885L102.492 95.0791Z" fill="#263238"/>
<path d="M118.701 81.2299C118.707 80.7976 118.717 80.3653 118.72 79.933C118.724 79.3695 118.721 78.8064 118.721 78.2269C119.212 78.2269 119.687 78.2269 120.178 78.2269C120.178 79.2383 120.178 80.2471 120.178 81.3039C119.676 81.2785 119.187 81.2538 118.698 81.2291L118.701 81.2299Z" fill="#263238"/>
<path d="M133.496 101.238C133.496 100.226 133.496 99.2132 133.496 98.1873C133.988 98.1873 134.463 98.1873 134.95 98.1873C134.95 99.203 134.95 100.205 134.95 101.231C134.459 101.231 133.974 101.231 133.489 101.231L133.496 101.238Z" fill="#263238"/>
<path d="M105.408 79.7337C104.923 79.7337 104.452 79.7337 103.967 79.7337C103.967 78.7215 103.967 77.7183 103.967 76.6974C104.442 76.6974 104.917 76.6974 105.408 76.6974C105.408 77.7006 105.408 78.7035 105.408 79.7337Z" fill="#263238"/>
<path d="M121.641 84.3748C121.082 84.3682 120.523 84.3599 119.964 84.356C119.563 84.3529 119.161 84.3553 118.702 84.3553C118.702 83.8493 118.702 83.3544 118.703 82.859C118.703 82.8582 118.7 82.8617 118.7 82.8617C118.752 82.8484 118.804 82.8234 118.856 82.8234C119.754 82.8214 120.652 82.8222 121.55 82.823C121.58 82.823 121.61 82.832 121.637 82.8363C121.637 83.3571 121.637 83.8681 121.636 84.3795C121.637 84.3803 121.641 84.3748 121.641 84.3748Z" fill="#263238"/>
<path d="M129.039 96.6111C129.525 96.6111 130.011 96.6111 130.517 96.6111C130.517 97.1464 130.517 97.6402 130.517 98.1841C130.022 98.1841 129.53 98.1841 129.039 98.1841L129.045 98.1888C129.045 97.6617 129.045 97.1343 129.044 96.6072L129.039 96.6111Z" fill="#263238"/>
<path d="M106.894 104.277C107.246 104.287 107.598 104.299 107.949 104.308C108.082 104.311 108.214 104.308 108.364 104.308C108.364 104.824 108.364 105.317 108.364 105.83C107.885 105.83 107.411 105.83 106.899 105.83C106.899 105.31 106.899 104.791 106.899 104.271C106.899 104.271 106.894 104.277 106.894 104.277Z" fill="#263238"/>
<path d="M115.816 108.935C115.8 108.985 115.768 109.035 115.769 109.085C115.779 109.53 115.794 109.974 115.808 110.419L115.812 110.416C115.292 110.416 114.772 110.415 114.252 110.415L114.256 110.42C114.265 110.037 114.275 109.654 114.283 109.272C114.285 109.166 114.284 109.06 114.284 108.937C114.805 108.937 115.311 108.937 115.818 108.937C115.817 108.937 115.816 108.935 115.816 108.935Z" fill="#263238"/>
<path d="M118.698 81.2292C118.699 81.7732 118.7 82.3175 118.701 82.8622C118.701 82.8622 118.704 82.859 118.703 82.8598C118.225 82.8567 117.747 82.8528 117.27 82.8496L117.275 82.8555C117.275 82.3429 117.275 81.8299 117.275 81.2813C117.655 81.2813 118.046 81.2845 118.437 81.279C118.525 81.2778 118.613 81.248 118.701 81.2308C118.701 81.23 118.698 81.2292 118.698 81.2292Z" fill="#263238"/>
<path d="M99.4979 82.841C100.007 82.841 100.516 82.8406 101.025 82.8406L101.016 82.8304C101.02 83.3414 101.023 83.8528 101.027 84.3638C100.529 84.3638 100.03 84.3638 99.5065 84.3638C99.5065 83.8223 99.5065 83.3261 99.5065 82.8304L99.4979 82.841Z" fill="#263238"/>
<path d="M117.271 111.944C117.519 111.957 117.767 111.975 118.015 111.982C118.242 111.989 118.469 111.984 118.708 111.984C118.708 112.504 118.708 112.999 118.708 113.509C118.225 113.509 117.75 113.509 117.275 113.509C117.275 112.978 117.275 112.459 117.275 111.939L117.271 111.944Z" fill="#263238"/>
<path d="M126.112 82.8399C126.112 82.3328 126.112 81.8257 126.112 81.2998C126.595 81.2998 127.071 81.2998 127.57 81.2998C127.57 81.8155 127.57 82.3277 127.57 82.8399L127.578 82.8309C127.087 82.8309 126.595 82.8309 126.104 82.8309L126.112 82.8399Z" fill="#263238"/>
<path d="M121.636 111.938C121.636 112.457 121.636 112.976 121.636 113.509C121.166 113.509 120.691 113.509 120.205 113.509C120.205 113.005 120.205 112.518 120.205 111.984C120.396 111.984 120.588 111.989 120.78 111.982C121.067 111.973 121.353 111.955 121.638 111.94L121.636 111.938Z" fill="#263238"/>
<path d="M121.684 78.2188C122.177 78.2188 122.648 78.2188 123.135 78.2188C123.135 78.7215 123.135 79.2161 123.135 79.7271C122.652 79.7271 122.176 79.7271 121.684 79.7271C121.684 79.2294 121.684 78.7356 121.684 78.2188Z" fill="#263238"/>
<path d="M96.5576 99.7218C96.5576 100.232 96.5576 100.72 96.5576 101.223C96.0727 101.223 95.5976 101.223 95.1071 101.223C95.1071 100.724 95.1071 100.23 95.1071 99.7218C95.5874 99.7218 96.0625 99.7218 96.5576 99.7218Z" fill="#263238"/>
<path d="M102.505 99.7281C102.495 100.086 102.485 100.444 102.477 100.801C102.474 100.938 102.476 101.075 102.476 101.225C101.975 101.225 101.499 101.225 101.01 101.225C101.01 100.723 101.01 100.235 101.01 99.7317C101.51 99.7317 102.009 99.7317 102.508 99.7321L102.505 99.7281Z" fill="#263238"/>
<path d="M132.047 101.214C131.553 101.214 131.06 101.214 130.552 101.214C130.552 100.722 130.552 100.228 130.552 99.7207C131.037 99.7207 131.513 99.7207 132.043 99.7207C132.043 100.228 132.043 100.723 132.043 101.218C132.042 101.219 132.047 101.214 132.047 101.214Z" fill="#263238"/>
<path d="M117.273 87.392C117.649 87.401 118.025 87.4104 118.401 87.4186C118.494 87.4206 118.588 87.419 118.701 87.419C118.701 87.9261 118.701 88.4195 118.701 88.9348C118.233 88.9348 117.758 88.9348 117.277 88.9348C117.277 88.4234 117.277 87.9057 117.277 87.3881L117.273 87.392Z" fill="#263238"/>
<path d="M93.6313 95.089C93.6351 94.578 93.6385 94.0666 93.6423 93.5555L93.6317 93.5638C94.1132 93.5638 94.5951 93.5638 95.0984 93.5638C95.0984 94.0975 95.0984 94.5932 95.0984 95.089L95.1075 95.0792C94.615 95.0823 94.1234 95.0859 93.6313 95.089Z" fill="#263238"/>
<path d="M133.489 101.231C133.489 101.735 133.489 102.24 133.489 102.757C132.991 102.757 132.516 102.757 132.046 102.757C132.046 102.234 132.046 101.724 132.046 101.214L132.042 101.218C132.527 101.224 133.011 101.231 133.495 101.238L133.489 101.231Z" fill="#263238"/>
<path d="M118.719 72.0599C119.198 72.0599 119.677 72.0599 120.202 72.0599C120.202 72.5776 120.202 73.0722 120.202 73.566L120.209 73.5581C120.08 73.5734 119.95 73.6032 119.821 73.6028C119.454 73.6008 119.086 73.5863 118.719 73.5765L118.726 73.5863C118.726 73.0757 118.726 72.5651 118.726 72.0544L118.719 72.0599Z" fill="#263238"/>
<path d="M121.66 87.4058C121.182 87.4058 120.704 87.4058 120.209 87.4058C120.209 86.9084 120.209 86.415 120.209 85.8872C120.692 85.8872 121.176 85.8872 121.66 85.8872L121.653 85.8809C121.653 86.3915 121.653 86.9018 121.654 87.4124L121.66 87.4058Z" fill="#263238"/>
<path d="M112.822 72.0799C113.308 72.0799 113.777 72.0799 114.265 72.0799C114.265 72.5823 114.265 73.0761 114.265 73.5879C113.785 73.5879 113.31 73.5879 112.822 73.5879C112.822 73.0871 112.822 72.5984 112.822 72.0799Z" fill="#263238"/>
<path d="M117.277 87.3881C116.785 87.3881 116.292 87.3881 115.783 87.3881C115.783 86.9025 115.783 86.4091 115.783 85.9012C116.266 85.9012 116.741 85.9012 117.272 85.9012C117.272 86.4048 117.272 86.899 117.272 87.3928C117.273 87.392 117.277 87.3881 117.277 87.3881Z" fill="#263238"/>
<path d="M112.815 87.4018C112.815 86.8932 112.815 86.4104 112.815 85.9072C113.294 85.9072 113.77 85.9072 114.264 85.9072C114.264 86.3963 114.264 86.8904 114.264 87.4018C113.788 87.4018 113.312 87.4018 112.815 87.4018Z" fill="#263238"/>
<path d="M127.571 84.356C127.567 84.8705 127.564 85.3854 127.56 85.9004L127.567 85.8929C127.089 85.8933 126.611 85.8933 126.111 85.8933C126.111 85.3635 126.111 84.8599 126.111 84.3564L126.104 84.3634C126.595 84.3634 127.086 84.3634 127.578 84.3634L127.571 84.356Z" fill="#263238"/>
<path d="M114.252 110.415C114.252 110.926 114.252 111.437 114.252 111.966C113.787 111.966 113.312 111.966 112.823 111.966C112.823 111.465 112.823 110.971 112.823 110.42C113.306 110.42 113.782 110.42 114.256 110.42C114.256 110.42 114.252 110.415 114.252 110.415Z" fill="#263238"/>
<path d="M117.274 111.939C117.058 111.954 116.841 111.976 116.624 111.982C116.351 111.989 116.077 111.984 115.81 111.984C115.81 111.446 115.81 110.931 115.811 110.416L115.807 110.419C116.159 110.427 116.51 110.437 116.861 110.445C116.977 110.448 117.094 110.446 117.27 110.446C117.27 110.959 117.27 111.452 117.27 111.944C117.271 111.944 117.274 111.939 117.274 111.939Z" fill="#263238"/>
<path d="M95.0984 84.356C95.5897 84.356 96.081 84.356 96.5719 84.3564C96.5719 84.8548 96.5719 85.3533 96.5719 85.8882C96.0682 85.8882 95.5833 85.8882 95.0984 85.8882C95.0984 85.3772 95.0984 84.8666 95.0984 84.356Z" fill="#263238"/>
<path d="M99.4986 110.434C98.0296 110.434 96.5757 110.434 95.1068 110.434C95.1068 108.912 95.1068 107.401 95.1068 105.869C96.5648 105.869 98.0244 105.869 99.4986 105.869C99.4986 107.384 99.4986 108.895 99.4986 110.434Z" fill="#263238"/>
<path d="M99.4996 76.6708C98.0235 76.6708 96.5756 76.6708 95.1097 76.6708C95.1097 75.1436 95.1097 73.6251 95.1097 72.0869C96.567 72.0869 98.0262 72.0869 99.4996 72.0869C99.4996 73.6137 99.4996 75.1327 99.4996 76.6708Z" fill="#263238"/>
<path d="M101.024 85.8809C101.024 86.3841 101.024 86.8869 101.024 87.4112C101.493 87.4112 101.963 87.4112 102.489 87.4112C102.489 87.9332 102.489 88.4352 102.489 88.9369C101.733 88.9435 100.978 88.9506 100.223 88.9564C99.9959 88.9584 99.7692 88.9568 99.5136 88.9568C99.5136 88.4337 99.5136 87.9391 99.5136 87.4246C99.0144 87.4246 98.5442 87.4246 98.0571 87.4246C98.0571 86.9096 98.0571 86.4154 98.0571 85.8809C99.0453 85.8809 100.034 85.8809 101.024 85.8809Z" fill="#263238"/>
<path d="M101.016 84.356C101.984 84.356 102.951 84.356 103.936 84.356C103.936 84.865 103.936 85.3592 103.936 85.8882C102.962 85.8882 101.99 85.8882 101.016 85.8882C101.016 85.3772 101.016 84.8666 101.016 84.356Z" fill="#263238"/>
<path d="M102.484 88.9317C102.975 88.9314 103.466 88.9306 103.957 88.9302C103.957 89.4432 103.957 89.9557 103.957 90.5278C103.453 90.5278 102.978 90.5278 102.503 90.5278L102.507 90.5322C102.499 89.9984 102.491 89.4651 102.484 88.9317Z" fill="#263238"/>
<path d="M102.503 90.5279C102.494 90.9097 102.484 91.2915 102.476 91.6733C102.474 91.7786 102.476 91.884 102.476 92.0104C101.988 92.0104 101.514 92.0104 101.019 92.0104C101.019 91.5225 101.019 91.0299 101.019 90.5318C101.511 90.5318 102.009 90.5318 102.506 90.5322L102.503 90.5279Z" fill="#263238"/>
<path d="M96.5719 88.9376C96.0919 88.9376 95.6119 88.9376 95.0988 88.9376C95.0988 88.4313 95.0988 87.9191 95.0988 87.4065C95.5757 87.4065 96.0527 87.4065 96.5719 87.4065C96.5719 87.9355 96.5719 88.4364 96.5719 88.9376Z" fill="#263238"/>
<path d="M115.796 101.231C115.287 101.234 114.778 101.236 114.269 101.239C114.269 100.741 114.269 100.243 114.269 99.7167C113.794 99.7167 113.318 99.7167 112.825 99.7167C112.825 99.1955 112.825 98.7013 112.825 98.1762C113.304 98.1762 113.779 98.1762 114.275 98.1762C114.275 97.6573 114.275 97.169 114.275 96.6412C114.776 96.6412 115.259 96.6412 115.75 96.6412C115.75 96.1066 115.75 95.6117 115.75 95.094C114.768 95.094 113.802 95.094 112.802 95.094C112.802 94.5665 112.802 94.0618 112.802 93.5566C114.777 93.5566 116.751 93.5566 118.726 93.5566C118.726 94.0673 118.726 94.5779 118.726 95.0885C118.246 95.0885 117.767 95.0885 117.253 95.0885C117.253 96.6451 117.253 98.1797 117.253 99.7143L117.259 99.7077C116.766 99.7077 116.273 99.7077 115.785 99.7077C115.785 100.243 115.785 100.741 115.785 101.239L115.796 101.231Z" fill="#263238"/>
<path d="M117.253 99.7144C117.731 99.7144 118.21 99.7144 118.705 99.7144C118.705 100.216 118.705 100.71 118.705 101.233C118.222 101.233 117.738 101.233 117.254 101.233L117.259 101.239C117.259 100.729 117.259 100.218 117.259 99.7078L117.253 99.7144Z" fill="#263238"/>
<path d="M115.785 102.765C115.789 102.254 115.792 101.742 115.796 101.231L115.786 101.24C116.277 101.24 116.768 101.24 117.259 101.239L117.254 101.232C117.255 101.743 117.257 102.253 117.259 102.764C116.767 102.764 116.276 102.764 115.785 102.765Z" fill="#263238"/>
<path d="M126.092 104.293C125.608 104.293 125.133 104.293 124.644 104.293C124.644 103.787 124.644 103.294 124.644 102.785C125.129 102.785 125.604 102.785 126.092 102.785C126.092 103.29 126.092 103.784 126.092 104.293Z" fill="#263238"/>
<path d="M132.002 72.0889C132.002 73.6126 132.002 75.1249 132.002 76.6587C130.539 76.6587 129.078 76.6587 127.597 76.6587C127.597 75.1484 127.597 73.6294 127.597 72.0889C129.051 72.0889 130.512 72.0889 132.002 72.0889Z" fill="#263238"/>
<path d="M89.4821 72.8358V66.265H95.7879" stroke="#77B954" stroke-width="2" stroke-miterlimit="10"/>
<path d="M89.482 109.696V116.27H95.7878" stroke="#77B954" stroke-width="2" stroke-miterlimit="10"/>
<path d="M137.557 109.696V116.27H131.281" stroke="#77B954" stroke-width="2" stroke-miterlimit="10"/>
<path d="M131.281 66.265H137.557V72.8358" stroke="#77B954" stroke-width="2" stroke-miterlimit="10"/>
<path d="M41.9351 121.877C41.9351 121.877 29.147 132.627 29.1379 132.634C26.6819 134.677 24.5639 136.513 23.5534 137.569C23.5474 137.574 23.541 137.579 23.5372 137.586C23.1555 137.985 22.9349 138.269 22.9236 138.406C22.9221 138.417 22.9183 138.425 22.9198 138.433C23.0091 139.605 38.1283 160.497 38.8914 161.04C39.6537 161.589 41.2048 159.364 41.2398 158.067C41.2703 156.763 38.923 146.075 38.923 146.075L51.6076 135.203L41.9351 121.877Z" fill="#F1D5C9"/>
<path d="M40.1071 151.656C40.6865 154.467 41.2534 157.42 41.2406 158.067C41.2068 159.364 39.6546 161.59 38.893 161.041C38.1273 160.495 23.0103 139.606 22.9215 138.435C22.9173 138.427 22.9215 138.418 22.9215 138.404C22.9343 138.268 23.1541 137.982 23.5389 137.586C23.5389 137.577 23.5471 137.572 23.5517 137.568C24.3724 136.71 25.9245 135.342 27.7941 133.762C28.2255 133.393 28.678 133.019 29.1392 132.632C29.1474 132.628 41.9341 121.875 41.9341 121.875L51.6074 135.201L38.9224 146.073C38.9224 146.073 39.5187 148.787 40.1067 151.647C40.1071 151.648 40.1071 151.652 40.1071 151.656Z" fill="#F1D5C9"/>
<path d="M41.2406 158.066C41.2067 159.364 39.6545 161.59 38.8929 161.041C38.1272 160.495 23.0102 139.606 22.9214 138.435C22.9173 138.427 22.9214 138.417 22.9214 138.404C22.9342 138.268 23.1541 137.982 23.5388 137.586C23.5388 137.577 23.5471 137.572 23.5516 137.568C24.3723 136.71 25.9245 135.342 27.794 133.762C30.5685 139.596 38.178 155.276 39.7133 155.166C40.2588 155.127 40.2418 153.336 40.1067 151.655C40.6864 154.468 41.2534 157.42 41.2406 158.066Z" fill="#263238"/>
<path d="M48.8512 109.067C47.9455 113.72 29.382 132.291 29.382 132.291L42.3241 147.83C42.3241 147.83 68.6797 120.465 67.3041 110.182C66.1077 101.238 53.2337 65.2689 53.2337 65.2689H38.3814C38.3814 65.2689 49.742 104.49 48.8512 109.067Z" fill="#37474F"/>
<path d="M48.8512 109.067C47.9455 113.72 29.382 132.291 29.382 132.291L42.3241 147.83C42.3241 147.83 68.6797 120.465 67.3041 110.182C66.1077 101.238 53.2337 65.2689 53.2337 65.2689H38.3814C38.3814 65.2689 49.742 104.49 48.8512 109.067Z" fill="#263238"/>
<path d="M43.7961 144.136C42.0764 141.909 42.6001 142.523 40.8567 140.317C40.0036 139.237 34.3905 132.147 33.4249 131.285C33.4034 131.266 33.3676 131.297 33.3819 131.322C34.0291 132.462 39.76 139.449 40.633 140.512C42.4171 142.683 41.9273 142.039 43.7347 144.19C43.7686 144.229 43.8285 144.177 43.7961 144.136Z" fill="#37474F"/>
<path d="M50.6956 106.798C50.4829 105.636 50.2416 104.479 50.0051 103.322C49.5221 100.96 49.0116 98.6031 48.4725 96.2535C47.4034 91.5937 46.2454 86.9589 44.9835 82.3515C43.7174 77.728 42.3794 73.1128 40.8378 68.5798C40.6473 68.0195 40.4508 67.4615 40.2543 66.9034C40.2392 66.8612 40.1764 66.8799 40.1892 66.9238C41.5237 71.465 42.8997 75.9929 44.1515 80.56C45.3979 85.1086 46.5514 89.6816 47.6387 94.2737C48.1845 96.5793 48.6928 98.8944 49.1893 101.212C49.4333 102.351 49.6716 103.491 49.9042 104.632C50.1399 105.789 50.4569 106.973 50.5262 108.157C50.5943 109.32 50.2295 110.351 49.6535 111.332C49.0967 112.28 48.4417 113.171 47.8085 114.064C46.5398 115.854 34.4507 129.866 34.0614 130.247C34.0309 130.277 34.0776 130.323 34.1081 130.294C35.7307 128.779 45.9875 117.23 47.2901 115.443C47.9346 114.559 48.5625 113.662 49.1792 112.757C49.7559 111.91 50.3357 111.045 50.6545 110.052C50.9971 108.986 50.8943 107.884 50.6956 106.798Z" fill="#37474F"/>
<path d="M50.6647 65.2678L47.9689 102.076C45.3953 89.478 38.3837 65.2678 38.3837 65.2678H50.6647Z" fill="#37474F"/>
<path d="M45.5648 141.055C45.5648 141.055 48.7707 157.294 48.7707 157.306C48.8137 160.577 48.9074 163.443 49.0889 164.921C49.0885 164.929 49.0885 164.937 49.0922 164.945C49.1604 165.502 49.2402 165.858 49.3373 165.951C49.3449 165.96 49.3482 165.968 49.3561 165.972C50.3007 166.618 75.4365 167.024 76.3175 166.731C77.2022 166.443 76.4658 163.803 75.5024 162.978C74.5315 162.152 64.9783 157.52 64.9783 157.52L61.6165 141.291L45.5648 141.055Z" fill="#F1D5C9"/>
<path d="M76.3179 166.73C75.4381 167.024 50.3007 166.619 49.3577 165.973C49.349 165.968 49.3449 165.959 49.3366 165.951C49.2395 165.858 49.1589 165.502 49.0911 164.943C49.087 164.939 49.087 164.93 49.087 164.921C48.9473 163.742 48.8544 161.683 48.8035 159.237C55.1903 160.53 71.2213 163.614 72.0544 162.299C72.3718 161.793 70.7981 160.618 69.3559 159.681C72.0122 161.006 74.9856 162.537 75.5017 162.977C76.4662 163.804 77.2022 166.443 76.3179 166.73Z" fill="#263238"/>
<path d="M53.0707 65.2694C53.0534 65.5936 52.2241 68.552 51.7949 72.9781C51.4854 76.211 51.0969 79.0712 50.6828 79.4275C50.2134 79.8289 47.8665 81.3976 47.0759 81.8988C47.0759 81.8988 54.3948 104.974 56.2831 112.666C59.0204 123.818 65.5781 157.272 65.5781 157.272L48.1067 157.269C48.1067 157.269 42.7944 125.42 40.4719 114.804C38.4808 105.703 30.8533 78.3984 30.8533 78.3984C28.0787 71.301 31.4707 65.2694 31.4707 65.2694C31.4707 65.2694 53.073 65.2568 53.0707 65.2694Z" fill="#263238"/>
<path d="M64.9463 153.735C62.2007 153.72 62.9887 153.685 60.2431 153.701C58.8995 153.709 50.0699 153.772 48.8177 154.008C48.7903 154.013 48.7906 154.062 48.8185 154.066C50.077 154.262 58.904 154.04 60.2472 154.005C62.9924 153.933 62.2034 153.922 64.9474 153.819C64.999 153.817 64.9979 153.736 64.9463 153.735Z" fill="#37474F"/>
<path d="M51.9202 78.5158C50.2174 79.4502 48.6174 80.6453 47.1003 81.8717C47.0408 81.9199 47.0991 82.0182 47.165 81.9751C48.7985 80.9108 50.4715 79.8743 52.0467 78.7179C52.1709 78.6271 52.0508 78.4442 51.9202 78.5158Z" fill="#37474F"/>
<path d="M50.586 65.9617C50.5721 65.8995 50.4637 65.903 50.4742 65.9707C50.8111 68.1295 50.9621 70.0526 51.0886 72.1006C51.1473 73.0514 51.1955 78.3507 49.576 78.2254C49.3049 78.2046 49.131 77.9579 49.029 77.5542C48.9059 77.0686 48.9943 76.4347 48.9992 75.9315C49.0109 74.8186 48.9875 73.7077 48.9138 72.5975C48.7756 70.5249 48.4786 68.478 47.9353 66.4774C47.9176 66.4117 47.8254 66.4316 47.8356 66.4998C48.2606 69.3313 48.6111 72.1691 48.6227 75.0395C48.6284 76.419 48.2787 78.5535 49.6648 78.5422C51.0769 78.5304 51.4624 74.9874 51.4922 74.0303C51.5746 71.3593 51.1752 68.5552 50.586 65.9617Z" fill="#37474F"/>
<path d="M49.6384 78.3581C49.5488 78.7289 49.4893 79.1095 49.4471 79.489C49.4144 79.7838 49.3579 80.1057 49.4328 80.3955C49.4475 80.4515 49.5209 80.4456 49.5446 80.4021C49.6918 80.1308 49.7201 79.7873 49.7795 79.4843C49.8488 79.133 49.9256 78.7825 49.9851 78.4293C50.0246 78.1948 49.6933 78.1294 49.6384 78.3581Z" fill="#37474F"/>
<path d="M46.0748 143.723C46.0285 143.303 45.9735 142.882 45.9167 142.463C45.8071 141.658 45.6769 140.856 45.5579 140.052C45.3189 138.436 45.0523 136.826 44.7775 135.217C44.2298 132.008 43.5965 128.809 42.9291 125.625C42.5518 123.825 42.1129 122.046 41.6502 120.268C41.6178 120.144 41.4499 120.204 41.4706 120.324C41.7519 121.952 42.0225 123.58 42.3425 125.2C42.6618 126.816 42.9799 128.431 43.2882 130.049C43.8985 133.246 44.4669 136.452 45.0753 139.649C45.247 140.552 45.4028 141.457 45.5722 142.36C45.6569 142.81 45.7443 143.261 45.8373 143.709C45.9299 144.157 46.0643 144.597 46.135 145.048C46.1418 145.09 46.2036 145.071 46.1968 145.028C46.1301 144.597 46.1226 144.157 46.0748 143.723Z" fill="#37474F"/>
<path d="M58.1213 119.577C57.5396 116.562 56.7551 113.585 55.9664 110.623C54.3788 104.659 52.5097 98.7829 50.6451 92.9083C50.1078 91.2155 49.5714 89.5227 49.033 87.8302C48.7639 86.9844 47.447 82.4213 47.2836 81.9878C47.267 81.9439 47.2042 81.9623 47.2155 82.0093C47.5927 83.5639 48.1111 85.8304 48.547 87.369C48.9781 88.8899 49.4487 90.3994 49.9027 91.9133C50.7949 94.8886 51.7029 97.8587 52.5692 100.842C54.2821 106.739 55.9826 112.634 57.3729 118.624C57.7621 120.302 58.1503 121.978 58.5057 123.663C58.8607 125.346 59.1641 127.04 59.5033 128.726C59.5127 128.772 59.5869 128.76 59.5823 128.713C59.2906 125.64 58.7052 122.602 58.1213 119.577Z" fill="#37474F"/>
<path d="M47.2607 135.351C46.2988 129.598 45.1468 123.877 43.8706 118.191C42.588 112.478 41.1601 106.8 39.5864 101.166C38.0132 95.5318 36.2694 89.9478 34.3969 84.4143C33.5092 81.7915 32.6068 79.1639 32.024 76.4452C31.448 73.7581 31.1555 70.851 31.7571 68.1408C31.9099 67.4516 32.1027 66.7793 32.3545 66.1218C32.3719 66.0764 32.3086 66.038 32.2894 66.0842C30.188 71.1768 31.5519 76.7471 33.1515 81.768C34.0279 84.5189 34.9631 87.2482 35.8274 90.0034C36.7148 92.8314 37.5644 95.672 38.3784 98.5239C39.9908 104.175 41.4876 109.861 42.8286 115.589C44.1692 121.316 45.3637 127.079 46.4144 132.871C47.4689 138.684 48.3554 144.52 49.2548 150.36C49.3719 151.12 49.4641 151.884 49.5601 152.646C49.5654 152.689 49.6298 152.688 49.6245 152.645C48.9518 146.859 48.2211 141.095 47.2607 135.351Z" fill="#37474F"/>
<path d="M48.534 27.8892C48.9809 27.933 50.9117 27.6342 52.2621 29.4238C53.5395 31.117 54.1328 36.3779 54.4302 37.5182C54.7272 38.6585 56.1823 38.7831 56.5651 40.1062C56.8945 41.2442 56.104 41.6929 56.0475 42.538C56.0038 43.1931 56.6664 44.1517 56.1235 45.1373C55.63 46.0337 54.7073 45.8786 54.1625 46.1723C53.6178 46.466 53.314 47.8107 52.3009 48.2042C51.2878 48.5981 50.3516 47.6568 49.8087 47.6811C49.2658 47.7053 48.6748 49.4616 46.896 49.3692C45.1176 49.2771 44.5566 47.7327 43.8146 47.4496C43.0726 47.1665 41.2509 47.759 40.382 46.836C39.5131 45.913 39.329 44.6463 38.9364 44.1908C38.5437 43.7358 37.7562 43.8372 37.2521 42.7702C36.748 41.7035 37.6948 40.9834 37.8021 40.0397C37.8766 39.3822 37.2991 38.8003 37.6609 37.7873C38.1582 36.3948 39.7842 36.6344 40.3568 35.2028C40.8059 34.0801 41.6563 29.2343 44.4147 27.9557C46.3204 27.0731 48.534 27.8892 48.534 27.8892Z" fill="#263238"/>
<path d="M54.3679 37.2437C54.4605 37.4954 54.6713 37.674 54.8611 37.8463L55.4548 38.346C55.8474 38.6729 56.2446 39.0109 56.5108 39.4342C56.7833 39.8438 56.8741 40.3709 56.7253 40.8294C56.6527 41.0604 56.5209 41.2715 56.3741 41.4818C56.231 41.694 56.0564 41.902 55.9577 42.1968C55.8655 42.5167 55.9732 42.8179 56.0567 43.0618C56.1471 43.3156 56.2461 43.5552 56.3229 43.7996C56.4818 44.282 56.5334 44.8001 56.3218 45.2469C56.222 45.4662 56.0631 45.649 55.8519 45.7595C55.6423 45.8722 55.3964 45.9192 55.1491 45.9423C54.9006 45.9693 54.6465 45.9693 54.3913 45.9823C54.1413 45.9972 53.8631 46.0148 53.6575 46.182C53.8796 46.0445 54.1424 46.0586 54.3916 46.0622C54.6442 46.0719 54.8984 46.095 55.1574 46.0904C55.4149 46.0821 55.6818 46.0477 55.9318 45.9314C56.1829 45.8186 56.3933 45.6032 56.5221 45.3514C56.8048 44.8463 56.7317 44.2213 56.5755 43.7158C56.4987 43.4562 56.4008 43.2079 56.3191 42.9643C56.2371 42.7192 56.1719 42.4819 56.2359 42.2861C56.3749 41.8601 56.8206 41.4681 56.9768 40.9148C57.1444 40.3669 57.0288 39.7377 56.6937 39.3018C56.3764 38.8539 55.9532 38.5347 55.5395 38.2277L54.9085 37.7837C54.7079 37.627 54.4884 37.4794 54.3679 37.2437Z" fill="#263238"/>
<path d="M41.9145 30.757C41.456 31.5824 41.1834 32.4964 40.8296 33.363C40.6522 33.7964 40.4892 34.2362 40.2837 34.6485C40.1786 34.8498 40.0725 35.0589 39.9373 35.2191C39.9057 35.2641 39.8718 35.3013 39.8357 35.3264C39.8018 35.3561 39.7694 35.3878 39.7164 35.4137C39.6226 35.4697 39.5225 35.5198 39.4216 35.5688C39.0199 35.772 38.5911 35.956 38.192 36.2137C37.7964 36.4667 37.415 36.8171 37.2257 37.2878C37.1327 37.5189 37.0788 37.7777 37.1071 38.0326C37.1323 38.2879 37.2305 38.519 37.3363 38.7296C37.5615 39.1428 37.7745 39.5582 37.8028 40.0391C37.8438 39.5582 37.6443 39.0915 37.4651 38.6662C37.3747 38.4524 37.2979 38.2358 37.29 38.0169C37.2791 37.7984 37.336 37.5842 37.4289 37.3849C37.6243 36.9902 37.9485 36.6781 38.3298 36.4486C38.7089 36.2133 39.1283 36.0438 39.5473 35.8409C39.6512 35.7877 39.7555 35.7328 39.8579 35.6694C39.9531 35.6126 40.086 35.5026 40.1493 35.4047C40.31 35.2038 40.4117 34.9869 40.5197 34.7715C40.7215 34.3368 40.8917 33.8947 41.0381 33.4444L41.4669 32.0946C41.6021 31.6431 41.7301 31.1897 41.9145 30.757Z" fill="#263238"/>
<path d="M38.4929 43.8845C38.6954 44.1496 38.7315 44.502 38.8155 44.8251C38.8942 45.1532 38.9729 45.4837 39.0681 45.8122C39.1603 46.1416 39.2793 46.4658 39.4397 46.7763C39.6023 47.0829 39.8112 47.3841 40.1154 47.5924C40.7486 47.9844 41.4824 47.9107 42.1148 47.7686C42.4371 47.6958 42.7511 47.6053 43.0665 47.5407C43.3801 47.469 43.7024 47.4263 44.0213 47.5125C43.7231 47.359 43.3711 47.3692 43.0455 47.3938C42.7168 47.4307 42.3957 47.4957 42.0761 47.5395C41.4496 47.6308 40.7776 47.6636 40.2713 47.3379C40.0254 47.1765 39.8361 46.9157 39.6787 46.6369C39.5161 46.3581 39.3983 46.0472 39.2782 45.7371C39.1596 45.425 39.0579 45.1042 38.9506 44.7831C38.893 44.6238 38.8343 44.464 38.7684 44.307C38.6969 44.1558 38.6348 43.9824 38.4929 43.8845Z" fill="#263238"/>
<path d="M45.4285 49.5641C49.1913 57.6417 53.9694 66.3881 58.4415 67.761C62.6951 69.067 73.2478 58.2921 75.0937 54.6594C75.7299 53.4067 67.823 47.5599 66.6499 48.4582C64.4389 50.1511 59.5456 55.5878 58.8781 55.4253C58.1836 55.253 52.6488 49.763 47.6218 45.1305C44.5747 42.3221 42.8223 43.9691 45.4285 49.5641Z" fill="#F1D5C9"/>
<path d="M68.5096 35.6052L65.0714 46.7466C64.9347 47.0712 65.0785 47.3516 65.3925 47.3727L71.0101 47.7459C71.3237 47.7667 71.6896 47.52 71.8263 47.1953L75.2646 36.054C75.4016 35.7289 75.2574 35.449 74.9438 35.4278L69.3262 35.0546C69.0122 35.0339 68.6467 35.2802 68.5096 35.6052Z" fill="#A6A6A6"/>
<path d="M69.1771 35.6433L65.7389 46.7847C65.6022 47.1093 65.746 47.3901 66.06 47.4108L71.6776 47.784C71.9912 47.8047 72.3571 47.558 72.4938 47.2334L75.932 36.092C76.0691 35.767 75.9249 35.4867 75.6113 35.4659L69.9937 35.0927C69.6797 35.072 69.3138 35.3179 69.1771 35.6433Z" fill="#DBDBDB"/>
<path d="M70.6853 36.2629C70.6627 36.5366 70.4308 36.7394 70.1676 36.7159C69.9045 36.6924 69.7095 36.4512 69.7321 36.1775C69.7547 35.9038 69.9866 35.701 70.2497 35.7244C70.5132 35.7483 70.7082 35.9892 70.6853 36.2629Z" fill="#455A64"/>
<path d="M77.8935 48.3806C78.4694 45.1277 78.1374 44.2009 80.0254 41.7241C81.264 40.099 80.7983 38.5789 78.9016 39.4517C75.8003 40.8794 74.2094 44.9135 74.0452 46.4775L77.8935 48.3806Z" fill="#F1D5C9"/>
<path d="M73.5731 56.8104C73.5731 56.8104 76.6161 53.3476 77.5599 49.9447C78.2123 47.5913 79.0835 42.3068 74.2568 36.9926C73.112 35.7321 70.6213 34.7805 71.7721 37.5455C72.5898 39.5097 73.6785 40.4981 73.9541 41.7308C73.9541 41.7308 70.648 40.9116 69.4787 42.1537C68.9562 42.709 67.564 44.2589 66.6458 45.6263C66.6458 45.6263 66.8784 45.9145 67.2229 46.236C67.2229 46.236 66.2362 47.5035 66.3578 49.9803L73.5731 56.8104Z" fill="#F1D5C9"/>
<path d="M77.838 47.5951C77.3159 46.4321 76.1696 43.9859 74.5628 42.3244C72.778 40.4789 68.8616 37.4237 67.5654 38.8084C66.6149 39.8237 68.0115 41.1265 68.0115 41.1265C68.0115 41.1265 66.1367 40.2188 65.4712 41.331C64.8643 42.3448 66.0031 43.2854 66.0031 43.2854C66.0031 43.2854 64.7751 42.938 64.3715 44.0317C63.8859 45.3471 66.5396 45.8588 67.1547 47.6331C67.2925 48.0314 77.838 47.5951 77.838 47.5951Z" fill="#F1D5C9"/>
<path d="M73.0024 44.6113C72.3391 43.601 70.2663 41.7088 68.0617 41.1113C68.0116 41.0976 67.9751 41.1297 68.018 41.152C70.3107 42.3463 72.2156 43.9135 72.9855 44.6285C72.996 44.6383 73.0096 44.6226 73.0024 44.6113Z" fill="#263238"/>
<path d="M71.1588 46.4309C70.5003 45.6203 68.2799 43.7697 66.0261 43.2434C65.9756 43.2316 65.941 43.2665 65.985 43.2869C68.4298 44.4322 70.3332 45.7828 71.143 46.4493C71.1539 46.4583 71.1674 46.4415 71.1588 46.4309Z" fill="#263238"/>
<path d="M63.8214 49.8108L71.9504 59.3784C71.9504 59.3784 62.7379 69.4464 58.5975 68.2215C54.4575 66.9967 46.9309 54.9793 44.6329 47.4331C43.0427 42.2117 45.7793 43.1331 48.5997 45.7618C51.4202 48.3905 58.8087 54.928 59.143 54.8458C59.4773 54.7635 63.8214 49.8108 63.8214 49.8108Z" fill="#DBDBDB"/>
<path d="M44.6311 47.4345C46.9291 54.978 54.4561 66.9957 58.5984 68.2222C60.4265 68.7649 63.25 67.0995 65.8306 65.0695C65.8306 65.0695 65.8344 65.0652 65.8306 65.0652C61.7166 60.3591 50.7366 48.9339 45.7662 43.7888C44.3642 43.2711 43.6196 44.104 44.6311 47.4345Z" fill="#C7C7C7"/>
<path d="M69.1715 60.8302C67.9924 59.509 63.3562 53.9187 62.4331 52.6406C62.3691 52.5521 62.4075 52.4882 62.4855 52.5717C66.1108 56.4425 68.1272 59.4228 69.2197 60.7801C69.2472 60.8137 69.2012 60.8639 69.1715 60.8302Z" fill="#263238"/>
<path d="M31.3633 65.6359L53.5677 66.0154L51.8276 59.1004C51.8276 59.1004 53.7401 56.5645 52.8275 53.0708C52.2963 51.0372 49.768 47.9845 48.2192 46.0481C44.4463 41.3314 41.168 43.4636 40.1218 44.6767C36.1275 49.31 31.3633 65.6359 31.3633 65.6359Z" fill="#DBDBDB"/>
<path d="M45.8869 58.6927C46.8353 58.6164 47.793 58.5725 48.7428 58.643C49.2157 58.6778 49.6836 58.7354 50.1527 58.8035C50.3865 58.8376 50.6202 58.8631 50.8548 58.8877C51.0957 58.9128 51.3528 58.93 51.5938 58.8928C51.6156 58.8893 51.6205 58.923 51.5994 58.9277C51.3675 58.9782 51.1458 59.0263 50.909 59.0444C50.6839 59.062 50.4557 59.0541 50.2306 59.0397C49.751 59.0087 49.2729 58.9551 48.7933 58.919C47.8261 58.8466 46.8594 58.7746 45.8892 58.7749C45.8444 58.7749 45.8418 58.6962 45.8869 58.6927Z" fill="#263238"/>
<path d="M43.7287 59.9896C44.4801 59.7636 45.2533 59.5718 46.0251 59.4359C46.4132 59.3677 46.8021 59.3231 47.1944 59.289C47.3815 59.2726 47.569 59.2601 47.7568 59.2499C47.9631 59.2385 48.1713 59.2558 48.3776 59.2413C48.3991 59.2397 48.4051 59.2738 48.3833 59.2761C48.1894 59.2957 47.9978 59.3493 47.805 59.3807C47.6115 59.4124 47.4176 59.4425 47.2241 59.4739C46.8368 59.5369 46.4501 59.6047 46.0616 59.6638C45.2846 59.7824 44.5121 59.9089 43.7396 60.0558C43.6974 60.064 43.6899 60.0013 43.7287 59.9896Z" fill="#263238"/>
<path d="M42.8659 43.6754C42.8979 44.0972 44.3804 47.0364 46.1829 47.2322C46.7702 47.2949 47.2423 43.9766 47.2423 43.9766L47.3312 43.74L48.5701 40.4261L45.0743 37.228L44.5645 36.7972C44.5645 36.7972 44.2829 37.7273 43.9437 38.8887C43.9275 38.9423 43.9117 38.9964 43.8955 39.0539C43.8745 39.119 43.8541 39.1804 43.8376 39.2423C43.7845 39.415 43.7314 39.592 43.6821 39.769C43.6441 39.9037 43.606 40.0345 43.571 40.1774C43.5323 40.3199 43.4972 40.459 43.4585 40.6015C43.1038 42.0147 42.8546 43.4969 42.8659 43.6754Z" fill="#F1D5C9"/>
<path d="M43.9434 38.8887C44.4889 41.7684 46.4232 43.213 47.3312 43.74L48.5702 40.4261L45.0743 37.228L44.5646 36.7972C44.5646 36.7972 44.2826 37.7273 43.9434 38.8887Z" fill="#263238"/>
<path d="M54.054 34.7407C55.1578 40.8745 51.7505 42.2544 50.4788 42.5007C49.3241 42.7239 45.366 43.332 43.6587 37.3498C41.9518 31.3675 44.3446 28.8951 46.9592 28.2388C49.5734 27.5825 52.9502 28.6073 54.054 34.7407Z" fill="#F1D5C9"/>
<path d="M53.0421 34.387C52.9005 34.387 52.7699 34.3623 52.6295 34.347C52.4714 34.3298 52.3438 34.3333 52.2161 34.2229C52.1476 34.1638 52.1375 34.0283 52.1864 33.9535C52.3005 33.78 52.4992 33.751 52.6905 33.7632C52.8979 33.7769 53.0545 33.8427 53.2066 33.9891C53.3549 34.1313 53.2292 34.387 53.0421 34.387Z" fill="#263238"/>
<path d="M49.0425 34.714C49.1807 34.6803 49.3023 34.6255 49.4356 34.5773C49.5858 34.5233 49.7108 34.4962 49.8109 34.3584C49.8644 34.2844 49.8448 34.1501 49.7804 34.0894C49.6313 33.9476 49.4314 33.9664 49.2481 34.024C49.0489 34.0866 48.9111 34.1877 48.7948 34.3662C48.6822 34.5393 48.8607 34.7586 49.0425 34.714Z" fill="#263238"/>
<path d="M50.0531 35.8009C50.0478 35.7852 50.0241 35.8256 50.0268 35.8424C50.096 36.2614 50.1073 36.7532 49.7602 36.9459C49.7493 36.9518 49.7535 36.9729 49.7666 36.969C50.2048 36.839 50.1834 36.1862 50.0531 35.8009Z" fill="#263238"/>
<path d="M49.6331 35.4138C48.9754 35.4565 49.1064 36.8215 49.7155 36.7816C50.3153 36.7424 50.1842 35.3778 49.6331 35.4138Z" fill="#263238"/>
<path d="M49.3824 35.5128C49.2751 35.6017 49.1761 35.7497 49.0394 35.7783C48.8809 35.8112 48.7469 35.6808 48.6291 35.5543C48.617 35.541 48.6069 35.5543 48.608 35.5724C48.6295 35.8343 48.7518 36.0924 49.0251 36.1033C49.2743 36.1135 49.4287 35.8637 49.4663 35.5943C49.4731 35.5442 49.4257 35.4764 49.3824 35.5128Z" fill="#263238"/>
<path d="M52.2921 35.3656C52.294 35.3491 52.3256 35.3824 52.3267 35.4C52.3512 35.8241 52.4479 36.3062 52.8282 36.4115C52.8402 36.4146 52.8406 36.4362 52.827 36.4354C52.3723 36.4123 52.2499 35.7717 52.2921 35.3656Z" fill="#263238"/>
<path d="M52.6162 34.889C53.266 34.7746 53.4377 36.1346 52.8361 36.2403C52.2439 36.3445 52.0719 34.9845 52.6162 34.889Z" fill="#263238"/>
<path d="M52.9005 34.9411C53.013 34.9991 53.1316 35.1162 53.2562 35.1076C53.4004 35.0978 53.4877 34.936 53.5611 34.7825C53.5687 34.7665 53.5804 34.7767 53.5834 34.7947C53.6229 35.0535 53.5747 35.3359 53.3409 35.4185C53.1278 35.4941 52.9385 35.2928 52.8466 35.0422C52.8289 34.9956 52.8553 34.9176 52.9005 34.9411Z" fill="#263238"/>
<path d="M50.3824 39.3734C50.4852 39.4674 50.5898 39.5986 50.7386 39.6033C50.8812 39.6076 51.0442 39.5316 51.1715 39.4717C51.1843 39.4658 51.1978 39.4791 51.1903 39.4925C51.0928 39.6612 50.8752 39.776 50.6843 39.7521C50.498 39.729 50.3979 39.568 50.344 39.3949C50.3369 39.3707 50.3677 39.3597 50.3824 39.3734Z" fill="#263238"/>
<path d="M51.9161 37.65C51.9161 37.65 52.0675 38.271 52.0995 38.5683C52.1021 38.5961 52.0343 38.6176 51.938 38.6348C51.9335 38.6368 51.9312 38.6391 51.9267 38.6364C51.4305 38.777 50.9023 38.6548 50.5496 38.2616C50.5266 38.235 50.5597 38.1998 50.5876 38.2154C50.9957 38.4594 51.42 38.4852 51.8687 38.4414C51.88 38.3568 51.5751 37.3868 51.6202 37.3782C51.7753 37.3461 52.095 37.4209 52.2862 37.4558C52.0069 36.153 51.5288 34.9069 51.2694 33.6053C51.2611 33.5587 51.3243 33.5372 51.342 33.5775C51.9319 34.8462 52.2851 36.3386 52.607 37.6762C52.6487 37.8423 52.0359 37.6872 51.9161 37.65Z" fill="#263238"/>
<path d="M51.8975 38.528C51.8975 38.528 51.6859 38.9646 51.3317 39.1722C51.201 39.2489 51.0546 39.2963 50.8905 39.281C50.5531 39.2509 50.494 38.9443 50.5095 38.6701C50.5215 38.445 50.587 38.241 50.587 38.241C50.587 38.241 51.134 38.6149 51.8975 38.528Z" fill="#263238"/>
<path d="M43.6921 37.6885C44.9977 36.9856 45.0048 35.5364 45.0048 35.5364C46.6293 34.7387 47.4745 33.3682 47.5622 33.2288C47.526 33.3592 47.2685 34.3009 47.1225 34.7767C50.9108 33.8894 51.9838 30.808 51.9838 30.808C53.266 32.0446 53.5423 32.8568 53.7358 33.2597C53.7358 33.2597 53.6775 30.8244 52.4167 29.2405C50.8736 27.3009 48.8775 27.7568 48.8775 27.7568C48.8775 27.7568 45.8816 26.9524 43.6722 29.6434C41.294 32.5462 43.6921 37.6885 43.6921 37.6885Z" fill="#263238"/>
<path d="M49.9987 34.0087C49.4039 34.3878 48.7364 34.6536 48.0685 34.831C48.0629 34.8326 48.0614 34.824 48.0667 34.822C49.1302 34.4645 50.0744 33.8415 50.8043 32.9538C51.113 32.5786 51.375 32.1686 51.5851 31.7258C51.8046 31.2629 52.015 30.7135 52.0384 30.1935C52.0403 30.1539 52.0994 30.1571 52.0975 30.1966C52.0726 30.746 52.0444 31.2527 51.8501 31.7716C51.6657 32.2642 51.3916 32.7267 51.049 33.1175C50.7433 33.4671 50.3864 33.762 49.9987 34.0087Z" fill="#263238"/>
<path d="M44.7557 37.0828C44.7557 37.0828 43.2687 35.2783 42.4691 35.8485C41.6695 36.4186 42.9159 39.1276 43.9452 39.4104C44.9745 39.6927 45.2444 38.7071 45.2444 38.7071L44.7557 37.0828Z" fill="#F1D5C9"/>
<path d="M42.8451 36.616C42.8289 36.616 42.8282 36.6399 42.8425 36.6442C43.5664 36.8658 43.9967 37.4998 44.3194 38.1694C44.0871 37.9227 43.7912 37.8048 43.4704 38.0966C43.4535 38.1118 43.4738 38.1396 43.493 38.1334C43.772 38.0406 43.9828 38.0707 44.1978 38.2884C44.3502 38.4427 44.4636 38.6456 44.5799 38.8296C44.6187 38.8911 44.7275 38.8449 44.697 38.7728C44.6947 38.7677 44.6921 38.7623 44.6898 38.7568C44.619 37.8319 43.8066 36.6109 42.8451 36.616Z" fill="#263238"/>
<path d="M39.096 45.8722C33.9102 54.8736 26.0526 75.5908 24.6446 78.55C23.6891 80.5584 33.7788 86.0449 34.2313 84.5804C34.8107 82.7051 42.2082 58.5474 42.8211 47.7283C43.1049 42.7137 40.7547 42.9933 39.096 45.8722Z" fill="#F1D5C9"/>
<path d="M34.5197 83.5694C34.258 85.4 33.0085 89.0739 32.1088 89.6237C31.209 90.1731 26.5329 89.9808 24.1748 89.9448C21.8166 89.9087 21.3622 89.218 21.4126 88.3741C21.4631 87.5302 26.414 87.4449 26.414 87.4449C26.414 87.4449 19.7776 89.3143 18.1107 89.6107C16.4437 89.9072 12.6 90.8536 12.0661 89.411C11.8256 88.761 12.8834 88.1231 12.8834 88.1231C12.8834 88.1231 11.2695 88.5867 11.0256 87.7519C10.7481 86.8015 12.0326 86.3003 12.0326 86.3003C12.0326 86.3003 11.0256 86.4953 11.0132 85.7243C10.9857 84.0009 17.2828 83.2502 17.2828 83.2502C17.2828 83.2502 12.4362 85.6138 12.3014 84.2057C12.1151 82.2568 22.0078 80.2734 23.0465 79.4409C24.0852 78.6084 25.166 77.3608 25.166 77.3608L34.5197 83.5694Z" fill="#F1D5C9"/>
<path d="M21.442 88.8025C21.4168 88.5452 21.503 88.306 21.6754 88.1497C21.84 87.988 22.0425 87.8694 22.2556 87.7707C22.6836 87.5761 23.1474 87.4476 23.6131 87.3352C24.546 87.1038 25.5011 86.9448 26.4535 86.7044C25.4744 86.6743 24.4971 86.7725 23.5367 87.0008C23.0593 87.1234 22.5797 87.2702 22.1389 87.5326C21.9194 87.6607 21.7097 87.8263 21.5516 88.0424C21.3942 88.2606 21.3408 88.566 21.442 88.8025Z" fill="#263238"/>
<path d="M12.8835 88.1231C13.5661 87.9606 14.2388 87.771 14.9108 87.5803C15.5839 87.3932 16.251 87.1864 16.9196 86.9879L18.9194 86.3695C19.5861 86.1628 20.2525 85.9588 20.926 85.7614C20.2269 85.8182 19.5387 85.9596 18.8558 86.1134C18.1714 86.2646 17.4979 86.4577 16.8266 86.6581C16.1577 86.8657 15.4913 87.0818 14.8348 87.3293C14.1775 87.5725 13.5232 87.8259 12.8835 88.1231Z" fill="#263238"/>
<path d="M19.3542 84.0197C18.7115 84.0447 18.0749 84.143 17.4436 84.2648C16.8111 84.3823 16.1881 84.5479 15.5714 84.7359C14.9567 84.9293 14.3472 85.1443 13.7569 85.4094C13.1628 85.6639 12.5861 85.9615 12.0327 86.3002C12.6437 86.0915 13.2388 85.8578 13.8461 85.6573C14.4511 85.4532 15.0553 85.2492 15.6659 85.0656C16.2732 84.8714 16.8868 84.6994 17.5001 84.5217C18.1148 84.3474 18.7322 84.1849 19.3542 84.0197Z" fill="#263238"/>
<path d="M18.405 82.3636C17.3664 82.4121 16.3477 82.6569 15.3609 82.9839C14.3761 83.3183 13.4173 83.7553 12.5495 84.3481C13.5317 84.0008 14.4875 83.6331 15.463 83.3112C16.435 82.978 17.4142 82.6788 18.405 82.3636Z" fill="#263238"/>
<path d="M24.0566 78.0675L35.1201 83.9018C35.1201 83.9018 41.9696 57.9091 42.8095 49.4979C43.6493 41.0866 40.5077 42.9768 38.3035 46.8993C35.2899 52.2624 24.0566 78.0675 24.0566 78.0675Z" fill="#DBDBDB"/>
<path d="M34.8954 80.9539C33.3869 80.2902 27.3088 77.34 26.0371 76.6101C25.949 76.5596 25.9585 76.4891 26.0567 76.5294C30.6232 78.4051 33.4708 80.1614 34.9183 80.8909C34.9549 80.9093 34.9338 80.9708 34.8954 80.9539Z" fill="#263238"/>
<path d="M39.2451 67.3581C39.4288 66.1191 39.6536 64.8899 39.8844 63.6619C40.111 62.4331 40.367 61.2106 40.6234 59.9884C40.8884 58.7683 41.1546 57.5485 41.4493 56.3354L41.8932 54.516C42.0547 53.9126 42.2034 53.3064 42.3766 52.7057C42.2885 53.326 42.1763 53.9408 42.0769 54.5587L41.7377 56.4023C41.5107 57.6311 41.2547 58.8532 40.9979 60.0754C40.7322 61.2952 40.4664 62.5154 40.1712 63.7285C39.8806 64.9424 39.5836 66.1551 39.2451 67.3581Z" fill="#263238"/>
<path d="M41.6967 55.8871C41.7822 55.5605 41.9185 55.2629 42.066 54.9716C42.2204 54.6842 42.3868 54.4034 42.6044 54.1516C42.5193 54.4782 42.383 54.7762 42.2347 55.0671C42.0803 55.3542 41.9139 55.6349 41.6967 55.8871Z" fill="#263238"/>
</svg>
