<svg width="208" height="94" viewBox="0 0 208 94" fill="none" xmlns="http://www.w3.org/2000/svg">
<path d="M94.531 3.8772C95.3069 3.91825 95.8713 4.25123 96.5387 4.63211C96.6495 4.69483 96.7604 4.75755 96.8746 4.82141C97.9446 5.42579 98.9626 6.08036 99.9603 6.79878C100.18 6.95957 100.18 6.95957 100.413 7.07018C100.413 7.14544 100.413 7.22071 100.413 7.29825C100.487 7.31992 100.562 7.34044 100.639 7.36211C101.129 7.5993 101.484 7.95737 101.883 8.32457C102.029 8.45343 102.175 8.58114 102.322 8.71C102.397 8.77614 102.471 8.84228 102.549 8.91071C102.713 9.05667 102.879 9.2015 103.045 9.34518C104.736 10.8356 106.141 12.5541 107.312 14.4825C107.385 14.5931 107.456 14.7037 107.531 14.8177C110.425 19.3461 111.143 25.0775 110.033 30.2957C109.932 30.7302 109.813 31.159 109.688 31.5877C109.654 31.7063 109.621 31.8249 109.586 31.9481C109.476 32.3244 109.357 32.6973 109.235 33.0702C109.195 33.1968 109.195 33.1968 109.153 33.3245C108.705 34.6963 108.187 36.002 107.539 37.2895C107.493 37.3784 107.449 37.4685 107.403 37.5597C106.491 39.3649 105.466 41.0298 104.258 42.6491C104.131 42.8213 104.131 42.8213 104.001 42.9969C103.641 43.4816 103.281 43.9651 102.915 44.444C102.127 45.4806 101.406 46.5389 100.752 47.6667C100.707 47.7442 100.662 47.8206 100.615 47.9004C99.9003 49.1411 99.4332 50.391 99.0554 51.7719C98.9999 51.9669 98.9999 51.9669 98.9423 52.1654C98.5622 53.5714 98.5735 55.0014 98.6029 56.4474C98.6063 56.6287 98.6063 56.6287 98.6086 56.8123C98.6561 57.8591 98.9095 58.8604 99.1504 59.8753C99.2488 60.2892 99.3336 60.7009 99.3947 61.1228C97.6698 60.7773 95.998 60.0634 94.4178 59.2982C94.2391 59.2139 94.0615 59.1306 93.8828 59.0462C93.2675 58.7554 92.6544 58.459 92.0425 58.1579C91.9577 58.1157 91.8729 58.0747 91.7846 58.0313C87.6403 55.9707 82.8455 52.5554 80.8446 48.2368C80.7665 48.0772 80.7665 48.0772 80.6862 47.9141C78.9839 44.3676 78.9873 40.4551 80.1942 36.7512C80.2677 36.5243 80.339 36.2962 80.4091 36.0682C80.9713 34.3405 81.9112 32.7361 82.9303 31.2456C82.9846 31.1658 83.0378 31.086 83.0932 31.0039C83.3217 30.6697 83.5513 30.3436 83.8035 30.0266C84.0151 29.77 84.0151 29.77 84.1712 29.4918C85.0014 28.1074 86.1992 26.9716 87.336 25.8472C88.0124 25.1744 88.6175 24.4868 89.1831 23.7193C89.4319 23.3886 89.6966 23.0887 89.9783 22.7854C90.399 22.3247 90.7293 21.8434 91.0471 21.3063C91.2146 21.0406 91.3887 20.7954 91.5776 20.5457C93.1272 18.4851 94.4212 16.0299 95.2096 13.5702C95.2526 13.4402 95.2944 13.3102 95.3386 13.1756C96.2355 10.2312 96.2932 7.38948 94.8918 4.60474C94.7572 4.33334 94.7572 4.33334 94.7572 4.10527C94.6825 4.10527 94.6079 4.10527 94.531 4.10527C94.531 4.03 94.531 3.95474 94.531 3.8772Z" fill="white"/>
<path d="M112.855 26C114.211 27.3194 115.2 29.6252 115.909 31.3596C115.988 31.5489 115.988 31.5489 116.068 31.7428C117.98 36.3852 118.871 41.454 117.153 46.2982C117.106 46.4339 117.059 46.5685 117.011 46.7088C116.749 47.4318 116.453 48.0601 116.022 48.693C115.927 48.8469 115.927 48.8469 115.829 49.0043C115.263 49.9018 114.605 50.6704 113.873 51.4298C113.807 51.4982 113.743 51.5678 113.675 51.6385C112.441 52.9351 111.159 53.9956 109.666 54.9832C108.732 55.6012 107.833 56.2695 106.929 56.9297C106.48 57.2582 106.03 57.5832 105.573 57.9013C104.618 58.5707 103.697 59.2857 102.795 60.0246C102.562 60.2105 102.562 60.2105 102.222 60.4386C101.996 60.3246 101.996 60.3246 101.883 59.987C101.068 56.8168 101.148 53.8713 102.562 50.8596C102.614 50.7468 102.614 50.7468 102.667 50.6316C103.669 48.4877 105.032 46.5662 106.537 44.7508C107.98 43.0083 109.062 41.0435 110.027 39C110.089 38.8689 110.152 38.7377 110.216 38.6032C110.887 37.1504 111.355 35.6211 111.837 34.0965C111.864 34.0132 111.891 33.93 111.918 33.8445C112.591 31.769 112.879 29.5374 112.862 27.3616C112.862 27.2304 112.861 27.0982 112.861 26.9636C112.859 26.642 112.857 26.3216 112.855 26Z" fill="white"/>
<path d="M24.804 78.996V93.0001H20.484C20.244 91.8961 20.124 91.104 20.124 90.6241C20.124 90.576 20.124 90.5161 20.124 90.444C20.124 90.348 20.124 90.2641 20.124 90.1921C18.3 92.4961 15.72 93.6481 12.384 93.6481C8.424 93.6481 5.292 92.2441 2.988 89.4361C0.996 86.9881 0 83.9041 0 80.1841C0 75.864 1.368 72.4321 4.104 69.8881C6.48 67.68 9.468 66.576 13.068 66.576C16.332 66.576 19.044 67.5601 21.204 69.5281C23.076 71.232 24.144 73.38 24.408 75.972H17.892C17.316 73.404 15.672 72.12 12.96 72.12C10.992 72.12 9.48 72.828 8.424 74.2441C7.368 75.6361 6.84 77.6401 6.84 80.2561C6.84 85.4881 8.976 88.104 13.248 88.104C16.392 88.104 18.192 86.6641 18.648 83.784H13.968V78.996H24.804Z" fill="white"/>
<path d="M42.2747 74.2081L42.2387 79.248C41.3507 78.9841 40.5107 78.8521 39.7187 78.8521C36.5987 78.8521 35.0387 80.8561 35.0387 84.864V93.0001H28.9187V74.316H34.8227V77.5201C35.5427 75.048 37.5467 73.812 40.8347 73.812C41.2187 73.812 41.6987 73.944 42.2747 74.2081Z" fill="white"/>
<path d="M63.207 87.2761C62.919 88.3801 62.367 89.4 61.551 90.3361C59.703 92.448 57.147 93.5041 53.883 93.5041C50.931 93.5041 48.543 92.6881 46.719 91.0561C44.679 89.2321 43.659 86.82 43.659 83.82C43.659 80.6761 44.715 78.1561 46.827 76.26C48.651 74.628 50.919 73.812 53.631 73.812C56.919 73.812 59.451 74.892 61.227 77.052C62.787 78.948 63.567 81.432 63.567 84.504C63.567 84.72 63.567 84.9121 63.567 85.08H49.671C49.719 86.424 50.115 87.4801 50.859 88.2481C51.603 88.9921 52.611 89.364 53.883 89.364C55.443 89.364 56.631 88.6681 57.447 87.2761H63.207ZM57.555 81.5881C57.243 79.1641 55.959 77.9521 53.703 77.9521C51.423 77.9521 50.103 79.1641 49.743 81.5881H57.555Z" fill="white"/>
<path d="M85.1797 87.2761C84.8917 88.3801 84.3397 89.4 83.5237 90.3361C81.6757 92.448 79.1197 93.5041 75.8557 93.5041C72.9037 93.5041 70.5157 92.6881 68.6917 91.0561C66.6517 89.2321 65.6317 86.82 65.6317 83.82C65.6317 80.6761 66.6877 78.1561 68.7997 76.26C70.6237 74.628 72.8917 73.812 75.6037 73.812C78.8917 73.812 81.4237 74.892 83.1997 77.052C84.7597 78.948 85.5397 81.432 85.5397 84.504C85.5397 84.72 85.5397 84.9121 85.5397 85.08H71.6437C71.6917 86.424 72.0877 87.4801 72.8317 88.2481C73.5757 88.9921 74.5837 89.364 75.8557 89.364C77.4157 89.364 78.6037 88.6681 79.4197 87.2761H85.1797ZM79.5277 81.5881C79.2157 79.1641 77.9317 77.9521 75.6757 77.9521C73.3957 77.9521 72.0757 79.1641 71.7157 81.5881H79.5277Z" fill="white"/>
<path d="M94.5883 74.316V76.8C96.0763 74.808 98.1163 73.812 100.708 73.812C103.204 73.812 105.028 74.64 106.18 76.2961C106.924 77.4001 107.296 79.104 107.296 81.408V93.0001H101.14V82.4161C101.14 81.4321 101.044 80.7001 100.852 80.22C100.468 79.284 99.6163 78.816 98.2963 78.816C96.8563 78.816 95.8483 79.368 95.2723 80.472C94.9603 81.048 94.8043 81.9 94.8043 83.028V93.0001H88.6843V74.316H94.5883Z" fill="white"/>
<path d="M118.221 67.2241H130.605C133.125 67.2241 135.033 67.5481 136.329 68.1961C138.537 69.3001 139.641 71.1361 139.641 73.7041C139.641 76.0321 138.513 77.772 136.257 78.924C137.265 79.284 138.009 79.6561 138.489 80.0401C140.073 81.2401 140.865 82.9921 140.865 85.2961C140.865 88.1521 139.713 90.2761 137.409 91.6681C135.945 92.5561 133.941 93.0001 131.397 93.0001H118.221V67.2241ZM124.953 72.3721V77.376H129.741C131.973 77.376 133.089 76.548 133.089 74.892C133.089 73.212 131.913 72.3721 129.561 72.3721H124.953ZM124.953 81.7681V87.7081H130.245C132.789 87.7081 134.061 86.7241 134.061 84.7561C134.061 82.764 132.741 81.7681 130.101 81.7681H124.953Z" fill="white"/>
<path d="M162.266 93.0001H156.038C155.846 92.4001 155.738 91.8121 155.714 91.2361C154.562 92.7481 152.522 93.5041 149.594 93.5041C147.41 93.5041 145.73 92.9281 144.554 91.7761C143.522 90.7681 143.006 89.4361 143.006 87.7801C143.006 85.5 144.014 83.8921 146.03 82.9561C146.894 82.5721 148.67 82.128 151.358 81.6241L155.606 80.832V79.7161C155.558 78.3481 154.61 77.6641 152.762 77.6641C151.754 77.6641 151.01 77.844 150.53 78.2041C150.074 78.5401 149.774 79.1521 149.63 80.0401H143.834C144.05 75.8881 147.05 73.812 152.834 73.812C155.906 73.812 158.21 74.364 159.746 75.4681C160.466 76.0201 160.958 76.6441 161.222 77.34C161.486 78.0121 161.618 79.0441 161.618 80.4361C161.618 80.6761 161.606 81.4201 161.582 82.6681V83.0641L161.546 86.16C161.546 87 161.546 87.5641 161.546 87.8521C161.546 88.1401 161.534 88.5961 161.51 89.2201C161.51 89.5561 161.51 89.8201 161.51 90.0121C161.51 91.3561 161.762 92.3521 162.266 93.0001ZM155.678 84.4681L152.87 85.08C151.406 85.416 150.434 85.7521 149.954 86.0881C149.474 86.4241 149.234 86.9281 149.234 87.6C149.234 89.0641 150.062 89.7961 151.718 89.7961C153.11 89.7961 154.19 89.3041 154.958 88.3201C155.39 87.7921 155.618 86.9521 155.642 85.8001L155.678 84.4681Z" fill="white"/>
<path d="M171.299 74.316V76.8C172.787 74.808 174.827 73.812 177.419 73.812C179.915 73.812 181.739 74.64 182.891 76.2961C183.635 77.4001 184.007 79.104 184.007 81.408V93.0001H177.851V82.4161C177.851 81.4321 177.755 80.7001 177.563 80.22C177.179 79.284 176.327 78.816 175.007 78.816C173.567 78.816 172.559 79.368 171.983 80.472C171.671 81.048 171.515 81.9 171.515 83.028V93.0001H165.395V74.316H171.299Z" fill="white"/>
<path d="M206.971 74.316L200.095 81.3L207.907 93.0001H200.563L195.919 85.4401L194.191 87.024V93.0001H188.071V67.2241H194.191V80.6881C194.671 79.9681 195.115 79.3921 195.523 78.9601L199.879 74.316H206.971Z" fill="white"/>
</svg>
