<svg width="49" height="48" viewBox="0 0 49 48" fill="none" xmlns="http://www.w3.org/2000/svg">
<rect x="0.5" width="48" height="48" rx="24" fill="#5CC623"/>
<path d="M13.912 18.3529L20.9708 29.6471M33.2842 36C35.3906 32.3515 36.4996 28.2129 36.4996 24C36.4996 19.7871 35.3906 15.6485 33.2842 12M27.1713 32.4706C28.6582 29.8952 29.4409 26.9738 29.4409 24C29.4409 21.0262 28.6582 18.1048 27.1713 15.5294M20.8691 29.6471C21.8604 27.9301 22.3823 25.9825 22.3823 24C22.3823 22.0175 21.8604 20.0699 20.8691 18.3529M14.0136 29.6471C13.0223 27.9301 12.5005 25.9825 12.5005 24C12.5005 22.0175 13.0223 20.0699 14.0136 18.3529" stroke="white" stroke-width="2" stroke-linecap="round"/>
</svg>
