<svg width="294" height="281" viewBox="0 0 294 281" fill="none" xmlns="http://www.w3.org/2000/svg">
<g opacity="0.9">
<path d="M104.134 106.411C104.16 107.697 103.923 108.976 103.436 110.175C102.821 111.43 101.787 112.452 100.498 113.081C100.051 113.335 99.5 113.63 98.851 113.958C98.1667 114.291 97.513 114.678 96.8968 115.117C96.2847 115.565 95.7521 116.106 95.3196 116.717C94.8834 117.343 94.6569 118.081 94.6705 118.833C94.6622 119.354 94.7743 119.869 94.9988 120.343C95.2232 120.816 95.5545 121.236 95.9686 121.572C96.368 121.881 96.8286 122.109 97.3225 122.242C97.8354 122.396 98.3694 122.475 98.9068 122.476C99.5164 122.484 100.121 122.374 100.686 122.155C101.205 121.95 101.691 121.678 102.131 121.345C102.561 121.019 102.95 120.646 103.29 120.233C103.603 119.858 103.895 119.467 104.162 119.061L108.035 121.619C107.662 122.478 107.143 123.273 106.5 123.97C105.868 124.651 105.131 125.236 104.316 125.704C103.488 126.177 102.595 126.535 101.664 126.769C100.705 127.014 99.7172 127.137 98.7253 127.137C97.5928 127.135 96.4667 126.975 95.3824 126.662C94.3019 126.359 93.2957 125.851 92.4232 125.168C91.5232 124.451 90.7949 123.555 90.2876 122.543C89.7093 121.347 89.4274 120.038 89.4641 118.719C89.4499 117.902 89.5628 117.087 89.7991 116.302C90.011 115.623 90.3337 114.982 90.7552 114.4C91.172 113.828 91.6647 113.31 92.2208 112.86C92.8259 112.369 93.4674 111.922 94.1401 111.521C94.7356 111.172 95.3289 110.844 95.9198 110.536C96.4948 110.235 97.0392 109.883 97.5459 109.485C98.0238 109.108 98.43 108.655 98.7463 108.145C99.0735 107.591 99.2353 106.961 99.2139 106.324L104.134 106.411ZM104.043 96.4597V102.353H99.1022V96.4597H104.043Z" fill="#EBEBEB"/>
<path d="M188.763 97.7054C188.737 96.4192 188.974 95.1406 189.461 93.9419C190.076 92.6867 191.11 91.6641 192.399 91.0355C192.845 90.781 193.397 90.4864 194.046 90.1582C194.73 89.8256 195.384 89.438 196 88.9997C196.612 88.5512 197.145 88.0107 197.577 87.3992C198.013 86.7738 198.24 86.0354 198.226 85.2831C198.235 84.7628 198.123 84.2473 197.898 83.7736C197.674 83.3 197.342 82.88 196.928 82.5441C196.532 82.2233 196.071 81.984 195.574 81.841C195.061 81.6871 194.527 81.6081 193.99 81.6066C193.38 81.5993 192.775 81.7086 192.21 81.928C191.692 82.1325 191.206 82.4052 190.766 82.7383C190.335 83.0639 189.947 83.4371 189.607 83.85C189.293 84.2244 189.002 84.6157 188.735 85.0219L184.833 82.4705C185.207 81.6112 185.726 80.817 186.369 80.1199C187.003 79.4403 187.739 78.8557 188.553 78.3855C189.381 77.9128 190.274 77.5544 191.205 77.3207C192.164 77.0761 193.152 76.9523 194.144 76.9524C195.276 76.9541 196.402 77.1143 197.487 77.4279C198.567 77.7309 199.573 78.2387 200.446 78.9212C201.346 79.639 202.074 80.5343 202.581 81.5463C203.16 82.7428 203.442 84.0516 203.405 85.3701C203.419 86.1875 203.306 87.0022 203.07 87.7876C202.858 88.4661 202.535 89.108 202.114 89.6895C201.697 90.2618 201.204 90.7796 200.648 91.2297C200.043 91.7202 199.402 92.1678 198.729 92.569C198.133 92.9173 197.54 93.2454 196.949 93.5535C196.374 93.8545 195.83 94.2065 195.323 94.6048C194.845 94.9812 194.439 95.4344 194.123 95.9442C193.795 96.4986 193.634 97.1288 193.655 97.7657L188.763 97.7054ZM188.853 107.657V101.764H193.795V107.657H188.853Z" fill="#EBEBEB"/>
<path d="M150.406 33.203C150.422 34.1517 150.241 35.094 149.875 35.9754C149.423 36.9008 148.661 37.6549 147.712 38.1184C147.386 38.3059 146.981 38.5291 146.497 38.788C146.008 39.0383 145.541 39.3272 145.102 39.6519C144.646 39.9635 144.247 40.346 143.922 40.7837C143.597 41.2433 143.429 41.7885 143.441 42.344C143.434 42.7468 143.525 43.1456 143.706 43.5092C143.876 43.8353 144.113 44.1247 144.404 44.3597C144.698 44.5922 145.037 44.7674 145.402 44.8753C145.779 44.9891 146.172 45.0478 146.567 45.0494C147.019 45.0539 147.467 44.9743 147.886 44.815C148.267 44.661 148.623 44.4582 148.947 44.2124C149.265 43.9729 149.553 43.6987 149.806 43.3954C150.035 43.1195 150.247 42.831 150.441 42.5315L153.302 44.4199C153.026 45.0548 152.642 45.641 152.164 46.1544C151.699 46.6531 151.158 47.082 150.559 47.4268C149.95 47.7767 149.292 48.0427 148.605 48.217C147.899 48.3941 147.172 48.4841 146.442 48.4848C145.607 48.4827 144.778 48.3654 143.978 48.1366C143.181 47.9106 142.438 47.535 141.794 47.0317C141.128 46.5041 140.589 45.8437 140.216 45.0963C139.791 44.2139 139.583 43.2491 139.609 42.277C139.601 41.675 139.683 41.0751 139.853 40.4957C140.009 39.9974 140.245 39.5252 140.551 39.0961C140.855 38.6724 141.219 38.2915 141.633 37.9644C142.072 37.6052 142.539 37.2784 143.029 36.9866C143.469 36.7322 143.908 36.4911 144.341 36.2634C144.765 36.0405 145.167 35.7805 145.541 35.4866C145.898 35.224 146.205 34.9046 146.449 34.5423C146.688 34.1342 146.806 33.671 146.791 33.203H150.406ZM150.336 25.8367V30.1828H146.693V25.8635L150.336 25.8367Z" fill="#EBEBEB"/>
<path d="M262.015 203.064L271.785 202.877L276.594 202.803C278.192 202.77 279.783 202.803 281.382 202.763L281.068 203.064L281.033 195.216L281.382 195.551L271.688 195.477C268.463 195.477 265.239 195.403 262.015 195.37L262.203 195.189C262.203 196.475 262.14 197.767 262.112 199.073L262.015 203.064ZM262.015 203.064L261.91 199.18C261.91 197.841 261.833 196.548 261.819 195.216V195.035H262.015C265.239 194.995 268.463 194.928 271.688 194.921L281.368 194.881H281.717V195.216L281.675 203.064V203.366H281.368C279.735 203.366 278.101 203.366 276.482 203.366L271.597 203.292L262.015 203.064Z" fill="#EBEBEB"/>
<path d="M272.812 212.955L282.582 212.774L287.391 212.694C288.989 212.694 290.58 212.694 292.179 212.694L291.864 212.989V205.147L292.213 205.475L282.533 205.435C279.309 205.435 276.085 205.361 272.86 205.328L273.049 205.147C273.049 206.426 272.986 207.718 272.958 209.031L272.812 212.955ZM272.812 212.955L272.707 209.071C272.707 207.765 272.63 206.439 272.616 205.113V204.932H272.812C276.036 204.899 279.26 204.825 282.485 204.825L292.165 204.785H292.514V205.127L292.479 212.968V213.27H292.172C290.538 213.27 288.905 213.27 287.286 213.23L282.401 213.156L272.812 212.955Z" fill="#EBEBEB"/>
<path d="M52.7057 109.331L62.4763 109.143L67.2849 109.07C68.8831 109.07 70.4744 109.07 72.0726 109.036L71.7585 109.331L71.7236 101.482L72.0726 101.817L62.3926 101.777C59.1683 101.777 55.9439 101.703 52.7196 101.67L52.9081 101.482C52.9081 102.768 52.8452 104.06 52.8173 105.366L52.7057 109.331ZM52.7057 109.331L52.608 105.447C52.5731 104.141 52.5242 102.815 52.5103 101.482V101.301H52.7057C55.93 101.268 59.1543 101.194 62.3786 101.194L72.0586 101.147H72.4076V101.482V109.331V109.632H72.1005C70.4674 109.632 68.8343 109.632 67.2151 109.592L62.3298 109.518L52.7057 109.331Z" fill="#EBEBEB"/>
<path d="M63.6767 119.229L73.4474 119.041L78.256 118.967C79.8542 118.934 81.4454 118.967 83.0436 118.927L82.7296 119.229L82.6947 111.38L83.0436 111.715L73.3637 111.675C70.1393 111.675 66.915 111.601 63.6837 111.561L63.8791 111.38C63.8791 112.666 63.8163 113.958 63.7884 115.264L63.6767 119.229ZM63.6767 119.229L63.579 115.344C63.579 114.005 63.5022 112.713 63.4883 111.38V111.199H63.6767C66.908 111.166 70.1323 111.092 73.3567 111.085L83.0366 111.045H83.3856V111.38L83.3437 119.229V119.53H83.0366C81.4035 119.53 79.7704 119.53 78.1513 119.49L73.2659 119.416L63.6767 119.229Z" fill="#EBEBEB"/>
<path d="M0.732869 212.955L10.5036 212.774L15.3121 212.694C16.9173 212.694 18.5085 212.694 20.0998 212.694L19.7927 212.989L19.7508 205.147L20.0998 205.475L10.4268 205.435C7.19548 205.435 3.97115 205.361 0.746827 205.328L0.935262 205.147C0.935262 206.426 0.879429 207.718 0.844534 209.031L0.732869 212.955ZM0.732869 212.955L0.635162 209.071C0.635162 207.765 0.558392 206.439 0.544434 205.113V204.932H0.732869C3.9572 204.899 7.18152 204.825 10.4128 204.825L20.0858 204.785H20.4417V205.127V212.968V213.27H20.1277C18.5016 213.27 16.8685 213.27 15.2423 213.23L10.357 213.156L0.732869 212.955Z" fill="#EBEBEB"/>
<path d="M11.5293 27.2898L21.2999 27.1023L26.1085 27.0286C27.7137 27.0286 29.3049 27.0286 30.8962 27.0286L30.5891 27.3233L30.5472 19.4748L30.8962 19.8096L21.2232 19.7694C17.9988 19.7694 14.7675 19.6958 11.5432 19.6556L11.7316 19.4748C11.7316 20.7605 11.6758 22.053 11.6409 23.3588L11.5293 27.2898ZM11.5293 27.2898L11.4315 23.4057C11.4315 22.0664 11.3548 20.7739 11.3408 19.4413V19.2605H11.5293C14.7536 19.2605 17.9849 19.1533 21.2092 19.1533L30.8822 19.1064H31.2381V19.4413V27.2898V27.5911H30.9241C29.298 27.5911 27.6649 27.5911 26.0387 27.551L21.1534 27.4773L11.5293 27.2898Z" fill="#EBEBEB"/>
<path d="M0.732869 37.1875L10.5036 37L15.3121 36.9263C16.9173 36.9263 18.5085 36.9263 20.0998 36.8861L19.7927 37.1875L19.7508 29.339L20.0998 29.6738L10.4268 29.6336C7.19548 29.6336 3.97115 29.5533 0.746827 29.5198L0.935262 29.339C0.935262 30.6247 0.879429 31.9172 0.844534 33.2231L0.732869 37.1875ZM0.732869 37.1875L0.635162 33.3034C0.635162 31.9641 0.558392 30.6716 0.544434 29.339V29.1582H0.732869C3.9572 29.118 7.18152 29.051 10.4128 29.0443L20.0858 29.0042H20.4417V29.339V37.1875V37.4888H20.1277C18.5016 37.4888 16.8685 37.4888 15.2423 37.4888L10.357 37.4152L0.732869 37.1875Z" fill="#EBEBEB"/>
<path d="M272.812 27.2898L282.582 27.1023L287.391 27.0286C288.989 27.0286 290.58 27.0286 292.179 27.0286L291.864 27.3233V19.4748L292.213 19.8096L282.533 19.7694C279.309 19.7694 276.085 19.6958 272.86 19.6556L273.049 19.4748C273.049 20.7605 272.986 22.053 272.958 23.3588L272.812 27.2898ZM272.812 27.2898L272.707 23.4057C272.707 22.0664 272.63 20.7739 272.616 19.4413V19.2605H272.812C276.036 19.2605 279.26 19.1533 282.485 19.1533L292.165 19.1064H292.514V19.4413L292.479 27.2898V27.5911H292.172C290.538 27.5911 288.905 27.5911 287.286 27.551L282.401 27.4773L272.812 27.2898Z" fill="#EBEBEB"/>
<path d="M74.6552 109.331L84.4259 109.143L89.2205 109.09C90.8187 109.09 92.41 109.09 94.0082 109.056L93.6941 109.351V101.502L94.0431 101.837L84.3352 101.777C81.1109 101.777 77.8796 101.703 74.6552 101.67L74.8506 101.482C74.8506 102.768 74.7878 104.06 74.7529 105.366L74.6552 109.331ZM74.6552 109.331L74.5575 105.447C74.5575 104.141 74.4808 102.815 74.4668 101.482V101.301H74.6552C77.8796 101.268 81.1109 101.194 84.3352 101.194L94.0151 101.147H94.3641V101.482L94.3292 109.331V109.632H94.0221C92.389 109.632 90.7559 109.632 89.1368 109.592L84.2514 109.518L74.6552 109.331Z" fill="#EBEBEB"/>
<path d="M65.7499 260.836H10.1338V272.315H65.7499V260.836Z" fill="#C7C7C7"/>
<path d="M30.6319 260.836H25.4106V272.315H30.6319V260.836Z" fill="#DBDBDB"/>
<path d="M21.4331 260.836H19.4995V272.315H21.4331V260.836Z" fill="#DBDBDB"/>
<path d="M59.525 260.836H54.3037V272.315H59.525V260.836Z" fill="#DBDBDB"/>
<path d="M71.4585 252.814H7.93506V260.836H71.4585V252.814Z" fill="#DBDBDB"/>
<path d="M34.4487 254.454H13.1416V259.269H34.4487V254.454Z" fill="#EBEBEB"/>
<path d="M59.7128 242.179H9.50537V252.82H59.7128V242.179Z" fill="#A6A6A6"/>
<path d="M55.2467 242.179H51.3237V252.82H55.2467V242.179Z" fill="#C7C7C7"/>
<path d="M48.7488 242.179H47.2271V252.82H48.7488V242.179Z" fill="#C7C7C7"/>
<path d="M98.5106 264.484L65.7227 228.71L56.478 236.511L89.266 272.285L98.5106 264.484Z" fill="#A6A6A6"/>
<path d="M95.0255 260.685L91.9697 257.351L82.7251 265.152L85.7809 268.486L95.0255 260.685Z" fill="#C7C7C7"/>
<path d="M75.5411 239.42L72.4854 236.086L63.2407 243.888L66.2965 247.222L75.5411 239.42Z" fill="#C7C7C7"/>
<path d="M78.8007 242.979L77.6162 241.687L68.3716 249.488L69.5561 250.78L78.8007 242.979Z" fill="#C7C7C7"/>
<path d="M253.528 243.492C253.528 243.492 260.04 221.058 265.246 213.437C270.453 205.817 280.146 197.446 280.146 197.446C280.146 197.446 279.916 232.041 253.528 243.492Z" fill="#6CCC38"/>
<path d="M253.996 243.11C256.186 239.597 258.168 235.968 259.935 232.241C260.678 228.231 261.758 224.285 263.166 220.442C263.166 220.368 263.299 220.442 263.285 220.482C262.419 224.025 261.414 227.54 260.493 231.07C263.124 225.612 265.623 220.08 268.749 214.917C269.476 212.424 270.489 210.016 271.771 207.738C271.806 207.678 271.918 207.738 271.89 207.779C271.099 209.523 270.418 211.312 269.852 213.136C271.33 210.834 272.986 208.642 274.807 206.58C274.919 206.453 275.149 206.58 275.038 206.727C270.85 211.857 267.954 217.69 265.204 223.603C268.162 220.521 270.893 217.245 273.377 213.799C273.377 213.759 273.46 213.799 273.432 213.832C270.847 217.697 267.919 221.34 264.681 224.721C262.678 229.047 260.703 233.427 258.316 237.512C263.089 233.641 266.767 228.625 270.403 223.79C270.412 223.779 270.422 223.77 270.434 223.763C270.446 223.756 270.46 223.751 270.473 223.749C270.487 223.747 270.502 223.747 270.515 223.75C270.529 223.753 270.542 223.759 270.554 223.767C270.565 223.775 270.575 223.785 270.582 223.796C270.59 223.808 270.595 223.821 270.597 223.834C270.599 223.847 270.599 223.861 270.595 223.874C270.592 223.887 270.586 223.9 270.578 223.911C266.942 229.215 263.18 234.21 257.946 238.141C256.884 239.949 255.719 241.7 254.456 243.385C254.412 243.427 254.354 243.453 254.292 243.46C254.229 243.466 254.167 243.452 254.114 243.421C254.061 243.389 254.02 243.341 253.999 243.285C253.977 243.229 253.976 243.167 253.996 243.11Z" fill="#263238"/>
<path d="M251.504 245.514C251.504 245.514 263.215 224.828 259.816 204.772C256.418 184.715 252.774 177.57 252.774 177.57C252.774 177.57 234.385 208.763 251.504 245.514Z" fill="#6CCC38"/>
<path d="M246.703 212.989C247.691 218.686 249.202 224.288 251.218 229.73C251.253 222.364 251.4 214.998 251.602 207.631C250.287 203.165 249.546 198.562 249.397 193.923C249.397 193.789 249.599 193.796 249.613 193.923C249.984 197.898 250.67 201.841 251.665 205.716C251.842 199.649 252.047 193.579 252.279 187.508C252.279 187.486 252.288 187.466 252.304 187.451C252.32 187.436 252.341 187.427 252.363 187.427C252.385 187.427 252.407 187.436 252.422 187.451C252.438 187.466 252.447 187.486 252.447 187.508C252.447 196.99 252.447 206.479 252.384 215.969C253.807 212.3 254.934 208.532 255.755 204.698C255.755 204.658 255.825 204.698 255.825 204.698C255.476 209.131 254.066 213.404 252.335 217.522C252.286 223.589 252.217 229.65 252.077 235.71C254.059 229.268 256.174 223.02 256.746 216.21C256.746 216.19 256.754 216.171 256.768 216.158C256.783 216.144 256.802 216.136 256.823 216.136C256.843 216.136 256.863 216.144 256.877 216.158C256.891 216.171 256.899 216.19 256.899 216.21C256.739 223.717 254.722 231.344 252.14 238.409C252.116 238.477 252.072 238.538 252.014 238.583C251.951 240.8 251.888 243.016 251.812 245.233C251.812 245.299 251.785 245.362 251.736 245.408C251.688 245.455 251.622 245.481 251.554 245.481C251.485 245.481 251.419 245.455 251.371 245.408C251.322 245.362 251.295 245.299 251.295 245.233C251.207 240.697 251.167 236.164 251.177 231.632C248.629 225.695 247.072 219.41 246.563 213.009C246.591 212.948 246.689 212.935 246.703 212.989Z" fill="#263238"/>
<path d="M247.505 209.794C247.914 211.595 248.187 213.421 248.322 215.259C248.322 215.273 248.316 215.287 248.306 215.297C248.295 215.307 248.281 215.312 248.266 215.312C248.251 215.312 248.237 215.307 248.227 215.297C248.216 215.287 248.21 215.273 248.21 215.259C247.757 213.466 247.435 211.644 247.247 209.808C247.233 209.68 247.478 209.654 247.505 209.794Z" fill="#263238"/>
<path d="M254.352 194.666C254.352 194.606 254.463 194.626 254.463 194.666C254.443 195.943 254.246 197.21 253.877 198.437C253.871 198.457 253.856 198.474 253.836 198.484C253.817 198.494 253.794 198.496 253.772 198.49C253.751 198.484 253.733 198.47 253.723 198.451C253.712 198.432 253.71 198.41 253.717 198.39C253.968 197.164 254.128 195.919 254.352 194.666Z" fill="#263238"/>
<path d="M247.24 247.095C247.24 247.095 247.715 225.505 241.259 214.77C234.804 204.035 224.098 198.564 224.098 198.564C224.098 198.564 228.411 236.634 247.24 247.095Z" fill="#6CCC38"/>
<path d="M235.474 228.632C238.07 232.404 240.993 235.959 244.211 239.26C242.923 234.84 241.431 230.498 239.738 226.235C236.123 223.188 232.528 220.034 230.309 215.868C230.274 215.801 230.372 215.741 230.414 215.808C232.801 219.498 235.997 222.451 239.354 225.29C236.767 218.868 233.767 212.606 230.372 206.54C230.353 206.509 230.347 206.471 230.356 206.436C230.365 206.401 230.388 206.371 230.421 206.352C230.453 206.334 230.492 206.328 230.529 206.337C230.565 206.346 230.597 206.368 230.616 206.399C232.681 209.576 234.561 212.861 236.248 216.237C235.648 213.926 235.16 211.549 234.538 209.272C234.542 209.262 234.55 209.253 234.559 209.247C234.568 209.24 234.579 209.237 234.591 209.237C234.602 209.237 234.613 209.24 234.623 209.247C234.632 209.253 234.639 209.262 234.643 209.272C235.91 212.212 236.8 215.288 237.295 218.433C239.556 223.222 241.455 228.162 242.976 233.213C242.816 229.971 242.599 226.75 242.278 223.523C242.278 223.462 242.383 223.449 242.39 223.523C243.111 227.105 243.441 230.75 243.374 234.398C244.304 237.617 245.084 240.869 245.712 244.155C245.712 244.242 245.593 244.282 245.572 244.188C245.223 242.816 244.84 241.45 244.449 240.09C244.426 240.095 244.402 240.095 244.379 240.09C240.889 236.742 237.63 232.965 235.467 228.706L235.474 228.632Z" fill="#263238"/>
<path d="M227.992 211.06C228.69 211.803 229.388 212.587 230.086 213.357C230.763 214.002 231.384 214.698 231.943 215.44C231.948 215.446 231.95 215.454 231.95 215.462C231.949 215.47 231.946 215.478 231.94 215.483C231.934 215.489 231.926 215.492 231.917 215.493C231.909 215.494 231.901 215.491 231.894 215.486C231.087 214.914 230.366 214.238 229.751 213.477C229.07 212.754 228.454 211.976 227.908 211.154C227.852 211.073 227.943 211.006 227.992 211.06Z" fill="#263238"/>
<path d="M266.419 244.463L265.602 251.387L263.153 272.314H241.762L239.312 251.387L238.496 244.463H266.412H266.419Z" fill="#455A64"/>
<path d="M266.419 244.463L265.602 251.387H239.312L238.496 244.463H266.412H266.419Z" fill="#37474F"/>
<path d="M236.597 247.289H268.317V239.447H236.597V247.289Z" fill="#455A64"/>
<path d="M6.15576 272.489L41.2325 272.328L76.3023 272.268L146.449 272.154L216.595 272.268L251.665 272.321L286.742 272.489L251.665 272.649L216.595 272.71L146.449 272.823L76.3023 272.71L41.2325 272.649L6.15576 272.489Z" fill="#263238"/>
<path d="M167.812 218.915V219.009C167.812 219.009 167.812 219.049 167.812 219.076C167.812 219.103 167.812 219.183 167.777 219.257V219.377C167.755 219.463 167.738 219.55 167.728 219.638C167.728 219.699 167.728 219.759 167.693 219.826C167.658 219.893 167.644 220.107 167.609 220.268C167.574 220.429 167.505 220.81 167.449 221.132L167.135 222.766C167.1 222.94 167.065 223.127 167.03 223.322C166.995 223.516 166.932 223.844 166.877 224.118C166.821 224.393 166.765 224.735 166.702 225.063C166.66 225.29 166.611 225.525 166.569 225.766C166.437 226.482 166.297 227.246 166.137 228.063C166.133 228.083 166.133 228.103 166.137 228.123C165.969 229.034 165.788 230.012 165.592 231.036C165.544 231.304 165.488 231.572 165.432 231.84C165.376 232.108 165.32 232.402 165.271 232.684C165.271 232.858 165.209 233.038 165.167 233.219C164.901 234.643 164.615 236.152 164.308 237.746C164.204 238.282 164.106 238.824 164.001 239.374C163.799 240.445 163.589 241.543 163.373 242.675C163.317 242.936 163.268 243.197 163.226 243.465C162.91 245.104 162.587 246.809 162.256 248.581C162.215 248.762 162.187 248.943 162.152 249.124C161.991 249.954 161.831 250.791 161.677 251.649C161.656 251.714 161.642 251.781 161.635 251.849L161.405 253.068C161.098 254.702 160.781 256.374 160.456 258.084C160.372 258.506 160.288 258.935 160.212 259.37C160.051 260.234 159.884 261.104 159.716 261.982C159.507 263.073 159.297 264.171 159.088 265.29C158.879 266.408 158.669 267.526 158.453 268.638C158.341 269.207 158.236 269.776 158.125 270.346C157.999 271.015 157.867 271.685 157.741 272.402H97.4209C104.861 242.742 111.135 218.828 111.135 218.828L167.812 218.915Z" fill="#37474F"/>
<path d="M158.697 225.612C155.677 241.237 152.625 256.863 149.54 272.489H148.703C151.906 256.825 155.207 241.188 158.473 225.545C158.522 225.398 158.718 225.458 158.697 225.612Z" fill="#37474F"/>
<path d="M167.805 218.915C167.805 218.915 167.805 218.949 167.805 219.009C167.805 219.069 167.805 219.049 167.805 219.076C167.805 219.103 167.805 219.183 167.77 219.257V219.377C167.748 219.463 167.731 219.55 167.721 219.638C167.721 219.699 167.721 219.759 167.686 219.826C167.651 219.893 167.63 220.107 167.602 220.268C167.574 220.428 167.498 220.81 167.442 221.132C167.344 221.607 167.246 222.15 167.128 222.766C167.093 222.94 167.058 223.127 167.023 223.321C166.988 223.516 166.925 223.844 166.869 224.118C166.814 224.393 166.758 224.734 166.695 225.063C166.653 225.29 166.604 225.525 166.562 225.766C166.423 226.482 166.283 227.246 166.13 228.063C166.126 228.083 166.126 228.103 166.13 228.123C165.955 229.034 165.774 229.998 165.578 231.023C165.522 231.29 165.474 231.565 165.425 231.84C165.376 232.114 165.313 232.402 165.264 232.683C165.222 232.858 165.194 233.038 165.16 233.219C164.887 234.639 164.601 236.152 164.301 237.746C164.196 238.282 164.099 238.824 163.994 239.373C163.785 240.445 163.575 241.543 163.366 242.675C163.31 242.936 163.261 243.197 163.219 243.465C162.898 245.112 162.575 246.818 162.249 248.581C162.207 248.762 162.179 248.943 162.145 249.124C161.984 249.954 161.824 250.791 161.67 251.648C161.649 251.714 161.635 251.781 161.628 251.849L161.398 253.068C161.081 254.702 160.765 256.374 160.449 258.084C160.365 258.506 160.281 258.934 160.204 259.37C160.037 260.234 159.876 261.104 159.709 261.981C159.5 263.073 159.29 264.171 159.081 265.29C158.871 266.408 158.655 267.526 158.446 268.638C158.334 269.207 158.229 269.776 158.118 270.346C157.992 271.015 157.859 271.685 157.727 272.401H127.459L125.037 248.615L124.953 247.771L124.855 246.86L124.381 242.206L123.969 238.188L122.022 218.915H167.805Z" fill="#263238"/>
<path d="M202.079 272.489H137.027C136.915 266.743 136.797 261.185 136.65 255.941C136.65 255.814 136.65 255.687 136.65 255.559C136.65 255.559 129.057 251.247 124.967 247.865C124.272 247.316 123.632 246.706 123.055 246.043C120.438 242.842 117.813 230.534 112.384 218.955H191.945C204.87 243.023 203.963 262.363 202.079 272.489Z" fill="#37474F"/>
<path d="M121.157 245.193C125.03 246.713 128.512 249.05 131.946 251.307C135.512 253.644 138.786 256.35 142.219 258.861C142.352 258.961 142.219 259.169 142.08 259.075C138.465 256.859 134.675 254.91 131.095 252.626C127.605 250.41 124.004 248.253 120.982 245.461C120.863 245.354 120.996 245.126 121.157 245.193Z" fill="#263238"/>
<path d="M120.668 223.717C121.128 226.094 121.729 228.451 122.266 230.815C122.769 233.032 123.138 235.289 123.746 237.512C124.244 239.633 125.368 241.572 126.984 243.097C127.891 243.907 128.889 244.624 129.859 245.36C130.376 245.762 130.941 246.144 131.485 246.552C131.409 246.238 131.353 245.883 131.297 245.595C131.129 244.691 130.969 243.793 130.815 242.916C130.466 240.907 130.117 238.898 129.81 236.889C129.182 232.945 128.603 228.96 127.717 225.056C127.707 225.023 127.712 224.988 127.73 224.959C127.748 224.929 127.777 224.908 127.811 224.899C127.845 224.89 127.882 224.894 127.912 224.911C127.943 224.928 127.966 224.956 127.975 224.989C129.001 228.86 130.131 232.69 131.018 236.594C131.457 238.503 133.021 247.979 133.112 248.648C133.202 249.318 133.237 250.035 133.265 250.724C133.363 251.429 133.363 252.143 133.265 252.847C133.251 252.879 133.228 252.906 133.198 252.925C133.168 252.944 133.133 252.954 133.098 252.954C133.062 252.954 133.027 252.944 132.997 252.925C132.967 252.906 132.944 252.879 132.93 252.847C132.633 252.192 132.422 251.503 132.302 250.798C132.12 250.128 131.96 249.459 131.834 248.749C131.792 248.508 131.758 248.253 131.723 247.999C130.753 247.43 129.845 246.659 128.931 246.057C128.017 245.454 126.963 244.717 126.035 243.967C124.326 242.582 123.092 240.733 122.496 238.664C121.894 236.427 121.502 234.143 121.324 231.84C121.01 229.161 120.786 226.482 120.396 223.804C120.389 223.603 120.626 223.556 120.668 223.717Z" fill="#263238"/>
<path d="M187.576 243.023C186.537 242.501 182.517 243.425 175.196 242.22C173.76 242.043 172.397 241.512 171.238 240.679C169.333 239.186 167.889 236.782 166.737 234.726C165.355 232.413 164.295 229.937 163.582 227.36C163.548 227.206 163.31 227.279 163.338 227.427C163.61 228.88 163.764 230.333 164.162 231.773C164.557 233.124 165.063 234.443 165.676 235.717C166.779 238.101 168.077 240.659 170.303 242.273C172.641 243.961 175.887 244.282 178.734 244.47C180.374 244.577 186.795 244.409 187.66 243.532C187.693 243.495 187.717 243.451 187.731 243.404C187.744 243.357 187.747 243.308 187.739 243.259C187.731 243.211 187.713 243.165 187.685 243.124C187.656 243.084 187.62 243.049 187.576 243.023Z" fill="#263238"/>
<path d="M184.757 222.404C185.497 224.413 186.215 226.422 186.809 228.485C187.402 230.547 188.009 232.576 188.553 234.632C189.614 238.75 190.443 242.919 191.038 247.121C191.647 251.313 191.95 255.54 191.945 259.772L191.889 262.952C191.848 264.011 191.729 265.062 191.652 266.127L191.547 267.72C191.485 268.243 191.394 268.772 191.317 269.294C191.157 270.346 191.01 271.404 190.87 272.468C192.104 268.343 192.83 264.093 193.034 259.805C193.242 255.508 193.036 251.202 192.42 246.941C191.82 242.687 190.887 238.483 189.628 234.364C188.381 230.246 186.751 226.243 184.757 222.404Z" fill="#263238"/>
<path d="M115.608 125.53C88.3897 148.031 68.9042 167.512 68.9111 176.586C68.9111 196.917 79.9869 201.571 81.9899 200.975C103.178 194.646 117.541 156.636 126.984 133.653C136.357 110.858 123.418 119.088 115.608 125.53Z" fill="#FFD9D1"/>
<path d="M76.9302 157.587L110.032 175.594C110.032 175.594 124.458 147.314 129.573 130.318C134.689 113.322 127.521 113.697 111.546 126.708C95.5713 139.72 76.9302 157.587 76.9302 157.587Z" fill="#E33A3A"/>
<path d="M114.226 128.885C113.835 128.053 113.338 127.27 112.747 126.555L112.579 126.374C112.579 126.468 112.579 126.561 112.628 126.648C112.803 127.533 113.094 128.392 113.493 129.206C113.914 130.115 114.469 130.961 115.141 131.718C114.975 130.737 114.667 129.784 114.226 128.885ZM98.6001 139.894C97.6533 140.295 96.7718 140.825 95.983 141.468C98.0349 141.132 99.9596 140.287 101.566 139.017C100.539 139.171 99.5395 139.466 98.6001 139.894ZM130.139 124.371C130.424 124.339 130.706 124.285 130.983 124.211C130.983 124.037 131.032 123.869 131.053 123.702C130.732 123.914 130.426 124.146 130.139 124.398V124.371ZM102.599 160.386C102.224 161.314 101.989 162.288 101.901 163.279C102.513 162.477 102.998 161.593 103.339 160.654C103.71 159.728 103.945 158.756 104.037 157.768C103.43 158.57 102.945 159.452 102.599 160.386ZM125.358 137.256C124.982 138.183 124.747 139.157 124.66 140.149C125.272 139.347 125.756 138.462 126.098 137.524C126.469 136.597 126.704 135.626 126.796 134.637C126.188 135.44 125.704 136.322 125.358 137.256ZM86.3519 157.306C85.3854 156.945 84.3701 156.72 83.3369 156.636C85.0404 157.772 87.0219 158.464 89.0877 158.645C88.2444 158.08 87.3237 157.629 86.3519 157.306ZM113.773 147.549C112.806 147.188 111.791 146.963 110.758 146.879C112.461 148.015 114.443 148.707 116.508 148.888C115.667 148.313 114.746 147.854 113.773 147.522V147.549ZM115.273 150.977C115.273 150.977 115.273 151.024 115.273 151.044H115.399C115.359 151.01 115.317 150.979 115.273 150.951V150.977Z" fill="white"/>
<path d="M83.9023 152.785C96.639 161.377 109.027 167.029 111.504 168.456C111.616 168.523 111.721 168.335 111.595 168.268C109.09 166.996 95.5433 158.565 84.0069 152.584C83.8743 152.518 83.7836 152.705 83.9023 152.785Z" fill="#263238"/>
<path opacity="0.1" d="M100.994 170.699L110.032 175.614C110.032 175.614 124.458 147.334 129.573 130.338C131.451 124.077 131.667 120.173 130.39 118.391L100.994 170.699Z" fill="black"/>
<path d="M105.147 231.746H199.294C199.294 231.746 184.91 145.546 150.21 116.068C145.925 112.425 136.252 113.255 129.971 116.262C127.717 117.34 119.628 128.195 117.318 138.468C115.008 148.741 104.895 231.438 105.147 231.746Z" fill="#E33A3A"/>
<path d="M158.069 140.269C159.769 141.417 161.75 142.121 163.819 142.312C162.119 141.164 160.138 140.46 158.069 140.269ZM115.266 151.018H115.392C115.354 150.989 115.314 150.962 115.273 150.937C115.273 150.937 115.266 150.997 115.266 151.018ZM136.727 163.882C138.427 165.029 140.408 165.733 142.477 165.924C141.637 165.345 140.716 164.881 139.742 164.545C138.775 164.187 137.76 163.963 136.727 163.882ZM149.519 201.316C150.358 201.9 151.279 202.367 152.255 202.702C153.222 203.063 154.237 203.288 155.27 203.372C153.573 202.219 151.59 201.512 149.519 201.323V201.316ZM171.064 175.199C172.764 176.347 174.745 177.051 176.814 177.242C175.974 176.662 175.053 176.198 174.079 175.862C173.111 175.511 172.095 175.295 171.064 175.219V175.199ZM190.417 227.273C192.114 228.426 194.097 229.132 196.167 229.322C194.466 228.176 192.485 227.47 190.417 227.273ZM148.828 224.011C150.526 225.165 152.509 225.871 154.579 226.061C153.74 225.479 152.819 225.014 151.843 224.681C150.867 224.314 149.839 224.089 148.793 224.011H148.828ZM105.447 228.84C106.009 229.132 106.592 229.387 107.191 229.603C108.158 229.963 109.173 230.188 110.206 230.273C109.366 229.692 108.445 229.228 107.47 228.893C106.833 228.664 106.177 228.485 105.509 228.357C105.447 228.518 105.433 228.686 105.412 228.84H105.447ZM121.959 200.298C123.659 201.446 125.641 202.15 127.71 202.341C126.87 201.759 125.949 201.295 124.974 200.961C123.997 200.597 122.969 200.374 121.924 200.298H121.959ZM150.692 129.849C151.888 128.218 152.621 126.317 152.82 124.331C152.214 125.137 151.73 126.02 151.383 126.956C151.006 127.883 150.774 128.858 150.692 129.849ZM171.413 230.969C172.609 229.338 173.342 227.436 173.541 225.451C172.934 226.256 172.449 227.14 172.104 228.076C171.727 229.003 171.494 229.978 171.413 230.969ZM175.544 205.796C176.155 204.993 176.642 204.109 176.989 203.171C177.364 202.246 177.599 201.274 177.687 200.285C176.484 201.911 175.748 203.811 175.551 205.796H175.544ZM139.721 190.836C140.904 189.201 141.626 187.3 141.814 185.318C141.209 186.124 140.725 187.008 140.377 187.943C140.014 188.877 139.793 189.855 139.721 190.849V190.836ZM152.395 158.565C153.597 156.936 154.333 155.033 154.53 153.047C153.922 153.852 153.435 154.736 153.086 155.672C152.711 156.604 152.478 157.583 152.395 158.578V158.565ZM134.375 231.746H135.212C135.495 230.961 135.671 230.144 135.736 229.315C135.172 230.064 134.714 230.881 134.375 231.746ZM108.364 213.457C108.975 212.654 109.462 211.77 109.808 210.832C110.18 209.906 110.415 208.935 110.506 207.946C109.306 209.573 108.57 211.473 108.371 213.457H108.364ZM124.667 140.149C125.279 139.347 125.763 138.462 126.105 137.524C126.476 136.597 126.711 135.626 126.802 134.637C125.6 136.263 124.863 138.164 124.667 140.149ZM130.138 124.398C132.19 124.062 134.115 123.217 135.722 121.947C134.699 122.102 133.705 122.397 132.77 122.825C131.819 123.227 130.933 123.757 130.138 124.398ZM160.944 192.075C161.966 191.917 162.96 191.622 163.896 191.198C164.845 190.794 165.729 190.262 166.52 189.617C164.47 189.962 162.547 190.809 160.937 192.075H160.944ZM185.301 215.614C187.353 215.278 189.278 214.433 190.884 213.163C188.832 213.499 186.908 214.344 185.301 215.614ZM121.638 221.48C123.69 221.144 125.615 220.299 127.221 219.029C126.198 219.184 125.204 219.479 124.269 219.906C123.319 220.309 122.433 220.838 121.638 221.48ZM123.662 184.153C124.684 183.993 125.678 183.695 126.614 183.269C127.562 182.87 128.444 182.34 129.231 181.695C127.178 182.03 125.252 182.877 123.648 184.153H123.662ZM130.138 152.457C132.19 152.121 134.115 151.276 135.722 150.006C133.67 150.342 131.745 151.187 130.138 152.457ZM169.919 157.145C170.272 159.113 171.152 160.959 172.473 162.502C172.12 160.534 171.24 158.688 169.919 157.145ZM138.646 209.171C138.81 210.152 139.118 211.106 139.56 212.004C139.981 212.913 140.535 213.759 141.207 214.515C140.85 212.547 139.968 210.701 138.646 209.158V209.171ZM119.502 163.252C119.664 164.234 119.972 165.188 120.417 166.085C120.836 166.995 121.388 167.843 122.057 168.603C121.707 166.634 120.827 164.787 119.502 163.246V163.252ZM162.298 211.843C162.651 213.812 163.531 215.658 164.852 217.201C164.691 216.219 164.383 215.265 163.938 214.368C163.518 213.456 162.966 212.607 162.298 211.843ZM186.808 186.697C186.97 187.679 187.278 188.633 187.723 189.53C188.142 190.44 188.694 191.288 189.363 192.048C189.202 191.064 188.894 190.108 188.449 189.209C188.026 188.302 187.474 187.457 186.808 186.697ZM153.462 172.634C153.627 173.615 153.935 174.569 154.377 175.467C154.799 176.375 155.351 177.223 156.017 177.985C155.859 177.001 155.551 176.044 155.103 175.146C154.681 174.245 154.129 173.406 153.462 172.655V172.634ZM141.193 135.943C141.358 136.924 141.666 137.878 142.108 138.776C142.528 139.685 143.083 140.531 143.755 141.287C143.406 139.317 142.522 137.469 141.193 135.93V135.943Z" fill="white"/>
<path d="M162.326 123.213C191.261 143.671 212.205 161.685 212.903 170.759C214.48 191.037 203.83 196.481 201.779 196.033C180.143 191.258 162.849 154.373 151.627 132.16C140.481 110.081 154.042 117.353 162.326 123.213Z" fill="#FFD9D1"/>
<path d="M203.412 152.37L171.825 172.708C171.825 172.708 155.221 145.553 148.794 128.979C142.366 112.404 149.54 112.237 166.493 124.07C183.445 135.903 203.412 152.37 203.412 152.37Z" fill="#E33A3A"/>
<path d="M161.105 140.932C160.138 140.572 159.123 140.346 158.09 140.263C159.79 141.41 161.772 142.114 163.841 142.305C163.002 141.724 162.081 141.262 161.105 140.932ZM151.404 126.983C151.025 127.91 150.79 128.884 150.706 129.876C151.902 128.245 152.636 126.343 152.835 124.358C152.223 125.163 151.735 126.046 151.383 126.983H151.404ZM195.784 152.926C195.405 153.852 195.17 154.827 195.086 155.819C196.282 154.188 197.015 152.286 197.215 150.301C196.603 151.105 196.115 151.989 195.763 152.926H195.784ZM171.211 127.425C171.078 127.706 170.952 127.988 170.841 128.269C170.465 129.196 170.23 130.17 170.143 131.162C170.75 130.348 171.232 129.455 171.573 128.51C171.657 128.291 171.734 128.068 171.804 127.84L171.211 127.425ZM180.576 144.903C179.63 145.304 178.748 145.834 177.959 146.477C180.011 146.141 181.936 145.296 183.543 144.026C182.508 144.178 181.501 144.473 180.556 144.903H180.576ZM171.58 159.636C171.163 158.726 170.61 157.878 169.94 157.118C170.293 159.086 171.174 160.932 172.495 162.476C172.33 161.5 172.02 160.553 171.573 159.663L171.58 159.636Z" fill="white"/>
<path d="M196.083 148.098C184.065 157.58 172.152 164.116 169.8 165.717C169.688 165.79 169.57 165.61 169.688 165.536C172.089 164.083 184.952 154.694 195.965 147.904C196.09 147.823 196.202 148.004 196.083 148.098Z" fill="#263238"/>
<path d="M173.848 171.369C173.188 171.665 172.547 171.998 171.929 172.367C168.279 166.547 168.963 167.893 165.257 162.101C163.442 159.266 161.628 156.428 159.813 153.589C157.929 150.636 156.205 147.562 154.153 144.696C154.097 144.609 153.979 144.696 154.02 144.776C155.298 147.609 156.945 150.321 158.515 153.033C158.18 152.618 157.866 152.189 157.503 151.794C156.7 150.91 155.912 150.02 155.186 149.076C155.074 148.928 154.823 149.076 154.935 149.223C155.633 150.12 156.254 151.058 156.868 152.009C157.482 152.96 158.166 153.864 158.857 154.768C159.548 155.672 160.253 156.469 160.951 157.299L161.216 157.607C162.221 159.295 163.198 161.002 164.238 162.676C167.895 168.529 171.538 173.076 171.65 173.043C172.452 172.599 173.218 172.095 173.939 171.536C174.036 171.429 173.939 171.322 173.848 171.369Z" fill="#263238"/>
<path d="M198.456 194.064C194.695 185.626 191.435 174.068 204.912 140.082C206.775 135.394 244.909 139.071 243.192 144.194C241.022 150.643 231.146 175.226 230.183 176.934C222.102 191.358 201.004 199.789 198.456 194.064Z" fill="#FFD9D1"/>
<path d="M196.056 187.166C195.791 184.414 195.735 181.668 195.749 178.923C195.749 177.583 195.805 176.184 195.867 174.817C195.93 173.451 196.119 172.139 196.314 170.753C196.733 168.074 197.249 165.342 197.815 162.643C198.38 159.944 198.981 157.252 199.721 154.607C198.653 157.18 197.765 159.817 197.061 162.502C196.363 165.181 195.742 167.86 195.302 170.639C195.059 172.017 194.907 173.408 194.848 174.804C194.785 176.19 194.806 177.583 194.848 178.969C194.954 181.734 195.359 184.481 196.056 187.166Z" fill="#263238"/>
<path d="M213.015 126.126C207.383 130.747 203.167 144.274 203.167 144.274L239.661 153.649C239.661 153.649 244.665 143.202 249.648 139.399C251.1 138.294 258.428 132.213 265.937 126.749C274.452 120.554 282.561 113.007 282.792 111.788C283.231 109.445 279.574 107.583 272.812 110.449C266.049 113.315 253.877 121.144 253.019 121.391C252.722 121.452 252.421 121.492 252.119 121.512C251.728 121.438 243.925 114.695 239.277 115.646C234.629 116.597 213.699 125.001 213.015 126.126Z" fill="#FFD9D1"/>
<path d="M243.032 131.329C243.032 131.329 260.682 127.867 263.271 125.255C265.86 122.644 283.838 109.257 284.327 106.92C284.815 104.583 281.11 102.714 274.347 105.581C267.584 108.447 255.42 116.248 254.554 116.53C253.689 116.811 237.839 117.4 236.409 117.869C234.978 118.338 243.032 131.329 243.032 131.329Z" fill="#FFD9D1"/>
<path d="M253.228 130.727C255.029 129.95 256.794 129.099 258.56 128.256C259.439 127.82 260.312 127.378 261.177 126.916C261.61 126.682 262.043 126.454 262.468 126.2C262.685 126.086 262.894 125.945 263.11 125.811C263.326 125.668 263.531 125.512 263.725 125.342C266.733 122.925 269.747 120.474 272.741 118.016C275.736 115.559 278.702 113.094 281.633 110.523C282.376 109.853 283.03 109.097 283.58 108.273C283.858 107.856 284.077 107.406 284.229 106.933C284.407 106.427 284.407 105.879 284.229 105.373C284.118 105.129 283.958 104.909 283.758 104.725C283.558 104.541 283.322 104.397 283.064 104.302C282.584 104.122 282.077 104.023 281.563 104.007C280.567 103.972 279.57 104.074 278.604 104.308C279.576 104.183 280.56 104.172 281.535 104.275C282.005 104.325 282.463 104.452 282.889 104.65C283.087 104.736 283.265 104.86 283.411 105.014C283.558 105.168 283.67 105.35 283.74 105.547C283.992 106.324 283.552 107.221 283.043 107.951C282.482 108.691 281.833 109.365 281.109 109.96C278.094 112.351 275.066 114.802 272.078 117.26C269.091 119.717 266.111 122.202 263.208 124.787C262.483 125.39 261.697 125.924 260.863 126.38C260.033 126.883 259.181 127.358 258.337 127.84L253.228 130.727Z" fill="#263238"/>
<path d="M239.556 129.3C239.556 129.3 258.881 125.429 261.463 122.824C264.046 120.219 282.024 106.819 282.519 104.489C283.015 102.158 279.295 100.277 272.539 103.15C265.784 106.022 253.605 113.811 252.74 114.099C251.874 114.387 236.639 116.476 235.194 116.951C233.75 117.427 239.556 129.3 239.556 129.3Z" fill="#FFD9D1"/>
<path d="M249.676 129.883C251.832 128.831 253.947 127.7 256.069 126.534C257.115 125.952 258.162 125.363 259.188 124.746C259.705 124.445 260.221 124.13 260.731 123.796C261.242 123.461 261.729 123.094 262.189 122.697C265.856 119.684 269.508 116.646 273.146 113.583L278.569 108.956L279.916 107.784C280.385 107.392 280.828 106.971 281.242 106.525C281.666 106.062 282.027 105.549 282.317 104.998C282.651 104.409 282.779 103.733 282.68 103.069C282.607 102.708 282.423 102.376 282.149 102.118C281.892 101.884 281.585 101.706 281.249 101.596C280.632 101.406 279.985 101.317 279.337 101.335C278.105 101.367 276.88 101.534 275.687 101.83C273.32 102.401 271.074 103.361 269.05 104.67C271.152 103.538 273.431 102.74 275.798 102.306C276.96 102.071 278.143 101.954 279.33 101.958C279.894 101.961 280.454 102.059 280.984 102.246C281.213 102.31 281.419 102.434 281.58 102.603C281.741 102.771 281.851 102.979 281.898 103.203C281.939 103.701 281.814 104.198 281.542 104.623C281.27 105.105 280.94 105.555 280.558 105.962C279.79 106.759 278.813 107.496 277.92 108.266L272.455 112.84C268.826 115.907 265.197 118.974 261.631 122.115C261.209 122.512 260.759 122.881 260.284 123.22C259.809 123.554 259.314 123.889 258.818 124.211C257.82 124.88 256.808 125.49 255.789 126.113L249.676 129.883Z" fill="#263238"/>
<path d="M239.821 129.849C239.821 129.849 255.783 122.724 258.183 120.293C260.584 117.862 273.461 109.458 273.921 107.288C274.382 105.118 270.92 103.371 264.625 106.043C258.33 108.715 250.869 111.909 250.067 112.177C249.264 112.445 236.541 116.509 235.194 116.951C233.847 117.393 239.821 129.849 239.821 129.849Z" fill="#FFD9D1"/>
<path d="M244.686 129.213C247.422 127.787 250.136 126.313 252.851 124.854C254.247 124.124 255.559 123.38 256.906 122.624L257.918 122.054C258.263 121.851 258.594 121.628 258.909 121.385C259.544 120.929 260.144 120.46 260.752 119.978C263.145 118.056 265.497 116.088 267.772 114.038C268.91 113.02 270.041 111.982 271.15 110.924C271.702 110.395 272.253 109.86 272.79 109.304C273.359 108.748 273.877 108.148 274.34 107.509C274.483 107.301 274.582 107.068 274.631 106.823C274.681 106.579 274.679 106.327 274.626 106.083C274.48 105.603 274.148 105.196 273.698 104.944C272.95 104.538 272.119 104.296 271.262 104.234C269.625 104.063 267.969 104.279 266.439 104.864C263.536 106.002 260.689 107.194 257.827 108.38C254.966 109.565 252.084 110.784 249.306 111.996C247.875 112.538 246.403 113.047 244.944 113.556C243.485 114.065 242.027 114.621 240.582 115.197C243.625 114.487 246.612 113.683 249.613 112.793L258.211 109.237C261.073 108.072 263.948 106.893 266.823 105.795C268.198 105.267 269.684 105.063 271.157 105.199C271.859 105.245 272.542 105.435 273.16 105.755C273.284 105.802 273.394 105.877 273.482 105.974C273.569 106.07 273.632 106.184 273.666 106.308C273.699 106.432 273.701 106.561 273.673 106.686C273.645 106.811 273.586 106.928 273.502 107.027C273.079 107.61 272.613 108.163 272.106 108.681C271.59 109.223 271.046 109.759 270.501 110.288C269.42 111.346 268.303 112.384 267.172 113.409C264.911 115.451 262.657 117.507 260.312 119.436C259.726 119.925 259.139 120.407 258.532 120.869C257.924 121.314 257.287 121.723 256.627 122.094L252.649 124.445L244.686 129.213Z" fill="#263238"/>
<path d="M83.4274 199.401C87.6148 191.171 91.5301 179.793 79.9378 145.158C78.3327 140.37 40.0525 142.131 41.4902 147.328C43.2978 153.884 51.8052 178.929 52.6567 180.684C59.9568 195.477 80.566 204.986 83.4274 199.401Z" fill="#FFD9D1"/>
<path d="M86.1987 192.637C87.0368 189.981 87.582 187.247 87.8251 184.481C87.9507 183.101 88.0554 181.715 88.0694 180.322C88.0828 178.926 88.0082 177.531 87.846 176.143C87.5534 173.385 87.1131 170.642 86.5267 167.927C85.9758 165.204 85.2366 162.519 84.314 159.891C84.9003 162.569 85.3471 165.315 85.7729 168.034C86.1987 170.753 86.5547 173.485 86.8199 176.217C86.9456 177.556 87.0572 178.943 87.0503 180.295C87.0433 181.648 87.0084 183.034 86.9386 184.4C86.8269 187.159 86.6105 189.898 86.1987 192.637Z" fill="#263238"/>
<path d="M74.6693 130.285C79.2755 135.876 80.8458 147.93 80.8458 147.93L43.0123 152.39C43.0123 152.39 40.1788 141.22 36.0332 136.573C34.8328 135.233 28.8448 127.914 22.5706 121.17C15.445 113.523 8.98937 104.63 9.0103 103.391C9.0452 101.013 13.0023 99.8549 19.0671 103.913C25.1319 107.971 35.5307 117.856 36.3124 118.291C36.5935 118.404 36.8827 118.498 37.1778 118.572C37.5826 118.572 46.5856 113.382 50.9545 115.17C55.3234 116.958 74.2297 129.059 74.6693 130.285Z" fill="#FFD9D1"/>
<path d="M44.1708 129.883C44.1708 129.883 27.5397 123.246 25.5297 120.206C23.5197 117.166 8.53567 100.732 8.51473 98.3749C8.49379 96.0177 12.5137 94.8324 18.5785 98.8905C24.6433 102.949 35.0352 112.833 35.8238 113.275C36.6124 113.717 52.0571 117.193 53.3761 117.929C54.6952 118.666 44.1708 129.883 44.1708 129.883Z" fill="#FFD9D1"/>
<path d="M34.2531 127.418C32.6409 126.32 31.0846 125.162 29.5143 124.01C28.7396 123.427 27.9719 122.824 27.2112 122.215C26.8344 121.907 26.4575 121.599 26.0876 121.278C25.8992 121.124 25.7177 120.943 25.5362 120.775C25.3556 120.595 25.1855 120.405 25.0268 120.206C22.5562 117.28 20.0856 114.32 17.6359 111.36C15.1863 108.4 12.7506 105.427 10.3987 102.366C9.81566 101.571 9.33305 100.712 8.96097 99.808C8.76905 99.3425 8.64686 98.8533 8.59806 98.3548C8.52765 97.8237 8.6404 97.2851 8.9191 96.8213C9.08075 96.5985 9.28778 96.4095 9.52768 96.2656C9.76758 96.1217 10.0354 96.026 10.3149 95.9842C10.8207 95.9006 11.3376 95.9006 11.8433 95.9842C12.826 96.1355 13.782 96.4173 14.6838 96.8213C13.7544 96.5236 12.7916 96.3326 11.8154 96.2521C11.3464 96.2145 10.8741 96.2553 10.4196 96.3726C10.2076 96.4187 10.0081 96.5069 9.8338 96.6314C9.65951 96.756 9.51434 96.9142 9.40763 97.0959C9.00285 97.8124 9.25409 98.7767 9.62398 99.587C10.0032 100.413 10.4834 101.193 11.0547 101.911C13.5323 104.81 16.0168 107.777 18.4595 110.737C20.9022 113.697 23.3448 116.677 25.6689 119.751C26.2562 120.482 26.9178 121.155 27.6439 121.76C28.3418 122.429 29.1026 123.025 29.8354 123.655L34.2531 127.418Z" fill="#263238"/>
<path d="M47.9877 128.51C47.9877 128.51 29.7863 121.144 27.7484 118.13C25.7105 115.117 10.7544 98.6495 10.7335 96.2722C10.7125 93.8949 14.7325 92.7296 20.7973 96.7878C26.8621 100.846 37.2539 110.73 38.0426 111.166C38.8312 111.601 53.3965 116.456 54.7016 117.193C56.0067 117.929 47.9877 128.51 47.9877 128.51Z" fill="#FFD9D1"/>
<path d="M37.9377 127.244C36.0254 125.811 34.176 124.318 32.3544 122.818C31.4402 122.054 30.5329 121.284 29.6466 120.494C29.1999 120.092 28.7532 119.69 28.3205 119.275C27.8858 118.855 27.4802 118.407 27.1062 117.936C24.1145 114.302 21.1368 110.648 18.173 106.973L13.7692 101.442L12.6805 100.042C12.2973 99.5722 11.9476 99.0777 11.6336 98.5625C11.3076 98.0311 11.0542 97.4617 10.8799 96.8682C10.6605 96.2311 10.6605 95.5432 10.8799 94.9061C11.0216 94.5672 11.2643 94.276 11.5778 94.069C11.8791 93.8878 12.2167 93.7692 12.5688 93.7208C13.2094 93.6468 13.8585 93.6785 14.488 93.8145C15.6927 94.0742 16.8632 94.4628 17.9776 94.973C20.1873 95.9715 22.1994 97.3311 23.9237 98.991C22.0882 97.4944 20.0117 96.2935 17.7752 95.4351C16.6822 94.9897 15.5428 94.6575 14.3764 94.444C13.8199 94.3507 13.2508 94.3507 12.6944 94.444C12.4564 94.466 12.2292 94.55 12.0373 94.6869C11.8454 94.8238 11.6962 95.0084 11.6057 95.2208C11.4707 95.6999 11.4926 96.2073 11.6685 96.674C11.8436 97.1905 12.0776 97.6868 12.3664 98.154C12.9596 99.0781 13.7622 99.9822 14.502 100.9L18.9477 106.398C21.8998 110.074 24.8519 113.764 27.7273 117.487C28.0596 117.958 28.4257 118.405 28.823 118.827C29.2278 119.248 29.6466 119.664 30.0723 120.072C30.9167 120.889 31.7891 121.693 32.6615 122.496L37.9377 127.244Z" fill="#263238"/>
<path d="M47.6181 129.019C47.6181 129.019 33.3668 119.095 31.4964 116.295C29.6261 113.496 18.6619 102.835 18.648 100.618C18.634 98.4018 22.3678 97.3169 28.0139 101.101C33.66 104.884 40.3668 109.384 41.0647 109.793C41.7626 110.201 53.4875 116.489 54.7158 117.206C55.9441 117.923 47.6181 129.019 47.6181 129.019Z" fill="#FFD9D1"/>
<path d="M42.9702 127.505C40.5624 125.597 38.1965 123.655 35.8236 121.72C34.6372 120.755 33.4577 119.78 32.2852 118.793L31.4059 118.043C31.1192 117.789 30.8488 117.518 30.5963 117.233C30.0659 116.67 29.5704 116.094 29.0748 115.512C27.1067 113.188 25.1875 110.824 23.366 108.393C22.4517 107.181 21.5444 105.956 20.6721 104.717C20.2324 104.094 19.7997 103.464 19.3809 102.822C18.9338 102.172 18.5462 101.486 18.2224 100.772C18.122 100.542 18.0703 100.295 18.0703 100.046C18.0703 99.7963 18.122 99.5493 18.2224 99.3191C18.4539 98.8831 18.8473 98.5462 19.3251 98.3749C20.1402 98.1142 21.0048 98.0274 21.8585 98.1204C23.4986 98.2565 25.0795 98.7736 26.4647 99.6272C29.0888 101.275 31.6431 102.976 34.2184 104.663C36.7937 106.351 39.3759 108.072 41.8954 109.773C43.1935 110.57 44.5404 111.333 45.8665 112.11C47.1925 112.887 48.5185 113.684 49.8166 114.514C46.9761 113.262 44.2334 111.929 41.4417 110.496L33.7089 105.427C31.1267 103.759 28.5444 102.078 25.9412 100.464C24.6936 99.706 23.2741 99.2466 21.8027 99.1249C21.1004 99.0344 20.3859 99.0915 19.7089 99.2924C19.5786 99.3171 19.4561 99.3708 19.3512 99.4492C19.2464 99.5275 19.1621 99.6283 19.1051 99.7435C19.0481 99.8587 19.02 99.9851 19.0231 100.113C19.0261 100.24 19.0603 100.365 19.1227 100.478C19.4246 101.133 19.7793 101.764 20.1835 102.366C20.5883 102.996 21.007 103.618 21.4397 104.235C22.2912 105.473 23.1845 106.699 24.0848 107.911C25.8924 110.335 27.7 112.766 29.6122 115.117C30.0868 115.699 30.5684 116.282 31.0709 116.844C31.5781 117.384 32.1188 117.894 32.69 118.371L36.1237 121.411L42.9702 127.505Z" fill="#263238"/>
<path d="M152.625 120.909C149.959 125.643 146.058 129.632 141.305 132.488C139.034 133.928 136.424 134.803 133.712 135.033C132.302 135.172 130.881 134.884 129.65 134.209C128.508 133.413 127.599 132.347 127.012 131.115C126.311 129.716 125.825 128.228 125.568 126.695C125.26 124.959 125.078 123.205 125.023 121.445C125.023 121.378 124.918 121.391 124.918 121.445C124.974 123.112 124.884 124.793 125.065 126.441C125.193 127.905 125.517 129.348 126.028 130.733C126.519 132.044 127.294 133.241 128.303 134.242C129.364 135.227 130.759 135.811 132.233 135.89C135.122 136.024 137.988 135.339 140.475 133.921C142.991 132.578 145.275 130.868 147.244 128.852C149.518 126.525 151.384 123.861 152.772 120.963C152.781 120.953 152.787 120.941 152.79 120.929C152.794 120.916 152.794 120.903 152.79 120.89C152.787 120.878 152.781 120.866 152.772 120.856C152.763 120.847 152.752 120.839 152.739 120.835C152.726 120.83 152.713 120.828 152.699 120.83C152.686 120.831 152.673 120.836 152.662 120.843C152.651 120.851 152.641 120.861 152.635 120.872C152.629 120.884 152.625 120.896 152.625 120.909Z" fill="#263238"/>
<path d="M131.325 131.336C136.699 132.776 146.344 125.182 150.294 118.874C150.559 118.438 150.05 113.757 149.708 108.032C149.52 104.556 149.387 100.665 149.534 97.1429C149.568 96.4196 126.161 101.65 126.161 101.65C126.161 101.65 128.129 109.157 127.829 115.331C127.804 115.819 127.729 116.304 127.605 116.778C127.605 116.844 127.605 116.925 127.563 117.019C126.977 119.764 126.133 129.943 131.325 131.336Z" fill="#FFD9D1"/>
<path d="M129.936 117.226C129.143 117.22 128.352 117.15 127.57 117.018C127.579 116.937 127.593 116.857 127.612 116.777C127.734 116.303 127.806 115.819 127.829 115.331C128.122 109.163 126.161 101.65 126.161 101.65C126.161 101.65 145.165 97.4039 148.905 97.0891C148.019 101.154 143.601 117.467 129.936 117.226Z" fill="#263238"/>
<path d="M154.824 72.1106C156.38 80.2136 149.38 102.359 142.959 106.773C133.67 113.161 119.81 112.351 114.492 101.938C109.334 91.839 118.986 63.1304 126.021 59.253C136.371 53.5474 152.5 60.1369 154.824 72.1106Z" fill="#FFD9D1"/>
<path d="M133.531 82.2359C133.531 82.1823 133.628 82.3497 133.607 82.4033C133.042 83.8699 132.665 85.6378 133.887 86.5754C133.929 86.5754 133.887 86.6758 133.845 86.649C132.225 85.8789 132.756 83.5418 133.531 82.2359Z" fill="#263238"/>
<path d="M135.443 81.131C137.984 81.7337 136.532 86.5754 134.18 86.0129C131.827 85.4504 133.307 80.6221 135.443 81.131Z" fill="#263238"/>
<path d="M124.116 79.3095C124.116 79.2492 123.976 79.3497 123.955 79.4099C123.557 80.9234 122.831 82.5908 121.275 82.698C121.226 82.698 121.205 82.7784 121.275 82.7851C123.02 83.0261 123.955 80.8028 124.116 79.3095Z" fill="#263238"/>
<path d="M123.16 77.3607C120.703 76.4834 119.055 81.2648 121.331 82.0484C123.606 82.8319 125.219 78.0973 123.16 77.3607Z" fill="#263238"/>
<path d="M137.683 81.5328C137.007 81.2996 136.346 81.0313 135.701 80.7292C134.96 80.5391 134.305 80.1202 133.837 79.5372C133.728 79.327 133.695 79.0878 133.743 78.8575C133.791 78.6271 133.917 78.4186 134.102 78.2649C134.926 77.6421 135.959 77.8095 136.894 78.1577C137.84 78.4757 138.629 79.1203 139.106 79.9658C139.206 80.1652 139.243 80.3883 139.212 80.6074C139.181 80.8266 139.083 81.0322 138.932 81.1989C138.78 81.3656 138.581 81.486 138.359 81.5454C138.137 81.6047 137.902 81.6004 137.683 81.5328Z" fill="#263238"/>
<path d="M122.936 72.1976C123.653 72.2611 124.373 72.288 125.093 72.2779C125.847 72.4067 126.624 72.2938 127.305 71.9565C127.497 71.8094 127.633 71.6053 127.691 71.3763C127.749 71.1472 127.726 70.9061 127.626 70.6908C127.151 69.7935 126.146 69.5256 125.155 69.4653C124.162 69.3697 123.167 69.6322 122.364 70.202C122.187 70.3407 122.056 70.5257 121.986 70.7346C121.917 70.9435 121.912 71.1671 121.973 71.3785C122.034 71.5899 122.157 71.7798 122.328 71.9252C122.499 72.0706 122.71 72.1652 122.936 72.1976Z" fill="#263238"/>
<path d="M127.277 97.558C126.83 97.8933 126.275 98.0685 125.707 98.0536C125.14 97.8741 124.617 97.5846 124.171 97.2031C124.129 97.1696 124.06 97.2031 124.08 97.2567C124.214 97.6054 124.442 97.9134 124.742 98.1489C125.041 98.3844 125.401 98.5388 125.784 98.596C126.123 98.6069 126.458 98.5219 126.747 98.3516C127.036 98.1814 127.267 97.9333 127.41 97.6384C127.459 97.5915 127.347 97.5245 127.277 97.558Z" fill="#263238"/>
<path d="M128.547 94.9597C126.768 93.6204 124.116 93.1449 122.42 92.877C122.245 92.8034 122.182 92.4083 122.203 92.2074C122.203 92.1471 123.292 89.0198 123.292 89.0198C122.783 89.1068 120.242 89.4417 120.466 88.8523C122.308 83.937 124.36 78.4725 127.277 73.9589C127.298 73.9323 127.328 73.9133 127.362 73.9052C127.396 73.8971 127.432 73.9004 127.464 73.9144C127.495 73.9285 127.521 73.9525 127.537 73.9825C127.552 74.0125 127.557 74.0467 127.549 74.0795C125.972 78.8676 123.529 83.3611 121.861 88.1425C122.771 88.0188 123.694 88.0188 124.604 88.1425C124.758 88.2362 123.271 91.4574 123.166 91.9864C123.166 91.9864 126.656 91.9864 128.75 94.3034C129.322 94.9061 129.392 95.5892 128.547 94.9597Z" fill="#263238"/>
<path d="M120.626 63.9272C127.312 71.702 141.194 66.5523 141.194 66.5523C141.381 68.4928 142.217 70.3232 143.576 71.7712C144.936 73.2191 146.746 74.2072 148.738 74.5883C148.738 74.5883 146.33 88.571 150.05 89.5688C155.724 91.0956 162.996 73.1284 162.298 69.01C161.6 64.8915 157.071 62.6414 157.071 62.6414C157.071 62.6414 157.559 59.7284 154.824 56.1992C151.809 52.2884 137.313 52.4357 137.313 52.4357C137.061 50.5176 136.344 48.6828 135.219 47.0784C134.952 46.6814 134.603 46.3406 134.194 46.0767C133.785 45.8128 133.325 45.6312 132.841 45.5429C132.357 45.4547 131.859 45.4616 131.378 45.5632C130.896 45.6648 130.442 45.859 130.041 46.1341C130.453 47.3285 130.577 48.597 130.404 49.8441C129.887 53.9893 126.517 53.0585 127.612 49.4758C127.974 48.1168 128.834 46.9282 130.034 46.1274C129.078 43.3215 126.586 41.8081 124.562 42.6117C120.863 44.0649 115.043 57.4649 120.626 63.9272Z" fill="#263238"/>
<path d="M150.79 70.5301C150.803 70.5094 150.819 70.4913 150.839 70.4767C150.858 70.4622 150.881 70.4515 150.905 70.4452C150.929 70.439 150.954 70.4374 150.979 70.4405C151.003 70.4435 151.027 70.4512 151.048 70.4631C151.07 70.475 151.089 70.4908 151.104 70.5097C151.119 70.5285 151.13 70.5501 151.137 70.5731C151.143 70.5961 151.145 70.6201 151.142 70.6438C151.139 70.6674 151.131 70.6902 151.118 70.7109C149.701 73.2448 148.602 75.9311 147.844 78.7134C147.209 81.4925 146.665 88.7584 150.993 89.0999C151.03 89.1074 151.064 89.1272 151.089 89.1559C151.113 89.1845 151.126 89.2203 151.126 89.2573C151.126 89.2943 151.113 89.3301 151.089 89.3588C151.064 89.3874 151.03 89.4072 150.993 89.4147C147.928 89.9169 147.063 86.0663 146.867 83.535C146.49 78.9545 148.438 74.4275 150.79 70.5301Z" fill="#263238"/>
<path d="M124.814 42.4846V42.5315C118.916 46.6098 115.629 53.8154 117.869 60.7063C120.661 69.3718 132.191 67.4565 139.149 66.01C139.491 65.9364 139.651 66.4319 139.309 66.5123C132.491 68.0994 120.884 69.7535 117.674 61.6907C114.785 54.5052 118.344 46.5294 124.814 42.4846Z" fill="#263238"/>
<path d="M155.849 62.2933C161.244 64.3961 164.468 68.019 163.324 73.825C162.684 76.7402 161.419 79.4959 159.61 81.9169C157.8 84.3379 155.486 86.3714 152.813 87.888C152.762 87.9102 152.704 87.9137 152.65 87.8977C152.597 87.8817 152.551 87.8474 152.522 87.8013C152.493 87.7552 152.482 87.7004 152.492 87.6473C152.502 87.5942 152.532 87.5464 152.576 87.513C156.442 84.8343 159.695 81.5998 161.565 77.314C162.961 74.1464 163.659 70.3762 161.998 67.1618C160.818 64.8448 157.999 63.5925 155.717 62.4741C155.612 62.4206 155.717 62.2464 155.849 62.2933Z" fill="#263238"/>
<path d="M135.282 53.1256C143.447 50.9559 158.354 50.8755 157.007 62.5478C157.007 62.6416 156.826 62.6282 156.833 62.5478C157.531 50.6679 143.433 52.2082 135.337 53.4604C135.135 53.5073 135.093 53.1725 135.282 53.1256Z" fill="#263238"/>
<path d="M148.668 89.8769C148.668 89.8769 155.005 83.2673 158.201 85.5308C161.398 87.7942 155.919 97.8593 151.662 98.7835C151.125 98.9334 150.562 98.9786 150.006 98.9163C149.451 98.854 148.914 98.6856 148.427 98.4209C147.94 98.1562 147.514 97.8007 147.173 97.3753C146.832 96.9499 146.583 96.4633 146.441 95.9441L148.668 89.8769Z" fill="#FFD9D1"/>
<path d="M156.554 88.3768C156.569 88.3768 156.583 88.3825 156.594 88.3925C156.604 88.4025 156.61 88.4162 156.61 88.4304C156.61 88.4446 156.604 88.4582 156.594 88.4683C156.583 88.4783 156.569 88.484 156.554 88.484C153.56 89.2206 151.711 91.5577 150.273 94.0422C151.264 93.1448 152.493 92.7363 153.763 93.8882C153.833 93.9484 153.763 94.0489 153.665 94.0221C153.187 93.8062 152.65 93.7373 152.129 93.8248C151.608 93.9123 151.128 94.1519 150.755 94.511C150.137 95.1223 149.589 95.7959 149.122 96.52C148.954 96.7477 148.515 96.5601 148.647 96.2923C148.656 96.2709 148.668 96.2506 148.682 96.232C149.122 92.7297 152.618 88.2295 156.554 88.3768Z" fill="#263238"/>
<path d="M156.219 280.17C156.17 280.444 156.114 280.719 156.059 281C156.107 280.725 156.163 280.444 156.212 280.17H156.219Z" fill="#EBEBEB"/>
<path d="M177.561 49.7168C177.562 50.684 177.265 51.6298 176.706 52.4346C176.147 53.2394 175.352 53.867 174.421 54.2381C173.49 54.6091 172.465 54.7069 171.477 54.519C170.488 54.3311 169.579 53.8661 168.866 53.1826C168.153 52.4992 167.667 51.6282 167.47 50.6797C167.273 49.7312 167.373 48.748 167.759 47.8543C168.144 46.9606 168.797 46.1968 169.635 45.6593C170.473 45.1218 171.458 44.835 172.466 44.835C173.816 44.835 175.111 45.3491 176.066 46.2644C177.022 47.1798 177.559 48.4215 177.561 49.7168Z" fill="white"/>
<path d="M177.561 49.7169C177.562 50.7241 177.249 51.7087 176.663 52.5443C176.077 53.3799 175.244 54.0284 174.271 54.4067C173.298 54.785 172.23 54.8758 171.203 54.6675C170.176 54.4592 169.237 53.9613 168.507 53.2376C167.776 52.514 167.288 51.5975 167.104 50.6058C166.921 49.614 167.05 48.5922 167.475 47.6714C167.901 46.7506 168.603 45.9727 169.492 45.4375C170.382 44.9023 171.417 44.6342 172.467 44.6676C173.831 44.7143 175.124 45.2662 176.074 46.2076C177.024 47.1489 177.557 48.4066 177.561 49.7169ZM177.561 49.7169C177.561 48.6297 177.169 47.576 176.453 46.7337C175.737 45.8915 174.739 45.3122 173.629 45.0938C172.519 44.8755 171.365 45.0313 170.361 45.5351C169.357 46.0389 168.565 46.8598 168.119 47.859C167.672 48.8583 167.599 49.9747 167.911 51.0198C168.224 52.0648 168.902 52.9745 169.832 53.5951C170.763 54.2157 171.888 54.5092 173.017 54.4261C174.147 54.343 175.212 53.8883 176.033 53.1389C176.515 52.6967 176.899 52.1657 177.161 51.5776C177.424 50.9896 177.56 50.3566 177.561 49.7169Z" fill="#263238"/>
<path d="M216.072 23.419C216.073 28.0167 214.654 32.5116 211.993 36.3355C209.333 40.1594 205.55 43.1406 201.124 44.9022C196.698 46.6638 191.828 47.1268 187.127 46.2325C182.427 45.3383 178.109 43.1271 174.718 39.8783C171.328 36.6296 169.017 32.4892 168.078 27.9806C167.14 23.4719 167.615 18.7974 169.445 14.5481C171.274 10.2987 174.376 6.66513 178.357 4.10678C182.338 1.54843 187.021 0.180117 191.812 0.17482C194.996 0.1713 198.15 0.769883 201.092 1.93635C204.035 3.10282 206.709 4.81431 208.962 6.973C211.215 9.13168 213.002 11.6952 214.222 14.5171C215.442 17.339 216.071 20.3639 216.072 23.419Z" fill="white"/>
<path d="M216.071 23.4191C216.079 29.5902 213.54 35.5132 209.009 39.8929C206.177 42.6486 202.679 44.6889 198.826 45.8315C194.973 46.9742 190.885 47.1838 186.928 46.4415C182.97 45.6992 179.265 44.0281 176.144 41.5775C173.023 39.1269 170.583 35.9729 169.041 32.3971C167.5 28.8213 166.905 24.9349 167.31 21.0848C167.715 17.2348 169.107 13.5408 171.362 10.3326C173.617 7.12447 176.665 4.50194 180.233 2.69911C183.801 0.896289 187.78 -0.0307377 191.812 0.000777492C198.268 0.04234 204.442 2.53989 208.981 6.94523C211.228 9.11156 213.008 11.6814 214.22 14.508C215.432 17.3346 216.051 20.3626 216.044 23.4191H216.071ZM216.071 23.4191C216.071 20.3718 215.441 17.3549 214.219 14.5424C212.997 11.7298 211.207 9.17723 208.951 7.03189C206.696 4.88655 204.021 3.19089 201.079 2.04274C198.137 0.894596 194.988 0.316673 191.812 0.342309C187.874 0.37618 184.004 1.33766 180.544 3.14228C177.083 4.9469 174.137 7.53941 171.965 10.692C169.793 13.8447 168.462 17.4609 168.087 21.223C167.712 24.9851 168.306 28.7779 169.817 32.2681C171.327 35.7584 173.708 38.8393 176.75 41.2401C179.791 43.6409 183.401 45.2882 187.262 46.0372C191.122 46.7861 195.115 46.6139 198.89 45.5355C202.665 44.4572 206.106 42.5057 208.911 39.8527C213.459 35.5087 216.024 29.6101 216.044 23.4525L216.071 23.4191Z" fill="#263238"/>
<path d="M165.773 57.7728C165.773 58.3105 165.607 58.8362 165.296 59.2833C164.985 59.7304 164.542 60.0789 164.024 60.2847C163.507 60.4905 162.937 60.5443 162.387 60.4394C161.838 60.3345 161.333 60.0756 160.936 59.6953C160.54 59.3151 160.27 58.8306 160.161 58.3032C160.052 57.7758 160.108 57.2292 160.322 56.7323C160.537 56.2355 160.9 55.8109 161.366 55.5122C161.832 55.2134 162.38 55.054 162.94 55.054C163.691 55.054 164.412 55.3404 164.944 55.8503C165.475 56.3602 165.773 57.0517 165.773 57.7728Z" fill="white"/>
<path d="M165.774 57.773C165.771 58.5094 165.478 59.2174 164.951 59.7535C164.425 60.2895 163.706 60.6133 162.94 60.6593C162.536 60.6782 162.132 60.6205 161.751 60.4895C161.37 60.3585 161.02 60.1568 160.721 59.8958C160.351 59.5704 160.072 59.1616 159.908 58.7065C159.745 58.2513 159.702 57.7642 159.784 57.2893C159.867 56.8144 160.071 56.3667 160.379 55.9868C160.688 55.6069 161.09 55.3068 161.549 55.1137C162.009 54.9207 162.512 54.8407 163.011 54.881C163.511 54.9214 163.993 55.0809 164.412 55.345C164.832 55.609 165.176 55.9694 165.414 56.3934C165.651 56.8174 165.775 57.2916 165.774 57.773ZM165.774 57.773C165.774 57.4234 165.7 57.0773 165.556 56.7563C165.411 56.4353 165.2 56.1462 164.934 55.907C164.668 55.6677 164.354 55.4834 164.011 55.3655C163.668 55.2476 163.304 55.1986 162.94 55.2215C162.421 55.2529 161.923 55.4293 161.507 55.7291C161.091 56.0289 160.775 56.4388 160.599 56.9085C160.423 57.3782 160.394 57.8871 160.515 58.3725C160.637 58.8578 160.904 59.2984 161.283 59.64C161.663 59.9816 162.138 60.2092 162.65 60.2948C163.163 60.3805 163.69 60.3203 164.168 60.1219C164.645 59.9234 165.051 59.5953 165.337 59.1779C165.622 58.7605 165.774 58.2722 165.774 57.773Z" fill="#263238"/>
<path d="M187.22 28.0599C187.204 26.9537 187.413 25.8551 187.835 24.8255C188.366 23.7441 189.257 22.8631 190.368 22.3209C190.752 22.0999 191.219 21.8454 191.764 21.5642C192.343 21.2742 192.894 20.9359 193.411 20.553C193.942 20.1697 194.402 19.7034 194.772 19.1735C195.146 18.6348 195.341 17.9995 195.33 17.352C195.336 16.8889 195.231 16.4307 195.023 16.0126C194.827 15.6293 194.55 15.2891 194.21 15.0137C193.87 14.7382 193.475 14.5333 193.048 14.4121C192.608 14.2791 192.149 14.2114 191.687 14.2112C191.161 14.2054 190.64 14.2987 190.152 14.4858C189.709 14.6561 189.291 14.8812 188.909 15.1555C188.541 15.4385 188.206 15.7597 187.911 16.1131C187.642 16.436 187.393 16.7737 187.165 17.1243L183.829 14.9211C184.149 14.1857 184.595 13.5068 185.148 12.9121C185.695 12.3271 186.33 11.8238 187.032 11.4187C187.742 11.0116 188.508 10.7027 189.307 10.5013C190.134 10.2921 190.986 10.1864 191.841 10.1865C192.814 10.1867 193.783 10.322 194.716 10.5883C195.646 10.8531 196.512 11.2924 197.263 11.8808C198.041 12.4985 198.669 13.2708 199.106 14.1443C199.873 15.8329 200.023 17.7208 199.532 19.5016C199.347 20.0854 199.067 20.637 198.701 21.1356C198.343 21.6334 197.918 22.0838 197.438 22.4749C196.918 22.8914 196.367 23.2718 195.791 23.6134C195.281 23.908 194.765 24.1893 194.255 24.4638C193.762 24.7214 193.295 25.0218 192.86 25.3612C192.448 25.681 192.096 26.0661 191.82 26.4996C191.542 26.978 191.405 27.5194 191.422 28.0666L187.22 28.0599ZM187.297 36.6317V31.569H191.554V36.6451L187.297 36.6317Z" fill="#E33A3A"/>
</g>
</svg>
